<svg width="1680" height="774" viewBox="0 0 1680 774" fill="none" xmlns="http://www.w3.org/2000/svg">
<rect width="1680" height="774" fill="#F6F6F6"/>
<path fill-rule="evenodd" clip-rule="evenodd" d="M1325.13 165.076C1331.96 158.291 1343.01 158.311 1349.82 165.119L1493.59 308.965L1637.88 165.097C1644.7 158.301 1655.75 158.301 1662.57 165.097L1806.89 308.987L1951.2 165.097C1958.02 158.301 1969.07 158.301 1975.89 165.097C1982.7 171.893 1982.7 182.912 1975.89 189.708L1819.23 345.903C1812.41 352.699 1801.36 352.699 1794.54 345.903L1650.23 202.013L1505.91 345.903C1502.63 349.17 1498.19 351.004 1493.55 351C1488.92 350.996 1484.48 349.154 1481.2 345.881L1325.09 189.686C1318.29 182.879 1318.31 171.86 1325.13 165.076Z" fill="#FFCA0C"/>
<path d="M1307.5 164C1317.16 164 1325 156.165 1325 146.5C1325 136.835 1317.16 129 1307.5 129C1297.84 129 1290 136.835 1290 146.5C1290 156.165 1297.84 164 1307.5 164Z" fill="#FFCA0C"/>
<path fill-rule="evenodd" clip-rule="evenodd" d="M-154.502 178.355C-163.061 172.137 -164.959 160.157 -158.74 151.598C-99.5485 70.1276 14.3479 51.8444 95.6823 110.937C177.017 170.03 194.824 284.002 135.633 365.472C129.414 374.032 117.434 375.929 108.875 369.71C100.316 363.492 98.4186 351.512 104.637 342.953C151.458 278.51 137.288 188.522 73.1629 141.933C9.03788 95.3431 -80.924 109.674 -127.745 174.117C-133.964 182.677 -145.943 184.574 -154.502 178.355Z" fill="#2FFFD0"/>
<path fill-rule="evenodd" clip-rule="evenodd" d="M85.5 413C95.7173 413 104 404.717 104 394.5C104 384.283 95.7173 376 85.5 376C75.2827 376 67 384.283 67 394.5C67 404.717 75.2827 413 85.5 413Z" fill="#2FFFD0"/>
</svg>
