<?xml version="1.0" encoding="utf-8"?>
<!-- Generator: Adobe Illustrator 18.0.0, SVG Export Plug-In . SVG Version: 6.00 Build 0)  -->
<!DOCTYPE svg PUBLIC "-//W3C//DTD SVG 1.1//EN" "http://www.w3.org/Graphics/SVG/1.1/DTD/svg11.dtd">
<svg version="1.1" id="Layer_3" xmlns="http://www.w3.org/2000/svg" xmlns:xlink="http://www.w3.org/1999/xlink" x="0px" y="0px"
	 viewBox="0 0 3000 3000" style="enable-background:new 0 0 3000 3000;" xml:space="preserve">
  <g style="fill:none;stroke:#000000;stroke-width:10;stroke-linecap:round;stroke-linejoin:round;">
	<path class="st0" d="M575.9,954c1,3.5,2.7,6.7,4.8,9.6c3.2,4.4,7.5,8.2,12.5,11.5c4.1,2.7,8.8,5.1,13.8,7c-3,4.6-5.4,9.2-7.1,13.9
		c-2.1,5.7-3.3,11.3-3.3,16.8c0,3.8,0.6,7.6,2,11.2c0.7,1.8,1.7,3.5,2.9,5.1c1.2,1.6,2.7,3,4.3,4.3c1.9,1.4,4.1,2.4,6.3,3.1
		c2.2,0.7,4.5,0.9,6.7,0.9c3.5,0,7-0.7,10.3-1.9c5-1.8,9.9-4.6,14.4-8.3c0.5-0.4,1.1-0.9,1.6-1.3c0,0.3,0,0.6,0,0.9
		c0,19.6,2.3,41.4,9.2,64.3c5.2,17.2,13,35,24.2,53.1c-2.6,3.7-4.2,8.2-4.2,13c0,12.3,10,22.3,22.3,22.3c12.3,0,22.3-10,22.3-22.3
		s-10-22.3-22.3-22.3c-0.9,0-1.8,0.1-2.6,0.2c-10.6-16.9-17.7-33.3-22.5-49.1c-6.3-21-8.5-40.9-8.5-59.1c0-0.3,0-0.6,0-0.9
		c2,1.8,4.1,3.3,6.3,4.7c3.2,2.1,6.4,3.7,9.8,4.9c3.3,1.2,6.8,1.9,10.3,1.9c2.2,0,4.5-0.3,6.7-0.9c2.2-0.7,4.4-1.7,6.3-3.1
		c1.7-1.2,3.1-2.7,4.3-4.3c1.8-2.4,3-5.1,3.8-7.8c0.8-2.8,1.1-5.6,1.1-8.5c0-5.5-1.2-11.1-3.3-16.8c-1.7-4.7-4.1-9.3-7.1-13.9
		c3.6-1.4,7-2.9,10.1-4.7c6.1-3.5,11.3-7.7,15.2-12.6c2-2.4,3.6-5.1,4.8-7.9c1.2-2.8,1.9-5.9,1.9-9.2c0-2.1-0.3-4.3-1-6.4v0
		c-1-3.2-2.8-6-5-8.2c-1.7-1.7-3.5-3.1-5.5-4.2c-3-1.7-6.3-2.9-9.7-3.7c-3.5-0.8-7.1-1.1-10.9-1.1c-5.7,0-11.7,0.8-17.8,2.5
		c-0.2-4.5-0.8-8.7-1.7-12.8c-0.9-3.8-2.1-7.4-3.6-10.7c-1.1-2.5-2.4-4.8-4-7c-2.3-3.2-5-6-8.3-8.2c-1.7-1.1-3.5-1.9-5.4-2.5
		c-1.9-0.6-4-0.9-6.1-0.9c-2.5,0-5,0.5-7.2,1.3c-2,0.7-3.8,1.7-5.4,2.9c-2.9,2.1-5.3,4.7-7.3,7.6c-3.1,4.4-5.3,9.6-6.9,15.3
		c-1.3,4.7-2.1,9.7-2.3,15c-6.1-1.7-12.1-2.5-17.8-2.5c-3.4,0-6.6,0.3-9.7,0.9c-4.7,0.9-9,2.5-12.8,5.1c-1.9,1.3-3.7,2.9-5.2,4.8
		c-1.5,1.9-2.7,4.1-3.5,6.4h0c-0.7,2.1-1,4.3-1,6.4C575.1,949.9,575.4,952,575.9,954z M649.1,906.6c1.2-1.7,2.4-2.8,3.3-3.3
		c0.4-0.3,0.8-0.4,1.1-0.5c0.3-0.1,0.5-0.1,0.8-0.1c0.3,0,0.6,0,1,0.2c0.3,0.1,0.8,0.3,1.2,0.7c0.9,0.6,1.9,1.7,3,3.2
		c1.6,2.3,3.2,5.7,4.3,9.7c1.1,4.1,1.8,8.8,1.8,13.8c0,1.4-0.1,2.8-0.2,4.1c-4.2,2.5-8,5.4-11.1,8.6c-2.5-2.6-5.4-4.9-8.6-7.1
		c-0.8-0.5-1.6-1.1-2.5-1.6c-0.1-1.3-0.1-2.7-0.1-4.1c0-4.4,0.5-8.5,1.4-12.2c0.6-2.8,1.5-5.2,2.5-7.4
		C647.5,909.1,648.3,907.7,649.1,906.6z M713.7,945c0.6,0.4,1,0.8,1.3,1.1c0.3,0.3,0.4,0.6,0.5,0.9v0c0.1,0.3,0.1,0.5,0.1,0.8
		c0,0.3-0.1,0.8-0.2,1.3c-0.3,1-0.9,2.3-2,3.8c-1.7,2.3-4.4,4.9-7.9,7.2c-3.5,2.4-7.9,4.5-12.8,6.1h0c-1.3,0.4-2.6,0.8-3.9,1.1
		c-2.1-1.9-4.4-3.6-6.6-5c-1.7-1.1-3.3-2-5-2.9c1.7-3.3,3.1-6.9,4.1-10.7c0.2-0.8,0.4-1.7,0.6-2.6c1.2-0.5,2.5-1,3.8-1.4
		c5.6-1.8,11-2.6,15.7-2.6c2.3,0,4.5,0.2,6.3,0.6C710.4,943.2,712.5,944.1,713.7,945z M693.2,1017.2c-0.2,0.5-0.4,0.8-0.6,1
		c-0.2,0.2-0.4,0.4-0.6,0.5c-0.2,0.2-0.5,0.3-0.8,0.4c-0.4,0.1-0.9,0.2-1.5,0.2c-1.1,0-2.6-0.2-4.3-0.9c-2.7-0.9-5.9-2.7-9.2-5.4
		c-3.3-2.6-6.5-6-9.5-10.1c-0.8-1.1-1.6-2.3-2.3-3.4c0.4-0.9,0.8-1.9,1.1-2.8c1.3-3.6,2.3-7.2,2.8-10.7c2.8,0.5,5.6,0.7,8.6,0.7
		c1.8,0,3.6-0.1,5.5-0.3c0.9,1,1.7,2.1,2.5,3.2c3,4.2,5.3,8.5,6.8,12.5c1.5,4,2.2,7.7,2.1,10.5
		C693.9,1014.8,693.5,1016.3,693.2,1017.2z M629.2,1015.5c-2.1,1.4-4.2,2.4-5.9,3c-1.8,0.6-3.3,0.9-4.3,0.9c-0.7,0-1.2-0.1-1.5-0.2
		c-0.4-0.1-0.6-0.2-0.8-0.4c-0.2-0.1-0.4-0.3-0.6-0.5c-0.3-0.4-0.6-0.9-0.8-1.8c-0.3-0.9-0.4-2.1-0.4-3.6c0-2.8,0.7-6.5,2.1-10.5
		c1.5-4,3.8-8.3,6.8-12.5c0.8-1.1,1.7-2.2,2.5-3.2c1.9,0.2,3.7,0.3,5.5,0.3c3,0,5.8-0.2,8.6-0.7c0.5,3.5,1.5,7.1,2.8,10.7
		c0.4,0.9,0.7,1.9,1.1,2.8c-0.7,1.1-1.5,2.3-2.3,3.4C638,1008.5,633.4,1012.7,629.2,1015.5z M669.5,966.8c0,8.4-6.8,15.2-15.2,15.2
		c-8.4,0-15.2-6.8-15.2-15.2c0-8.4,6.8-15.2,15.2-15.2C662.7,951.6,669.5,958.4,669.5,966.8z M622.9,944.8l2.4-7.4l0,0L622.9,944.8
		c1.3,0.4,2.6,0.9,3.8,1.4c0,0.1,0,0.2,0.1,0.3c0.9,3.8,2.1,7.4,3.6,10.7c0.3,0.7,0.7,1.5,1.1,2.2c-3.3,1.7-6.6,3.8-9.7,6.3
		c-0.7,0.5-1.3,1.1-1.9,1.6c-1.3-0.3-2.6-0.7-3.9-1.1h0c-3.7-1.2-7.1-2.7-10.1-4.4c-4.5-2.5-8-5.5-10.1-8.2
		c-1.1-1.3-1.8-2.6-2.2-3.6c-0.4-1-0.5-1.8-0.5-2.3c0-0.3,0-0.6,0.1-0.8h0c0.1-0.4,0.3-0.7,0.8-1.2c0.4-0.4,0.9-0.8,1.6-1.2
		c1.1-0.6,2.7-1.3,4.7-1.7c2-0.4,4.4-0.7,7-0.7C611.9,942.1,617.4,943,622.9,944.8z"/>
	<polygon class="st0" points="1333.8,2400.8 1334,2400.6 1334,2400.6 	"/>
	<path class="st0" d="M2508.2,1813.5c-14.8,0-26.7,12-26.7,26.7c0,10.4,5.9,19.3,14.5,23.8c-0.5,1.3-1,2.5-1.6,3.9
		c-0.9,2.4-2.2,4.8-3.4,7.4c-1.2,2.6-2.7,5.3-4.2,8c-0.4,0.7-0.8,1.4-1.2,2.1c-0.4,0.7-0.9,1.4-1.3,2.1c-0.9,1.4-1.8,2.8-2.7,4.2
		c-0.9,1.4-2,2.8-3,4.2c-0.5,0.7-1,1.4-1.5,2.1c-0.5,0.7-1.1,1.4-1.7,2.1c-1.1,1.4-2.3,2.8-3.4,4.2c-1.2,1.3-2.5,2.7-3.8,4.1
		c-1.2,1.4-2.6,2.7-4,4c-1.4,1.3-2.7,2.7-4.3,3.9c-5.8,5.2-12.4,9.7-19.4,13.8c-1.8,1-3.5,2.1-5.3,3c-1.8,0.9-3.6,1.9-5.5,2.7
		c-1.9,0.8-3.7,1.7-5.6,2.5l-5.8,2.2c-7.8,2.8-15.7,5.1-23.7,6.8c-8,1.6-16,2.7-23.8,3.4c-7.8,0.6-15.4,0.9-22.6,0.8
		c-1.8,0-3.6,0-5.3-0.1c-1.8-0.1-3.5-0.1-5.2-0.2c-3.4-0.1-6.7-0.4-9.8-0.6c-3.1-0.2-6.2-0.6-9-0.8c-2.9-0.2-5.6-0.6-8.1-0.9
		c-5.1-0.6-9.4-1.3-13-1.8c6.4-13.8,12.5-27.9,18.3-42.1c0.5,0,1.1,0.1,1.6,0.1c14.8,0,26.7-12,26.7-26.7c0-8.6-4.1-16.3-10.4-21.2
		c4.8-14,9.3-28.1,13.5-42.4c0.7-0.3,1.5-0.6,2.4-1c1.8-0.8,4-1.8,6.5-2.9c2.5-1.2,5.3-2.6,8.3-4.3c3-1.7,6.3-3.8,9.4-5.8
		c1.6-1,3.1-2.1,4.7-3.1c1.6-1,3.2-2.1,4.8-3.2c1.5-1,3-1.9,4.6-2.9c3.8,1.4,7.5,2.6,11.2,3.6c5.9,1.5,11.8,2.2,17.5,2.2
		c10.1,0,19.9-2.5,28.6-7.5c6.5-3.7,12.5-8.8,17.8-15.1c7.9-9.4,14.4-21.5,19.7-36.2c5.2-14.7,9.2-32.1,12-52.4l2-14.9l-14.1,5.2
		c-20.8,7.7-37.7,14.9-51.5,22c-10.3,5.4-19,10.7-26.2,16.4c-5.4,4.3-10,8.7-13.8,13.4c-5.7,7.1-9.7,14.8-12,23.1
		c-2,7-2.9,14.4-3.2,22.2c-1.4,0.9-2.8,1.7-4.2,2.6c-3.6,2.3-7,4.6-10.1,6.7c-2.5,1.8-4.7,3.4-6.9,4.8
		c16.6-63.3,27-129.3,30.6-197.3c0-0.3,0.1-0.7,0.1-1c0.6-12.6,1.1-25.3,1.2-38.1c16,4.7,30.2,6.9,42.9,6.9c7.4,0,14.4-0.8,20.8-2.3
		c6-1.4,11.6-3.5,16.7-6.2c9.6-5.1,17.4-12.3,23.6-20.8c5.4-7.5,9.6-15.9,13-25.1c5.8-16,9-34.1,10.8-53.2
		c2.7-28.6,2.3-59.3,2.4-87.8c0-14.2,0.2-27.9,0.8-40.3c0.6-12.5,1.8-23.7,3.8-33l3.2-15.3l-14.9,4.9c-20.8,6.9-39.7,15.2-56.6,25.7
		c-12.7,7.9-24.2,17-34.4,27.6c-15.3,15.9-27.5,35.1-36.2,58.2c-1.7,4.6-3.4,9.4-4.8,14.3c-3.4-24.6-7.6-48.9-12.8-72.8
		c0.6-1.1,1.1-2.3,1.5-3.5c1.9-5.1,2.7-10.8,2.7-16.9c0-5-0.7-10.2-1.9-15.5c3.8,0,7.6-0.4,11.1-1c7-1.2,13.3-3.4,18.6-6.6
		c2.7-1.6,5.1-3.5,7.2-5.8c2.1-2.3,3.8-4.9,4.9-8c0.7-2,1.2-4.2,1.2-6.4v0c0.1-3.3-0.6-6.6-1.9-9.5c-1-2.2-2.3-4.1-3.7-5.9
		c-2.2-2.6-4.9-4.9-7.9-6.8c-3-1.9-6.3-3.5-9.8-4.8c-5.4-2-11.3-3.2-17.6-3.8c1.3-4.3,2.2-8.5,2.7-12.6c0.5-3.9,0.6-7.7,0.3-11.3
		c-0.2-2.7-0.6-5.4-1.3-7.9c-1-3.8-2.6-7.4-5-10.5c-1.2-1.6-2.6-3-4.2-4.2c-1.6-1.2-3.5-2.3-5.4-3c-2.3-0.9-4.8-1.3-7.2-1.2
		c-2.1,0-4.2,0.3-6.1,0.9c-3.4,1-6.6,2.6-9.5,4.6c-2.6,1.8-5,4-7.3,6.5c-1.6-4.2-3.1-8.3-4.7-12.5c6.7-0.9,12.9-2.6,18.6-4.9
		c6.8-2.8,12.9-6.7,18-11.4c3.9-3.6,7.2-7.6,10-12c4.2-6.6,7.2-14.1,9.2-22.1c2-8,2.9-16.6,2.9-25.7c0-13.4-2-27.7-5.7-42.7
		c-3.7-15-9.2-30.7-16.3-46.6l-8.7-19.5l-7.9,19.8c-1.7,4.3-3.6,7.8-5.6,11c-3.5,5.6-7.6,10.1-12.3,14.9c-3.5,3.6-7.4,7.4-11.4,11.8
		c-6,6.6-12.3,14.7-18.1,25.7c-3.1,5.9-6,12.7-8.8,20.5c-4-8-8.1-15.8-12.2-23.6c-0.1-0.1-0.1-0.2-0.2-0.4
		c-18.8-35.1-39.7-68.8-62.6-100.9c8.6-6.3,16-12.8,22.5-19.5c12.4-12.9,21.1-26.4,26.6-40.3c5.5-13.9,7.8-28.1,7.8-42.2
		c0-18.8-4.1-37.4-9.9-55.5c-4.4-13.6-9.9-26.9-15.5-39.9c-8.5-19.5-17.5-38.2-24.2-55.5c-3.4-8.7-6.2-17-8.1-24.8
		c-1.9-7.8-3-15.2-3-21.9c0-1.6,0.1-3.2,0.2-4.7l1.7-21.6l-16.5,14.1c-19.3,16.5-39.9,39.8-55.8,67.9c-7.9,14-14.7,29.3-19.5,45.4
		c-4.8,16.2-7.6,33.3-7.6,50.9c0,10.2,1,20.7,3,31.2c-17-17.1-34.7-33.4-53-49.1c-0.3-1-0.6-2.2-1-3.7c-0.6-2-1.2-4.6-2-7.5
		c-0.4-1.5-0.8-3.1-1.3-4.8c-0.2-0.8-0.5-1.7-0.7-2.6c-0.3-0.9-0.6-1.8-0.9-2.8c-2.5-7.7-5.2-17.1-9-27.5c-0.9-2.6-1.9-5.3-2.9-8.1
		c-0.5-1.4-1-2.8-1.6-4.2c-0.6-1.4-1.1-2.9-1.7-4.3c-2.3-5.8-4.6-12-7.4-18.3c-1.4-3.1-2.8-6.4-4.2-9.6c-0.4-0.8-0.7-1.6-1.1-2.5
		c-0.4-0.8-0.8-1.6-1.2-2.5c-0.8-1.6-1.6-3.3-2.4-5c-1.6-3.3-3.3-6.7-4.9-10.2c-1.8-3.4-3.6-6.8-5.4-10.3c-0.9-1.7-1.8-3.5-2.8-5.3
		c-1-1.7-2-3.5-3-5.2c-2-3.5-4.1-7.1-6.1-10.7c-2.2-3.5-4.4-7.1-6.7-10.7c-1.1-1.8-2.2-3.6-3.4-5.4c-1.2-1.8-2.4-3.6-3.6-5.3
		c-1.2-1.8-2.4-3.6-3.6-5.4c-1.2-1.8-2.5-3.6-3.8-5.3c-2.6-3.5-5.2-7.1-7.9-10.6c-2.8-3.5-5.6-7-8.4-10.5c-1.4-1.8-2.9-3.5-4.3-5.2
		c-1.5-1.7-2.9-3.4-4.4-5.2c-11.9-13.7-24.9-26.8-38.8-39.1c-13.9-12.2-28.5-23.5-43.8-33.4c-15.3-9.9-31-18.6-46.9-25.7
		c-15.9-7-31.7-12.7-47.3-16.6c-1-0.2-1.9-0.5-2.9-0.7c-1-0.2-1.9-0.4-2.9-0.6c-1-0.2-1.9-0.4-2.9-0.6l-1.4-0.3l-0.4-0.1
		c-0.6-0.1-0.3,0-0.4-0.1l-0.2,0l-0.7-0.1c-3.7-0.6-7.4-1.2-11-1.8c-1.7-0.3-3.7-0.5-5.6-0.7c-1.9-0.2-3.7-0.4-5.6-0.6
		c-0.9-0.1-1.8-0.2-2.8-0.3c-0.9-0.1-1.8-0.2-2.7-0.2c-1.8-0.1-3.6-0.1-5.3-0.2c-1.8-0.1-3.5-0.1-5.2-0.2c-0.9,0-1.7,0-2.6,0
		c-0.8,0-1.7,0.1-2.5,0.1c-1.7,0.1-3.3,0.1-5,0.2c-1.6,0-3.3,0.1-4.8,0.3c-3.2,0.3-6.3,0.6-9.3,0.9c-3,0.5-5.9,1-8.7,1.4
		c-11.2,2.1-20.7,5.1-28.3,8.1c-1.9,0.8-3.7,1.4-5.4,2.2c-1.7,0.8-3.2,1.5-4.7,2.1c-1.4,0.7-2.7,1.4-3.9,2.1
		c-1.2,0.6-2.3,1.3-3.2,1.8c-1,0.5-1.8,1.1-2.5,1.5c-0.7,0.5-1.3,0.8-1.8,1.2c-0.9,0.6-1.5,1.1-1.5,1.1c-1.6,1.2-2.1,3.5-1.1,5.4
		c1.1,2,3.7,2.6,5.6,1.5l0.2-0.1c0,0,0.4-0.2,1.2-0.7c0.4-0.3,1-0.6,1.7-0.9c0.7-0.4,1.4-0.8,2.4-1.2c3.6-1.8,9.1-4.2,16.3-6.4
		c7.2-2.3,16.3-4.4,26.8-5.8c10.5-1.3,22.5-1.7,35.5-0.6c1.6,0.1,3.3,0.3,4.9,0.4c0.8,0,1.6,0.2,2.5,0.3c0.8,0.1,1.6,0.2,2.5,0.4
		c1.6,0.2,3.3,0.5,5,0.7c1.7,0.3,3.3,0.4,5.2,0.9c3.6,0.8,7.2,1.5,10.9,2.3l0.7,0.1l0.2,0c0,0,0.4,0.1-0.1,0l0.3,0.1l1.3,0.4
		c0.9,0.2,1.8,0.5,2.7,0.7c0.9,0.2,1.8,0.5,2.7,0.7c0.9,0.3,1.8,0.5,2.7,0.8c7.2,2,14.5,4.6,21.9,7.4c3.7,1.5,7.4,2.9,11.1,4.6
		c1.8,0.8,3.7,1.6,5.6,2.5c1.8,0.9,3.7,1.7,5.6,2.6c14.9,7.1,29.6,15.7,43.9,25.4c14.3,9.7,28.2,20.5,41.3,32.3
		c13.1,11.8,25.3,24.4,36.6,37.6c1.4,1.7,2.8,3.3,4.2,5c1.4,1.7,2.8,3.3,4.1,5c2.6,3.4,5.3,6.8,7.9,10.1c5,6.9,10,13.6,14.6,20.5
		c1.2,1.7,2.3,3.4,3.5,5.1c1.2,1.7,2.2,3.4,3.3,5.2c2.2,3.4,4.3,6.8,6.4,10.2c2,3.4,4,6.9,5.9,10.2c1,1.7,1.9,3.4,2.9,5
		c0.9,1.7,1.8,3.4,2.7,5.1c1.8,3.4,3.5,6.7,5.3,9.9c1.6,3.3,3.2,6.6,4.8,9.8c0.8,1.6,1.6,3.2,2.3,4.8c0.4,0.8,0.8,1.6,1.2,2.4
		c0.4,0.8,0.7,1.6,1.1,2.4c1.4,3.2,2.8,6.2,4.1,9.3c2.8,6,5.1,12,7.4,17.5c0.6,1.4,1.1,2.8,1.7,4.1c0.6,1.4,1.1,2.7,1.6,4.1
		c1,2.7,2,5.3,2.9,7.8c1.9,5.1,3.7,9.8,5.1,14.2c0.8,2.5,1.6,4.9,2.4,7.2c-7.8-6.2-15.7-12.3-23.7-18.2c-0.2-0.1-0.3-0.2-0.5-0.4
		c-20.9-15.5-42.5-30-64.7-43.6c-0.2-0.1-0.4-0.2-0.6-0.4c-31.8-19.4-64.8-36.8-99-52c-0.1,0-0.1-0.1-0.2-0.1c0-0.4-0.1-0.8-0.1-1.3
		c-0.1-1.2-0.2-2.7-0.5-3.9c-0.2-1.3-0.4-2.7-0.8-4.2c-0.4-1.4-0.7-3-1.2-4.6c-0.5-1.6-1.1-3.2-1.7-4.9c-0.7-1.6-1.3-3.4-2.1-5.1
		c-0.4-0.9-0.8-1.7-1.2-2.6c-0.4-0.9-0.8-1.8-1.3-2.6c-0.1-0.2-0.2-0.4-0.3-0.5c3.3-3.9,6.1-8.2,8.3-12.8c3.5-7.3,5.6-15.4,5.6-23.8
		c0-9.6-2.7-19.5-8.7-28.7c-4.4-6.9-10.6-13.3-18.5-18.9c-11.9-8.5-27.8-15.5-48.5-20.4c-20.6-4.9-46-7.7-77-7.7c-1.7,0-3.5,0-5.2,0
		l-14.3,0.1l6.3,12.8c7.4,15,15.8,29.4,24.9,42.5c13.7,19.7,29,36.6,45.3,48.9c2.9,2.2,5.8,4.2,8.7,6.1
		c-38.8-12.7-78.7-22.6-119.6-29.6c-1.9-10.3-3.5-19.1-5.7-27c-1-3.5-2.1-6.9-3.4-10.1c-2.3-5.6-5.4-10.8-9.5-15.3
		c-1.1-1.2-2.2-2.3-3.4-3.4c1-7.3,1.4-14.2,1.4-20.8c0-14.1-2.2-26.6-6.2-37.8c-3.5-9.7-8.5-18.4-14.6-26
		c-5.3-6.7-11.4-12.7-18-18.1c-11.7-9.5-25-17.3-39.2-24.7c-21.3-11-44.5-21-66.8-33c-22.4-12.1-43.8-26.2-61.8-45.3l-14.7-15.6
		l-0.8,21.5c-0.1,2.8-0.2,5.5-0.2,8.2c0,26.9,5,51.2,13.7,72.5c6.5,16,15.1,30.4,25.2,43.1c15.1,19.1,33.4,34.4,53.1,45.9
		c19.7,11.6,40.7,19.4,61.2,23.6c17.6,3.5,30.5,6.9,39.7,10.6c3.5,1.4,6.4,2.8,8.9,4.2c4.4,2.5,7.5,5,9.9,7.9
		c1.8,2.2,3.3,4.6,4.7,7.5c2,4.3,3.7,9.8,5.2,16.7c0.8,3.7,1.6,7.8,2.5,12.4c-24.1-3.6-48.5-6.1-73.2-7.6c-0.7-1.2-1.5-2.3-2.4-3.3
		c-2.2-2.6-4.9-4.9-7.9-6.8c-3-1.9-6.3-3.5-9.8-4.8c-5.4-2-11.3-3.2-17.6-3.8c1.3-4.3,2.2-8.5,2.7-12.6c0.5-3.9,0.6-7.7,0.3-11.3
		c-0.2-2.7-0.6-5.4-1.3-7.9c-1-3.8-2.6-7.4-5-10.5c-1.2-1.6-2.6-3-4.2-4.2c-1.5-1.1-3.1-2-4.8-2.7c-0.2-0.1-0.3-0.1-0.4-0.2
		c-0.1,0-0.1,0-0.2-0.1c0,0,0,0,0,0l0,0c0,0,0,0,0,0l0,0c0,0,0,0,0,0c0,0,0,0-0.1,0c0,0-0.1,0-0.1,0c0,0,0,0,0,0l0,0l0,0
		c-2.3-0.8-4.7-1.2-7.1-1.2c-2.1,0-4.2,0.3-6.1,0.9c-3.4,1-6.6,2.6-9.5,4.6c-4.4,3.1-8.3,7.2-11.7,12c-2.8,4-5.3,8.4-7.3,13.3
		c-5.2-3.7-10.6-6.5-15.9-8.5c-3.2-1.2-6.3-2-9.5-2.5c-4.7-0.7-9.3-0.7-13.8,0.4c-2.2,0.6-4.4,1.5-6.5,2.7c-0.9,0.5-1.7,1.2-2.5,1.8
		c-4.2-7.3-9.3-14.1-15.3-20.6c-11-11.9-24.7-22.6-41-32.6c-16.2-10-34.9-19.4-55.8-28.6l-14.5-6.4l2,15.7
		c3.1,24.8,6.2,44.9,10.5,61.6c3.3,12.5,7.2,23.1,12.7,32.3c4.1,6.8,9,12.8,14.9,17.8c4.4,3.8,9.3,7,14.7,9.7
		c5,2.6,10.5,4.7,16.4,6.5c-50.3,8.7-99.3,21.8-146.4,39c15.7-18,25.8-37.3,32.1-56.2c6.4-19.5,8.7-38.6,8.7-56
		c0-21.9-3.6-40.9-7.1-54.6c-3.6-13.7-7.2-22-7.3-22.4l-8.8-20.4l-7.9,20.7c-0.1,0.1-4.9,12.7-17.1,29.5
		c-12.3,16.8-31.9,37.8-61.5,54.9c-13.6,7.9-27.3,16-40.2,25.2c-9.7,6.9-19,14.4-27.4,22.8c-12.7,12.6-23.7,27.4-31.3,45.2
		c-7.7,17.8-12,38.5-12,62.8c0,11.6,1,24.1,3.1,37.5c-45.5,29.8-88.3,63.8-127.9,101.5c3.2-8,5.8-15.9,7.8-23.6
		c3.4-13.2,5-26,5-38.4c0-18.2-3.5-35.6-9.7-52.2c-6.2-16.6-15.2-32.4-26.3-47.6l-7.8-10.7l-7.1,11.2c-24.9,39.1-43.8,70.3-56.6,98
		c-6.4,13.9-11.3,26.9-14.7,39.5c-3.3,12.7-5,25-5,37.4c0,14.4,2.3,28.8,6.8,43.7c4.1,13.4,9.9,27.3,17.4,42.3
		c-10,12.8-19.7,26-29,39.3c-0.9-0.1-1.8-0.2-2.8-0.2c-12.3,0-22.3,10-22.3,22.3c0,12.3,10,22.3,22.3,22.3s22.3-10,22.3-22.3
		c0-4.8-1.5-9.2-4.1-12.9c10-14.3,20.5-28.3,31.3-42c13.5-14.5,25.2-28.4,35.3-42c6.7-7.5,13.6-14.9,20.5-22.2
		c0.5,0.3,1.1,0.6,1.7,0.9c1.1,0.5,2.3,1.1,3.6,1.8c1.3,0.7,2.7,1.4,4.4,2.1c1.7,0.7,3.5,1.4,5.4,2.1c0.9,0.4,1.9,0.8,2.9,1.1
		c1,0.4,2,0.7,3.1,1.1c0.5,0.2,0.9,0.3,1.4,0.5c0.6,1.1,1.3,2.4,2,3.7c2.6,4.6,6.3,10.2,11.3,16.2c7.5,8.9,18.1,18.5,32.3,25.9
		c14.3,7.4,32.3,12.4,54.2,12.4c12.5,0,26.3-1.6,41.5-5.3c27.4-6.7,50-18.2,68.2-31.7c13.6-10.1,24.9-21.3,34-32.3
		c13.7-16.6,22.8-33,28.5-45.3c5.7-12.3,8-20.5,8.1-20.9l6.4-23.2l-20,13.2c-0.2,0.1-4.7,2.9-14.4,5.6c-9.9,2.7-25.2,5.5-47.1,5.5
		c-9.2,0-19.6-0.5-31.2-1.7c-10.8-1.1-20.4-2.2-29.3-3.1c-8.9-0.9-17-1.5-25-1.5c-9,0-17.7,0.8-26.5,2.9c-6.6,1.6-13.2,3.9-20,7.1
		c-10.2,4.8-20.8,11.5-32.8,20.6c-10.7,8.1-22.5,18.2-36,30.7c-3.4-1.1-6.6-1.9-9.4-2.8c-0.8-0.3-1.6-0.6-2.4-0.8
		c57.1-57,121.5-105.9,191.6-145c41.2-23,84.4-42.6,129.2-58.4c0.2,0.1,0.3,0.3,0.5,0.4c1.3,1.1,2.7,2.5,4.5,4
		c1.9,1.5,4.1,3.2,6.5,5c1.2,0.9,2.5,1.8,3.8,2.8c0.5,0.3,1,0.7,1.5,1c1.8,11.3,4.6,21.1,8.5,29.5c3.4,7.4,7.6,13.6,12.4,18.9
		c3.7,3.9,7.7,7.2,12.1,9.9c6.5,4.1,13.7,6.8,21.1,8.5c7.5,1.7,15.2,2.4,23.2,2.4c15.6,0,32.1-2.6,48.8-5.8
		c16.7-3.2,33.7-7.2,50-10.2l17.8-3.3l-13.3-12.2c-8.5-7.8-16.6-16-24.7-24c-6.1-6-12.1-11.9-18.4-17.4c-9.4-8.2-19.4-15.7-30.7-21
		c-5.6-2.7-11.6-4.9-18-6.4c-6.3-1.5-13-2.3-20.1-2.3c-9.4,0-19.4,1.4-30.1,4.5c-9.1,2.6-18.8,6.3-29.1,11.3
		c-1.1-0.8-2.3-1.6-3.3-2.3c-0.3-0.2-0.6-0.4-0.9-0.7c52.6-16.9,107.2-28.8,163.5-35c-2.6,3.6-4.7,7.3-6.1,11.1
		c-1.3,3.6-2.1,7.3-1.9,11.2c0.1,1.9,0.4,3.9,1,5.8c0.6,1.9,1.5,3.8,2.6,5.5c1.3,2,3,3.7,4.8,5.1c1.8,1.4,3.9,2.4,5.9,3.2
		c3.3,1.2,6.8,1.7,10.4,1.8c5.3,0,10.8-1,16.4-2.9c4.6-1.5,9.1-3.7,13.6-6.4c2.4,7,5.6,13.3,9.5,18.5c2.3,3,4.8,5.7,7.5,8
		c2.7,2.3,5.7,4.1,9.1,5.3c2.1,0.8,4.3,1.3,6.6,1.4c2.3,0.1,4.7-0.1,7-0.8c2-0.6,3.8-1.4,5.5-2.5c2.5-1.6,4.6-3.7,6.3-6
		c1.7-2.3,3-4.9,3.9-7.6c1.9-5.1,2.7-10.8,2.7-16.9c0-5-0.7-10.2-1.9-15.5c3.8,0,7.6-0.4,11.1-1c7-1.2,13.3-3.4,18.6-6.6
		c2.7-1.6,5.1-3.5,7.2-5.8c2.1-2.3,3.8-4.9,4.9-8c0-0.1,0.1-0.2,0.1-0.2c59.8,3.8,118,14,173.9,29.9c-0.9,0.6-1.7,1.2-2.6,1.8
		c-2,1.5-4.2,3.1-6.4,4.8c-2.2,1.8-4.5,3.7-6.8,5.8c-4.6,4.1-9.3,8.9-13.9,14c-4.7,5.1-9.2,10.6-13.9,16c-0.2,0.2-0.4,0.4-0.6,0.7
		c-18.8-6.4-35.1-9.3-49.8-9.3c-8.1,0-15.6,0.8-22.8,2.4c-12.6,2.7-23.8,7.4-34.6,13c-8.1,4.2-16,9-24,13.8
		c-12,7.3-24.5,14.9-38.7,21.8c-14.2,6.9-30.3,13.1-49.6,17.4l-17.6,4l13.8,11.7c17.5,14.8,37.4,25.3,58,32.2
		c20.6,6.9,41.9,10.1,62.3,10.1c15.7,0,30.9-1.9,44.9-5.4c10.6-2.7,20.5-6.3,29.5-10.9c13.5-6.9,25.1-15.9,33.4-27
		c4.1-5.6,7.5-11.7,9.7-18.2c2.3-6.6,3.5-13.6,3.5-20.8c0-6.4-0.9-12.9-2.8-19.6c0.5-0.6,1.1-1.2,1.6-1.8
		c4.8-5.6,9.3-10.9,13.5-15.7c4.3-4.8,8.3-9.2,12.2-12.9c1.9-2,3.9-3.6,5.7-5.3c1.8-1.7,3.7-3.1,5.4-4.5c1.7-1.4,3.4-2.6,4.9-3.8
		c1.5-1.2,2.9-2.1,4.2-3c0.6-0.5,1.2-0.9,1.8-1.3c0.6-0.4,1.2-0.8,1.7-1.1c0.7-0.5,1.4-0.9,2-1.3c29.6,9.4,58.6,20.4,86.7,33
		c21.1,9.4,41.8,19.7,62,30.7c-4.9,0.4-9.4,1.1-13.8,2.2c-5.9,1.4-11.3,3.4-16.3,5.8c-8.7,4.2-16.1,9.7-22.7,15.6
		c-5,4.4-9.5,9.1-13.9,13.7c-6.6,6.9-12.9,13.7-19.8,19.7c-6.9,6-14.2,11.2-23,15l-13.4,5.9l11.3,9.3c15.2,12.6,31.5,21.4,48,27
		c16.5,5.7,33.2,8.1,49.5,8.1c28,0,54.6-7.3,76.7-18.6c11-5.6,20.9-12.2,29.3-19.5c5.6-4.8,10.5-10,14.7-15.3
		c83.6,63.3,156.1,141.8,213.9,231.7c1.8,2.9,3.7,5.7,5.5,8.6c-3.6-2-7.3-3.7-10.9-5.2c-12-4.8-24.1-6.8-35.7-6.8
		c-11.2,0-22,1.9-32,4.8c-10,2.9-19.2,6.9-27.5,11.1l-10.1,5.1l7.3,8.7c12.3,14.7,23.4,29.2,33.8,42.7c7.8,10.1,15.2,19.8,22.6,28.5
		c11.1,13.2,22.2,24.5,34.5,32.8c6.2,4.1,12.7,7.5,19.6,9.8c6.9,2.3,14.3,3.6,21.9,3.6c7.7,0,15.8-1.2,24.1-3.8
		c5.7-1.7,11.6-4.1,17.7-7c8.1,18.7,15.6,37.8,22.5,57.1c-4.9-3.4-10-6.1-15.1-7.9c-3.2-1.2-6.3-2-9.5-2.5
		c-4.7-0.7-9.3-0.7-13.8,0.4c-2.2,0.6-4.4,1.5-6.5,2.7c-2,1.3-3.9,2.9-5.5,4.9l0,0c-1.4,1.7-2.4,3.7-3.1,5.7c-0.7,2-1.2,4.1-1.3,6.2
		c-0.3,3.6,0.2,7.2,1.3,10.7c1.5,5.2,4.2,10.3,7.8,15.1c2.9,4,6.5,7.8,10.6,11.3c-4.4,3.2-8.2,6.8-11.4,10.6
		c-3.9,4.6-6.9,9.5-8.8,14.6c-1.3,3.6-2.1,7.3-1.9,11.2c0.1,1.9,0.4,3.9,1,5.8c0.6,1.9,1.5,3.8,2.6,5.5c1.3,2,3,3.7,4.8,5.1
		c1.8,1.4,3.9,2.4,5.9,3.2c3.3,1.2,6.8,1.7,10.4,1.8c5.3,0,10.8-1,16.4-2.9c4.6-1.5,9.1-3.7,13.6-6.4c2.4,7,5.6,13.3,9.5,18.5
		c2.3,3,4.8,5.7,7.5,8c2.7,2.3,5.7,4.1,9.1,5.3c2.1,0.8,4.3,1.3,6.6,1.4c1.8,0.1,3.7,0,5.5-0.4c12.8,62.5,19.6,127.3,19.6,193.8
		c0,4.4,0,8.8-0.1,13.2c-1.3-1.6-2.6-3.2-3.9-4.6c-3.5-3.8-7.3-6.9-11.3-9.5c-7.1-4.6-14.7-7.4-22.6-9.3c-5.9-1.4-12-2.4-18.2-3.1
		c-9.4-1.2-19.2-1.9-29.5-3.3c-10.3-1.3-21.1-3.2-32.4-6.5l-10.5-3l-0.9,10.9c-0.6,7.1-0.9,14-0.9,20.6c0,43.8,12.6,78.8,31,103.1
		c9.2,12.1,19.9,21.6,31.3,28.1c11.4,6.5,23.5,10,35.4,10c7.5,0,14.8-1.4,21.7-4.3c0.2-0.1,0.4-0.2,0.6-0.3
		c-8.7,58.9-22.8,115.9-41.6,170.5c-14.4,0.4-25.9,12.2-25.9,26.7c0,7.8,3.3,14.7,8.6,19.6c-7,17.3-14.5,34.2-22.5,50.9
		c-0.5,0.7-0.9,1.5-1.2,2.4c-16.8,35-35.7,68.7-56.5,100.9c-0.4-10.7-2.5-20.4-5.1-28.7c-1.5-4.7-3.1-8.9-4.6-12.6
		c-1.6-3.7-3.1-7-4.3-9.6c-1.1-2.4-2.4-5.6-3.9-9.2c-2.5-6.3-5.2-13.9-7.9-21.8c-4.1-11.8-8.1-24.3-11.1-33.7
		c-1.5-4.7-2.7-8.7-3.6-11.5c-0.4-1.4-0.8-2.5-1-3.2c-0.1-0.4-0.2-0.7-0.3-0.9s-0.1-0.3-0.1-0.3l-9.4-31l-7.9,31.4
		c0,0.2-3.8,14.8-13.4,35.9c-9.6,21.2-25.2,48.8-48.6,74.8c-6.1,6.8-10.6,13.7-13.5,20.7c-2.9,7-4.2,14-4.2,20.8
		c0,5.7,0.9,11.2,2.4,16.4c2.7,9.2,7.1,17.6,12.1,25.6c3.7,6,7.8,11.6,11.8,17.1c5.9,8.2,11.6,15.8,15.6,22.8c2,3.5,3.6,6.8,4.6,9.8
		c0.7,2.1,1.2,4.1,1.4,5.9c-20.4,22.5-42,43.9-64.5,64.2c-1,0.6-1.9,1.1-2.8,1.8c-3.5,2.4-6.6,5.5-9.5,9.1c-4.9,4.3-9.9,8.5-15,12.7
		c-3.4-2-6.9-3.7-10.4-5c-3.2-1.2-6.3-2-9.5-2.5c-4.7-0.7-9.3-0.7-13.8,0.4c-2.2,0.6-4.4,1.5-6.5,2.7c-2,1.3-3.9,2.9-5.5,4.9l0,0
		c-1.4,1.7-2.4,3.7-3.1,5.7c-0.7,2-1.2,4.1-1.3,6.2c-0.3,3.6,0.2,7.2,1.3,10.7c1.1,3.7,2.8,7.4,5,10.9
		c-75.8,55-160.3,97.7-250.8,125.2c8.2-5.8,16-11.5,23.3-17.3c30.5-24.1,54.1-49.2,75.8-80.2c21.8-31,41.7-67.9,65.5-116.1
		c13.2-26.8,25.5-49.5,37.1-68.4c8.7-14.1,17-26.1,25-36.1c12-15,23.4-25.3,34.2-31.8c5.4-3.3,10.8-5.6,16.1-7.1
		c5.3-1.5,10.7-2.2,16.2-2.2c7.3,0,14.9,1.3,23.1,3.8c4.7,1.5,9.8-1.2,11.3-5.9s-1.2-9.8-5.9-11.3c-9.6-3-19-4.6-28.4-4.6
		c-6.3,0-12.6,0.8-18.8,2.3c-10.9,2.7-21.3,7.9-31.5,15.5c-15.3,11.4-30,28.1-45.4,50.8c-15.4,22.7-31.4,51.4-49,87.1
		c-15.7,31.9-29.7,58.6-43.4,81.6c-10.3,17.3-20.5,32.5-31.2,46.5c-16.1,20.9-33.4,38.8-54.5,56.2c-20.8,17.2-45.3,33.9-75.7,52.3
		c-0.4,0.1-0.8,0.2-1.1,0.3c0,0,0.1-0.1,0.1-0.1c12.3-9.8,21.7-21.5,28.3-34.5c6.6-12.9,10.4-27,11.9-41.7
		c0.6-5.8,0.9-11.5,0.9-17.2c0-22.8-4.2-44.6-8.3-60.8c-4.1-16.2-8.2-26.8-8.3-27.1l-6.3-16.2l-9.6,14.4c-0.2,0.3-2.8,3.8-11.4,13.3
		c-8.9,9.8-24.1,25.7-49.7,50.9c-10.6,10.4-17.5,21-21.6,31.5c-2.1,5.3-3.4,10.5-4.3,15.5c-0.8,5.1-1.2,10-1.2,14.8
		c0,9,1.1,17.5,2.2,25.2c1.1,7.7,2,14.8,2,21c0,2.6-0.2,5.1-0.5,7.4c-0.6,3.5-1.6,6.6-3.2,9.6c-1.6,2.9-3.8,5.7-7,8.6
		c-8.5,1-17.1,1.9-25.7,2.7c-3.1,0.3-6.2,0.4-9.3,0.5c-0.3-1.2-0.6-2.5-0.8-3.7c-0.4-1.8-0.9-3.5-1.4-5.3c-0.5-1.7-1-3.5-1.6-5.2
		c-1.1-3.4-2.4-6.8-3.7-10.2l-2.1-5l-2.2-4.9c-0.9-1.8-1.7-3.5-2.6-5.3c5.8-19.2,9.2-37.5,9.2-55.1c0-13.1-1.9-25.8-6.2-37.9
		c-3.2-9-7.8-17.7-13.7-25.8c-8.9-12.2-21-23.3-36.4-33.2c-15.4-9.9-34.1-18.8-56.7-26.6l-11.3-3.9l-0.7,11.9
		c-0.6,10.2-0.9,20.1-0.9,29.6c0,22.2,1.6,42.5,5.3,60.7c2.8,13.7,6.7,26.1,12,37.3c4,8.3,8.8,15.9,14.5,22.6
		c8.5,10,19.1,18,31.5,23.4c10.7,4.6,22.7,7.4,36,8.3c0.4,0.9,0.8,1.8,1.2,2.6l2,4.5l1.9,4.5c1.2,3,2.5,6.1,3.7,9.1l0.9,2.3l0.8,2.3
		c0.2,0.6,0.4,1.2,0.7,1.8c-13.1-1.6-25.9-4.9-38.2-10c-11.6-4.8-23.6-9.9-35.6-13.9c-6-2-12-3.7-18-4.9c-3.3-0.7-6.7-1.2-10-1.6
		c0.8-3,1.3-5.9,1.7-8.8c0.5-3.9,0.6-7.7,0.3-11.3c-0.2-2.7-0.6-5.4-1.3-7.9c-1-3.8-2.6-7.4-5-10.5c-1.2-1.6-2.6-3-4.2-4.2
		c-1.6-1.2-3.5-2.3-5.4-3c-2.3-0.9-4.8-1.3-7.2-1.2c-2.1,0-4.2,0.3-6.1,0.9c-3.4,1-6.6,2.6-9.5,4.6c-4.4,3.1-8.3,7.2-11.7,12
		c-2.8,4-5.3,8.4-7.3,13.3c-5.2-3.7-10.6-6.5-15.9-8.5c-3.2-1.2-6.3-2-9.5-2.5c-4.7-0.7-9.3-0.7-13.8,0.4c-2.2,0.6-4.4,1.5-6.5,2.7
		c-2,1.3-3.9,2.9-5.5,4.9l0,0c-1.4,1.7-2.4,3.7-3.1,5.7c-0.7,2-1.2,4.1-1.3,6.2c-0.3,3.6,0.2,7.2,1.3,10.7c1.5,5.1,4.1,10,7.5,14.7
		c-3.2-0.6-6.5-1.3-10-2c-5.4-1.2-11.2-2.5-17.3-3.9c-5.9-1.4-12.1-3-18.6-4.6c3.8-5,6.9-10.1,9.2-15.2c4.2-9,6.2-18.2,6.1-27.1
		c0-9-1.9-17.6-5.2-25.9c-2.8-7.3-6.7-14.2-11.2-21c-7.9-11.8-17.9-23.1-28.5-34c-8-8.2-16.4-16.1-24.6-23.9
		c-12.3-11.7-24.3-23-33.9-33.9c-4.8-5.4-9-10.7-12.4-15.8c-3.4-5.1-5.9-10-7.5-14.5l-6.8-19.7l-9.7,18.5
		c-11.4,21.7-17.9,44.9-17.9,68.6c0,14,2.3,28.2,7,42.2c7.2,21,19.9,41.6,38.8,60.9c5.4,5.5,11.3,11,17.7,16.3
		c-13.1-4.8-26.6-10.3-40.6-16.3c-4.5-2-9-3.9-13.6-5.9c-4.5-2.1-9.1-4.2-13.8-6.4c-1.2-0.5-2.3-1.1-3.5-1.6
		c-1.2-0.6-2.3-1.1-3.5-1.7c-2.3-1.1-4.7-2.3-7-3.5c-2.3-1.2-4.7-2.3-7.1-3.5c-2.3-1.2-4.7-2.5-7.1-3.7c-17-8.8-34.3-18.5-51.7-29.2
		c0-1,0.1-2.2,0.1-3.5c0-0.7,0-1.5,0-2.3c0-0.8,0-1.6,0-2.6c-0.1-1.8-0.2-3.8-0.3-6c-0.1-2.1-0.3-4.4-0.5-6.8
		c-0.3-2.3-0.6-4.8-0.9-7.3c-0.3-2.3-0.6-4.6-1-7c9.7-9.2,17.1-19,22.1-29.1c5.9-11.9,8.6-24.3,8.6-36.6c0-8.8-1.4-17.6-3.8-26.2
		c-4.3-15.1-12-29.7-21.9-43.6c-14.9-20.9-34.7-40.4-56.5-57.5c-21.7-17.1-45.4-31.8-67.9-42.9l-12.5-6.2l-0.5,14
		c-0.3,9.9-0.5,19.4-0.5,28.6c0,29.3,1.8,55.2,5.9,78.1c3.1,17.1,7.4,32.6,13.4,46.4c4.5,10.4,9.9,19.9,16.2,28.5
		c9.5,12.9,21.3,23.7,35.3,32.4c12.3,7.7,26.3,13.8,42.1,18.6c0.4,1.9,0.6,3.8,0.9,5.5c0.4,2.3,0.7,4.6,1.1,6.7
		c0.2,2.1,0.5,4.1,0.7,5.9c0,0.1,0,0.2,0,0.2c-15-9.8-30.1-20.3-45.2-31.4c-39.3-29.2-78.4-63.3-115.1-102.1
		c-36.8-38.8-71.2-82.2-101.9-129.3c-14-21.5-27.2-43.7-39.5-66.6c4.3-1.9,8.4-4.3,12.2-7.1c5.3-3.9,9.9-8.7,13.8-14.1
		c5.9-8.1,10.2-17.6,13.1-28.1c2.9-10.5,4.3-22.1,4.3-34.5c0-20.2-3.7-42.5-11.3-66.2c-7.5-23.6-18.9-48.5-34.3-73.5l-7.5-12.3
		l-7.7,12.2c-4.4,6.9-9,13.4-13.6,20c-3.4,5-6.8,10-9.9,15.5c-4.7,8.1-9,17-11.9,27.4c-2.6,9-4.2,19.1-4.6,30.6
		c-13.5-38.1-24.5-77-32.9-115.9c-11.9-54.9-18.6-109.9-20.8-163.3c0-1-0.1-1.9-0.1-2.9c0.5-1.2,1.1-2.5,1.8-4.1
		c0.4-0.9,0.9-2,1.4-3.1c0.5-1.1,1-2.2,1.6-3.4c1.1-2.3,2.3-4.9,3.7-7.7c0.3-0.7,0.7-1.4,1-2.1c0.4-0.7,0.8-1.5,1.1-2.2
		c0.8-1.5,1.6-3.1,2.4-4.7c0.8-1.6,1.7-3.3,2.6-5c0.9-1.7,1.9-3.4,2.9-5.2c1-1.8,2-3.6,3-5.5c1.1-1.9,2.2-3.8,3.3-5.7
		c1.1-1.9,2.3-3.9,3.5-5.9c1.2-2,2.5-4,3.7-6.1c2.5-4.1,5.2-8.4,8-12.7c2.8-4.3,5.7-8.8,8.8-13.3c3.1-4.5,6.2-9.2,9.4-13.9
		c6.4-9.5,13.1-19.3,19.7-29.6c6.6-10.3,13-21.1,18.9-32.4c3-5.6,5.6-11.5,8.1-17.4c1.2-3,2.4-5.9,3.5-8.9c1-3,2-6.1,3-9.1
		c1.8-6.1,3.5-12.2,4.6-18.4c0.3-1.5,0.6-3.1,0.9-4.6c0.2-1.5,0.4-3.1,0.6-4.6c0.2-1.5,0.4-3,0.6-4.6c0.1-0.8,0.2-1.5,0.3-2.3
		l0.2-2.3c1.3-12.1,0.8-23.7,0.1-34.7c-0.3-2.7-0.6-5.4-0.9-8c-0.3-2.6-0.5-5.2-1-7.8c-0.5-2.5-0.9-5-1.3-7.4
		c-0.2-1.2-0.4-2.4-0.7-3.6c-0.2-1.2-0.5-2.3-0.8-3.5c-0.5-2.3-1.1-4.5-1.6-6.7c-0.3-1.1-0.5-2.2-0.8-3.3c-0.1-0.5-0.3-1.1-0.4-1.6
		c-0.1-0.5-0.3-1-0.4-1.6c-1.2-4.1-2.4-8-3.5-11.6c-0.5-1.8-1.1-3.6-1.7-5.2c-0.6-1.7-1.1-3.3-1.7-4.8c-1.1-3.1-2-6-3-8.5
		c-2-5.1-3.6-9-4.7-11.7c-1.1-2.7-1.7-4.1-1.7-4.1c-1-2.5-3.8-3.9-6.5-3.1c-2.8,0.9-4.4,3.8-3.6,6.7l0,0.1c0,0,0.4,1.4,1.3,4.2
		c0.8,2.7,2,6.7,3.6,11.7c0.7,2.5,1.4,5.4,2.3,8.4c0.4,1.5,0.8,3.1,1.3,4.8c0.4,1.7,0.9,3.4,1.3,5.2c0.8,3.6,1.6,7.4,2.5,11.4
		c0.1,0.5,0.2,1,0.3,1.5c0.1,0.5,0.2,1,0.3,1.5c0.2,1,0.4,2.1,0.5,3.1c0.4,2.1,0.7,4.3,1.1,6.5c0.2,1.1,0.4,2.2,0.6,3.3
		c0.1,1.1,0.3,2.3,0.4,3.4c0.3,2.3,0.6,4.6,0.9,7c0.4,2.4,0.4,4.8,0.6,7.3c0.2,2.5,0.3,5,0.5,7.5c0,2.5,0,5.1,0.1,7.7
		c0,1.3,0,2.6,0,3.9c0,1.3-0.1,2.6-0.2,3.9c-0.1,2.6-0.2,5.3-0.4,8c-0.3,2.7-0.6,5.4-0.9,8.1c-1.4,10.8-3.9,21.9-7.5,32.7
		c-3.6,10.9-8.6,21.5-14.1,32c-11.1,20.9-25,40.7-37.9,59.7c-6.5,9.5-12.6,18.9-18.2,27.9c-2.8,4.5-5.6,8.9-8.1,13.3
		c-1.3,2.2-2.5,4.3-3.8,6.4c-1.2,2.1-2.4,4.2-3.5,6.2c-1.1,2-2.2,4-3.3,6c-1,2-2,3.9-3,5.8c-0.5,1-1.1,2.1-1.6,3.1
		c0.2-37,2.6-73,6.7-107.5c1.5-12.2,3.1-24.1,4.9-35.9c0.9-5.9,1.9-11.7,2.9-17.5c1.1-5.8,2.1-11.5,3.2-17.1
		c2.2-11.3,4.6-22.3,7-33.4c0.5-2.9,1-5.8,1.6-8.6c0.3-1.4,0.5-2.9,0.8-4.3c0.2-1.4,0.4-2.8,0.6-4.2c0.4-2.8,0.8-5.6,1.2-8.4
		c0.3-2.8,0.6-5.6,0.9-8.4c4.6-44.4-0.2-86.2-11.8-121c-0.7-2.2-1.5-4.3-2.3-6.5c-0.8-2.1-1.6-4.2-2.3-6.3c-0.9-2.1-1.7-4.1-2.6-6.1
		c-0.8-2-1.7-4-2.6-6c-0.9-1.9-1.9-3.9-2.8-5.8l-0.7-1.4l-0.7-1.4c-0.5-0.9-1-1.8-1.5-2.8c-1-1.8-2-3.7-3-5.4
		c-1.1-1.7-2.1-3.5-3.2-5.2c-8.5-13.6-17.9-25.2-27.6-34.5c-2.5-2.3-4.8-4.6-7.3-6.6c-2.5-2-4.9-4-7.3-5.8c-2.5-1.7-4.8-3.4-7.1-5.1
		c-2.4-1.5-4.7-2.9-6.9-4.3c-1.1-0.7-2.2-1.3-3.4-1.9c-1.1-0.6-2.2-1.2-3.3-1.8c-1.1-0.6-2.1-1.1-3.1-1.7c-1.1-0.5-2.1-1-3.1-1.4
		c-2-0.9-4-1.8-5.8-2.6c-0.1,0-0.2-0.1-0.3-0.1c0-0.5,0.1-1.1,0.1-1.7c0-14.8-12-26.7-26.7-26.7c-14.8,0-26.7,12-26.7,26.7
		s12,26.7,26.7,26.7c7.5,0,14.2-3.1,19-8c0.2,0.1,0.4,0.1,0.6,0.2c1.6,0.7,3.3,1.5,5,2.4c0.9,0.4,1.8,0.8,2.7,1.3
		c0.9,0.5,1.8,1,2.7,1.5c0.9,0.5,1.9,1,2.8,1.6c1,0.5,2,1.1,2.9,1.7c7.9,4.7,16.3,11.1,24.8,19.5c8.5,8.3,16.9,18.7,24.5,31
		c0.9,1.5,1.9,3.1,2.9,4.7c0.9,1.6,1.8,3.3,2.7,4.9c0.4,0.8,0.9,1.7,1.4,2.5l0.7,1.3l0.6,1.3c0.8,1.7,1.7,3.5,2.5,5.3
		c0.9,1.8,1.6,3.6,2.4,5.4c0.8,1.8,1.6,3.7,2.4,5.6c0.7,1.9,1.4,3.8,2.1,5.8c0.7,1.9,1.5,3.9,2.1,5.9c10.6,32,15.3,71,11,112.8
		c-0.3,2.6-0.5,5.2-0.8,7.9c-0.4,2.6-0.7,5.3-1.1,7.9c-0.2,1.3-0.4,2.7-0.6,4c-0.2,1.3-0.5,2.6-0.7,3.9c-0.5,2.6-0.9,5.3-1.4,8
		c-2.3,10.9-4.9,22.3-7.1,33.8c-1.2,5.8-2.2,11.6-3.2,17.5c-1,5.9-2,11.8-2.9,17.8c-1.9,12-3.5,24.2-5,36.6
		c-5.7,48-8,99.1-6.1,151.7c-0.5-0.8-1.1-1.6-1.7-2.4c-1.7-2.4-3.5-5-5.3-7.6c-1.8-2.7-3.8-5.5-5.7-8.4c-2-2.9-4.1-5.8-6.2-8.9
		c-4.2-6.1-8.6-12.6-13.1-19.3c-0.9-1.3-1.7-2.6-2.6-3.9c3.8-7.8,6.7-15.6,8.8-23.5c2.8-10.5,4.1-21,4.1-31.4
		c0-21.2-5.3-41.7-13.5-61.2c-6.2-14.6-14-28.8-22.6-42.4c-12.9-20.4-27.4-39.7-40.8-57.5c-13.4-17.9-25.6-34.4-33.7-48.8l-8.8-15.6
		l-7.3,16.3c-11,24.6-19.4,48.7-25.1,71.9c-5.7,23.2-8.6,45.4-8.6,66.2c0,19.5,2.6,37.7,8,54.2c4.1,12.4,9.7,23.8,17.1,34
		c11,15.3,25.9,27.7,44.3,36.2c17,7.9,37,12.7,59.9,13.9c0.8,1.3,1.6,2.5,2.4,3.8c2.3,3.5,4.5,6.9,6.7,10.3c2.3,3.3,4.5,6.5,6.7,9.6
		c4.4,6.3,8.6,12.1,12.7,17.3c2,2.6,4,5.2,5.8,7.6c1.9,2.4,3.7,4.6,5.4,6.7c3.4,4.2,6.4,7.8,8.9,10.8c2.5,3,4.5,5.2,5.9,6.8
		c0.1,0.1,0.3,0.3,0.4,0.4c3.3,45,9.7,90.9,19.6,136.7c1.3,6.1,2.7,12.2,4.1,18.3c-14.6-15-30.7-25.1-46.9-31.8
		c-13.4-5.5-27-8.8-40.1-10.9c-9.8-1.5-19.3-2.4-28.3-3c-13.5-0.9-25.9-1.3-36.3-2.5c-5.2-0.6-9.8-1.4-13.8-2.4
		c-4-1-7.2-2.4-9.7-3.9l-21.6-13.2l8.4,23.9c9.3,26.3,19.4,48.9,30.3,68.2c8.2,14.4,17,27,26.4,37.7c14.1,16.1,29.6,28.1,46.5,35.9
		c16.9,7.9,35.2,11.6,54.6,11.6c18.9,0,38.8-3.5,59.8-10c5.7,16,11.8,31.9,18.3,47.6c4.2,10.2,8.7,20.4,13.3,30.5c0,0,0,0.1,0.1,0.1
		c6.9,15,14.2,29.9,21.8,44.5c0.2,0.5,0.4,0.9,0.7,1.3c4.9,9.4,10.1,18.7,15.3,28c-0.5,0-1,0-1.5,0c-12.4,0-24.9-1.3-37.1-3.3
		c-9.1-1.5-18.1-3.4-26.8-5.4c-0.1-1.4-0.2-2.7-0.5-4c-0.5-2.3-1.4-4.5-2.5-6.5c-1.7-3-3.8-5.7-6.4-8.2c-2.5-2.5-5.5-4.7-8.7-6.6
		c-4.9-3-10.4-5.4-16.5-7.2c2.1-3.9,3.9-7.9,5.2-11.8c1.2-3.7,2.1-7.4,2.5-11c0.3-2.7,0.4-5.4,0.3-8c-0.3-3.9-1.1-7.7-2.8-11.3
		c-0.9-1.8-2-3.5-3.3-5c-1.3-1.5-2.9-2.9-4.7-4c-0.3-0.2-0.5-0.3-0.7-0.4c-1.9-1.1-4-1.9-6.2-2.3c-2.1-0.4-4.1-0.5-6.2-0.4
		c-3.6,0.3-7,1.2-10.2,2.7c-4.9,2.2-9.5,5.4-13.8,9.4c-3.5,3.3-6.8,7.2-9.8,11.6c-4.3-4.6-9.1-8.5-13.9-11.5
		c-2.9-1.8-5.8-3.2-8.8-4.3c-4.5-1.6-9-2.6-13.6-2.3c-2.3,0.1-4.6,0.6-6.9,1.4c-2.3,0.8-4.4,2.1-6.3,3.7h0c-1.7,1.4-3.1,3.1-4.2,4.9
		c-1.1,1.8-1.9,3.8-2.5,5.8c-1,3.5-1.2,7.1-0.9,10.7c0.5,5.4,2.1,10.9,4.6,16.3c2.1,4.5,4.8,8.9,8.1,13.2c-4.9,2.3-9.4,5.1-13.3,8.1
		c-4.7,3.7-8.7,7.9-11.5,12.6c-2,3.3-3.5,6.8-4.1,10.6c-0.3,1.9-0.4,3.9-0.2,5.9c0.2,2,0.7,4,1.5,5.9c0.9,2.2,2.2,4.2,3.7,5.9
		c1.5,1.7,3.3,3.1,5.2,4.3c3,1.8,6.3,3,9.8,3.8c5.2,1.1,10.8,1.2,16.7,0.4c4.8-0.6,9.7-1.8,14.6-3.6c0.9,7.3,2.9,14.1,5.7,20
		c1.6,3.4,3.5,6.5,5.8,9.3c2.2,2.8,4.8,5.2,7.8,7c1.9,1.2,4,2.1,6.2,2.7c2.2,0.6,4.6,0.8,7,0.6c2.1-0.2,4.1-0.6,5.9-1.4
		c2.8-1.1,5.2-2.7,7.3-4.7c2.1-1.9,3.9-4.2,5.4-6.6c2.8-4.7,4.8-10.1,5.9-16c1-4.9,1.4-10.1,1.2-15.6c3.8,0.7,7.5,1.1,11.1,1.2
		c7.1,0.2,13.7-0.7,19.5-2.8c2.9-1.1,5.7-2.5,8.2-4.3c0.7-0.5,1.4-1.1,2.1-1.7c6.2,1.5,12.6,2.9,19.2,4.2c16.5,3.3,34.1,5.7,52,5.7
		c3.9,0,7.8-0.1,11.8-0.4c6.3,10.6,12.9,21.1,19.6,31.4c31.3,48,66.5,92.3,104.1,131.9c2.3,2.5,4.7,4.9,7,7.3
		c-4.7,0.7-9.2,1.8-13.4,3.3c-6.4,2.3-12.2,5.4-17.5,9.1c-9.3,6.5-17.2,14.6-24.4,23.1c-5.4,6.4-10.4,13.1-15.3,19.6
		c-7.3,9.7-14.3,19-21.6,26.3c-3.6,3.7-7.3,6.9-11.1,9.4c-3.8,2.6-7.6,4.5-11.7,5.9l-14.3,4.6l10.9,10.4
		c48.6,46.7,103.6,66.4,151.2,66.4c27.8,0,53-6.7,73.1-18.8c10-6.1,18.7-13.5,25.7-22.2c4.4-5.5,8.1-11.5,10.9-17.8
		c29.7,20,59.2,37.4,87.9,52.1c2.4,1.3,4.8,2.5,7.2,3.8c2.4,1.2,4.8,2.4,7.2,3.6c2.4,1.2,4.8,2.3,7.2,3.5c1.2,0.6,2.4,1.2,3.6,1.7
		c1.2,0.6,2.4,1.1,3.6,1.7c4.7,2.2,9.4,4.4,14.1,6.5c4.7,2,9.3,4,13.9,6c18.3,7.8,35.9,14.7,52.7,20.5c8.3,3,16.5,5.6,24.4,8.2
		c3.9,1.3,7.9,2.4,11.7,3.6c3.8,1.1,7.6,2.3,11.3,3.4c1.9,0.5,3.8,1,5.6,1.5c-0.6,0.4-1.3,0.9-2,1.3c-2.2,1.5-4.6,3.1-7.1,4.7
		c-2.5,1.7-5.3,3.3-8.2,5.2c-1.5,0.9-3,1.8-4.5,2.7c-0.8,0.5-1.6,0.9-2.4,1.4c-0.8,0.4-1.6,0.9-2.4,1.4c-6.5,3.7-13.8,7.4-21.6,11.1
		c-7.8,3.7-16.2,7.2-25,10.5c-8.8,3.2-18.1,6.2-27.6,8.7c-4.8,1.1-9.6,2.4-14.5,3.3l-3.7,0.7c-1.2,0.3-2.5,0.5-3.7,0.7l-7.4,1.2
		c-9.9,1.4-19.9,2.5-29.8,2.6c-4.9,0.3-9.8,0.1-14.7,0.1c-1.2,0-2.4-0.1-3.6-0.1c-1.2-0.1-2.4-0.1-3.6-0.2c-1.2-0.1-2.4-0.1-3.6-0.2
		c-1.2-0.1-2.4-0.1-3.5-0.3c-9.4-0.9-18.4-2.1-26.9-3.9c-2.1-0.4-4.2-0.9-6.3-1.3c-1-0.2-2-0.4-3-0.7c-1-0.3-2-0.5-3-0.8
		c-3.9-1-7.8-1.9-11.4-3.2c-1.8-0.6-3.6-1.1-5.3-1.7c-1.7-0.6-3.4-1-5-1.7c-3.2-1.2-6.3-2.3-9.2-3.4c-1.5-0.5-2.8-1.1-4.1-1.7
		c-0.1,0-0.1-0.1-0.2-0.1c0.8-2.5,1.2-5.1,1.2-7.9c0-14.8-12-26.7-26.7-26.7s-26.7,12-26.7,26.7s12,26.7,26.7,26.7
		c9.2,0,17.3-4.6,22.1-11.7c0.2,0.1,0.3,0.2,0.5,0.2c1.3,0.6,2.7,1.3,4.2,1.9c2.9,1.2,6.1,2.5,9.4,3.8c1.6,0.7,3.4,1.3,5.1,1.9
		c1.8,0.6,3.6,1.3,5.4,1.9c3.7,1.4,7.6,2.4,11.7,3.7c1,0.3,2,0.6,3.1,0.9c1,0.3,2.1,0.6,3.1,0.9c2.1,0.5,4.3,1,6.5,1.6
		c8.7,2.1,18.1,3.7,27.8,5c1.2,0.2,2.4,0.3,3.7,0.4c1.2,0.1,2.5,0.2,3.7,0.3c1.2,0.1,2.5,0.2,3.7,0.3c1.3,0.1,2.5,0.2,3.8,0.3
		c5.1,0.2,10.2,0.6,15.3,0.5c10.3,0.1,20.8-0.6,31.3-1.7c2.6-0.3,5.2-0.7,7.8-1c1.3-0.1,2.6-0.4,3.9-0.6l3.9-0.7
		c5.2-0.8,10.2-2,15.3-3c10.1-2.4,19.9-5.1,29.2-8.2c9.3-3.2,18.2-6.5,26.5-10.1c8.3-3.6,16-7.2,23-10.9c0.9-0.5,1.7-0.9,2.6-1.3
		c0.8-0.5,1.7-0.9,2.5-1.4c1.7-0.9,3.3-1.8,4.8-2.6c3.1-1.8,6.1-3.4,8.8-5.1c2.7-1.6,5.3-3.2,7.6-4.7c2.4-1.5,4.5-2.9,6.4-4.1
		c1.9-1.2,3.6-2.4,5.1-3.5c0.7-0.5,1.4-1,2.1-1.4c0.4-0.3,0.8-0.6,1.2-0.8c4.4,1.1,8.8,2.2,12.9,3.2c6.2,1.4,12.1,2.7,17.6,3.9
		c5.6,1.1,10.8,2.1,15.6,3.1c0.2,0,0.4,0.1,0.5,0.1c-1.1,1.1-2.1,2.2-3.1,3.3c-3.9,4.6-6.9,9.5-8.8,14.6c-1.3,3.6-2.1,7.3-1.9,11.2
		c0.1,1.9,0.4,3.9,1,5.8c0.6,1.9,1.5,3.8,2.6,5.5c1.3,2,3,3.7,4.8,5.1c1.8,1.4,3.9,2.4,5.9,3.2c3.3,1.2,6.8,1.7,10.4,1.8
		c5.3,0,10.8-1,16.4-2.9c4.6-1.5,9.1-3.7,13.6-6.4c2.4,7,5.6,13.3,9.5,18.5c2.3,3,4.8,5.7,7.5,8c2.7,2.3,5.7,4.1,9.1,5.3
		c2.1,0.8,4.3,1.3,6.6,1.4c2.3,0.1,4.7-0.1,7-0.8c2-0.6,3.8-1.4,5.5-2.5c2.5-1.6,4.6-3.7,6.3-6c1.7-2.3,3-4.9,3.9-7.6
		c1.9-5.1,2.7-10.8,2.7-16.9c0-5-0.7-10.2-1.9-15.5c3.8,0,7.6-0.4,11.1-1c7-1.2,13.3-3.4,18.6-6.6c2.7-1.6,5.1-3.5,7.2-5.8
		c2.1-2.3,3.8-4.9,4.9-8c0.7-2,1.2-4.2,1.2-6.4c0.1-1.5-0.1-3-0.3-4.5c5.7,2.3,11.5,4.7,17.2,7.1c8.5,3.5,17.3,6.3,26.3,8.3
		c-0.2,0.2-0.5,0.4-0.7,0.6c-1.4,1.3-3,2.5-4.3,3.8l-2,2c-0.6,0.7-1.3,1.4-1.9,2.2c-1.3,1.4-2.4,3-3.6,4.5l-0.9,1.2
		c-0.3,0.4-0.5,0.8-0.8,1.2l-1.5,2.4c-0.5,0.8-1,1.7-1.4,2.5l-1.3,2.5c-0.5,0.8-0.8,1.7-1.2,2.6l-1.1,2.6c-0.2,0.4-0.4,0.9-0.5,1.3
		l-0.4,1.3l-0.9,2.7c-0.6,1.8-1,3.6-1.4,5.4c-0.2,0.9-0.4,1.8-0.6,2.7l-0.4,2.7c-0.3,1.8-0.6,3.6-0.7,5.5l-0.5,5.4
		c-0.1,1.8-0.1,3.6-0.1,5.4c0,0.9,0,1.8,0,2.7l0.1,2.7l0.3,5.3l0.6,5.3c0.2,1.8,0.4,3.5,0.7,5.2l0.9,5.2c0.2,0.9,0.3,1.7,0.5,2.6
		l0.6,2.5c0.8,3.4,1.5,6.8,2.5,10.1c1,3.3,1.8,6.7,2.9,9.9l1.6,4.9c0.5,1.6,1.1,3.3,1.7,4.9l3.6,9.6l4.9,12.9l9.8-9.7l3.5-3.5
		l1.8-1.8l1.7-1.8l3.4-3.6l3.3-3.7c1.1-1.2,2.2-2.5,3.3-3.8c1.1-1.3,2.2-2.5,3.2-3.9l3.1-4l3-4.1c1-1.3,1.9-2.7,2.9-4.1
		c0.9-1.4,1.9-2.8,2.8-4.2c0.9-1.4,1.8-2.8,2.7-4.3l2.6-4.4c1.6-3,3.2-6,4.7-9.1c0.8-1.5,1.4-3.1,2.1-4.7l1-2.4l0.9-2.4l0.9-2.4
		l0.9-2.5l0.8-2.5c0.3-0.8,0.5-1.7,0.8-2.5l0.7-2.5c0.2-0.8,0.4-1.7,0.6-2.5l0.6-2.6l0.5-2.6l0.5-2.6l0.4-2.6
		c0.3-1.8,0.4-3.5,0.6-5.3l0.1-1.3l0-1.4l0.1-2.7c0-1.8-0.1-3.7-0.2-5.5l-0.3-2.8l-0.1-1.4l-0.2-1.4l-0.5-2.8l-0.7-2.8l-0.3-1.4
		c-0.1-0.5-0.3-0.9-0.4-1.4l-0.9-2.7c-0.3-0.9-0.7-1.8-1.1-2.7l-0.6-1.3l-0.7-1.3c-0.4-0.7-0.7-1.5-1.1-2.2l1.1-0.2
		c9.8-0.9,19.6-1.9,29.3-3.1c2,11.7,5.2,22.4,9.3,32c7.8,18,19.2,32.3,33.2,42.1c14,9.7,30.6,14.8,48.1,14.8c10.4,0,21-1.7,31.8-5.2
		l13.3-4.3l-9.5-10.3c-4-4.4-7-8.8-9.4-13.2c-4.1-7.7-6.3-15.5-7.6-23.5c-1-5.9-1.6-11.9-2.3-17.9c-0.6-4.5-1.2-8.9-2.2-13.3
		c-0.8-3.3-1.8-6.6-3.3-9.8c-1.1-2.4-2.5-4.7-4.2-6.9c-0.5-0.7-1.1-1.3-1.6-2c27-6.6,53.5-14.4,79.5-23.6
		c5.7,11.2,12.1,21,19.2,29.4c13,15.4,28.1,26.5,44.1,33.5c16,7.1,32.8,10.2,49.2,10.2c21.4,0,42.2-5.3,60.3-14.2
		c9-4.5,17.4-9.9,24.7-16c7.4-6.2,13.8-13.1,18.9-20.7l12.1-18.1l-21.3,4.2c-1.7,0.3-3.3,0.5-4.7,0.5c-1.6,0-3-0.2-4.3-0.5
		c-2.5-0.6-4.8-1.7-7.1-3.4c-2.1-1.5-4.2-3.5-6.4-5.8c-3.8-4.2-7.7-9.6-11.9-15.4c-3.2-4.4-6.6-9-10.4-13.6c-2.9-3.4-6-6.8-9.5-9.9
		c-5.2-4.7-11.3-8.9-18.5-11.9c-3.2-1.3-6.6-2.4-10.1-3.2c34.6-18.7,67.8-39.7,99.6-62.8c0.6,0.5,1.2,1.1,1.8,1.6
		c-4.4,3.2-8.2,6.8-11.4,10.6c-3.9,4.6-6.9,9.5-8.8,14.6c-1.3,3.6-2.1,7.3-1.9,11.2c0.1,1.9,0.4,3.9,1,5.8c0.6,1.9,1.5,3.8,2.6,5.5
		c1.3,2,3,3.7,4.8,5.1c1.8,1.4,3.9,2.4,5.9,3.2c3.3,1.2,6.8,1.7,10.4,1.8c5.3,0,10.8-1,16.4-2.9c4.6-1.5,9.1-3.7,13.6-6.4
		c2.4,7,5.6,13.3,9.5,18.5c2.3,3,4.8,5.7,7.5,8c2.7,2.3,5.7,4.1,9.1,5.3c2.1,0.8,4.3,1.3,6.6,1.4c2.3,0.1,4.7-0.1,7-0.8l0,0
		c2-0.6,3.8-1.4,5.5-2.5c2.5-1.6,4.6-3.7,6.3-6c1.7-2.3,3-4.9,3.9-7.6c1.9-5.1,2.7-10.8,2.7-16.9c0-5-0.7-10.2-1.9-15.5
		c3.8,0,7.6-0.4,11.1-1c7-1.2,13.3-3.4,18.6-6.6c2.7-1.6,5.1-3.5,7.2-5.8c2.1-2.3,3.8-4.9,4.9-8c0.7-2,1.2-4.2,1.2-6.4
		c0.1-3.3-0.6-6.6-1.9-9.5c-1-2.2-2.3-4.1-3.7-5.9c-2.2-2.6-4.9-4.9-7.9-6.8c-3-1.9-6.3-3.5-9.8-4.8c-5.4-2-11.3-3.2-17.6-3.8
		c1.3-4.3,2.2-8.5,2.7-12.6c0.5-3.9,0.6-7.7,0.3-11.3c-0.2-2.7-0.6-5.4-1.3-7.9c-1-3.8-2.6-7.4-5-10.5c-1.1-1.5-2.4-2.8-3.9-4
		c4.9-4.6,9.7-9.2,14.5-13.8c1.6,0.3,3.6,0.8,6,1.3c3.1,0.6,6.8,1.3,11.1,2c4.3,0.7,9.2,1.5,14.5,2.3c5.3,0.8,11.1,1.6,17.2,2.3
		c3.1,0.3,6.2,0.7,9.4,1.1c3.2,0.3,6.5,0.6,9.9,0.9c2.3,0.2,4.6,0.4,7,0.6c8.8,17.8,21,32.7,35.5,43.7c8.4,6.4,17.6,11.4,27.2,14.9
		c9.7,3.4,19.9,5.3,30.3,5.3c13.6,0,27.5-3.2,40.9-9.8c13.5-6.6,26.4-16.7,38.4-30.5c29-33.3,52.3-66,68.4-90.5
		c16.1-24.5,24.9-40.8,25-40.9l14.3-26.3l-26.5,14.1l0,0c-0.1,0.1-8.4,4.4-22.9,8.7c-14.5,4.3-35.3,8.6-60.4,8.6
		c-9.8,0-20.2-0.6-31.1-2.2c-10.9-1.5-21.4-2.3-31.4-2.3c-14.3,0-27.8,1.6-40.1,5.2c-9.2,2.7-17.9,6.5-25.7,11.5
		c-11.8,7.5-21.8,17.7-29.6,30.5c-6.2,10.3-11.1,22.1-14.6,35.7c-1-0.1-2-0.2-3-0.3c-6.6-0.5-13-1-19.1-1.5
		c-6.1-0.4-11.9-0.9-17.2-1.3c-5.3-0.4-10.2-0.6-14.6-0.9c-0.4,0-0.8,0-1.1-0.1c10.1-10.4,19.9-21.1,29.5-32
		c9.1-10.4,18-21,26.7-31.8c15.3-14.1,25.5-28.4,32-42.3c30-42.1,56.7-86.9,79.7-134.1c1.5,0.2,3.2,0.5,5.2,0.7
		c3.9,0.5,8.6,1.1,13.9,1.6c2.7,0.3,5.5,0.6,8.5,0.7c3,0.2,6.2,0.5,9.5,0.6c3.3,0.1,6.8,0.3,10.4,0.3c1.8,0,3.6,0,5.5,0
		c1.9,0,3.7-0.1,5.6-0.1c7.6-0.1,15.7-0.7,24-1.6c8.3-1,16.9-2.5,25.5-4.5c8.6-2.1,17.2-4.8,25.5-8.3c8.4-3.4,16.4-7.7,23.8-12.6
		c0.9-0.6,1.9-1.2,2.8-1.8c0.9-0.6,1.8-1.3,2.7-2c0.9-0.7,1.8-1.3,2.6-2c0.9-0.7,1.8-1.3,2.6-2c1.7-1.4,3.3-2.8,4.9-4.2
		c1.6-1.5,3.1-3,4.6-4.4c1.6-1.4,2.9-3,4.3-4.5c1.4-1.5,2.8-3,4.1-4.6c1.3-1.6,2.6-3.1,3.8-4.6c1.2-1.6,2.3-3.2,3.5-4.7
		c0.6-0.8,1.2-1.5,1.7-2.3c0.5-0.8,1-1.6,1.5-2.4c1-1.6,2-3.1,3-4.6c0.9-1.6,1.8-3.1,2.7-4.6c0.4-0.7,0.9-1.5,1.3-2.2
		c0.4-0.7,0.8-1.5,1.2-2.2c1.5-3,3.1-5.8,4.3-8.5c1.2-2.8,2.5-5.3,3.5-7.9c0.5-1.3,1-2.5,1.4-3.6c0.1-0.3,0.2-0.6,0.4-0.9
		c1.4,0.2,2.8,0.3,4.2,0.3c14.8,0,26.7-12,26.7-26.7S2523,1813.5,2508.2,1813.5z M2405.6,1739.4c2.9-3.6,6.7-7.2,11.3-10.8
		c7-5.4,16.3-11,28.2-16.8c8.4-4.1,18.2-8.4,29.5-12.8c-2,10.8-4.4,20.5-7.1,29c-3,9.3-6.4,17.2-10.2,23.8
		c-2.8,4.9-5.8,9.1-8.9,12.6c-4.7,5.3-9.6,8.9-14.7,11.3c-5.2,2.4-10.7,3.6-16.8,3.6c-3.1,0-6.4-0.3-9.9-1c1.1-0.9,2.3-1.7,3.4-2.6
		c1.7-1.4,3.4-2.8,5.1-4.1c1.7-1.4,3.3-2.8,4.9-4.2c1.6-1.4,3.2-2.8,4.7-4.2c3.1-2.8,5.9-5.6,8.6-8.3c2.7-2.7,5.1-5.3,7.3-7.8
		c2.2-2.5,4.2-4.8,5.9-7c1.7-2.2,3.2-4,4.3-5.7c0.6-0.8,1.1-1.5,1.5-2.2c0.4-0.6,0.8-1.2,1.1-1.6c0.3-0.4,0.5-0.8,0.7-1
		c0.1-0.2,0.2-0.4,0.2-0.4s-0.1,0-0.4,0.1c-0.3,0.1-0.6,0.2-1.1,0.4c-0.5,0.2-1.1,0.4-1.8,0.7c-0.7,0.3-1.5,0.6-2.4,1
		c-1.8,0.7-3.9,1.8-6.4,2.9c-2.5,1.1-5.2,2.5-8.1,4c-5.9,3.1-12.5,6.8-19.5,11c-3.5,2.1-7,4.3-10.6,6.6c-2.9,1.9-5.9,3.8-8.9,5.7
		c0.5-2.6,1.1-5.1,1.9-7.5C2399.1,1749,2401.7,1744.2,2405.6,1739.4z M1507.5,520.5c-24.2-13.1-46.5-32.1-62.7-56.9
		c-8.1-12.4-14.7-26.3-19.2-41.7c-3.5-11.6-5.8-24.1-6.7-37.5c15.8,13.5,33,24.2,50.2,33.5c17.4,9.4,34.8,17.3,51,25.2
		c12.2,5.9,23.7,11.7,34,18c7.7,4.7,14.8,9.6,21,14.9c9.3,8,16.6,16.8,21.7,27.4c2.6,5.3,4.6,11,5.9,17.4c1.4,6.3,2.1,13.3,2.1,21
		c-0.7-1.1-1.5-2.2-2.3-3.3c-1.2-1.6-2.5-3.3-3.8-4.9c-2.7-3.4-5.8-6.8-9.3-10.2c-1.7-1.7-3.5-3.4-5.3-5.2c-0.9-0.9-1.9-1.7-2.8-2.6
		c-1-0.9-1.9-1.7-2.9-2.6c-1-0.8-2-1.7-3-2.6c-1-0.8-2.1-1.7-3.1-2.5c-2.1-1.7-4.2-3.3-6.4-5c-4.4-3.2-8.9-6.4-13.4-9.5
		c-4.6-3-9.3-5.9-13.8-8.7c-2.3-1.4-4.6-2.7-6.9-4c-2.3-1.3-4.6-2.6-6.8-3.8c-4.5-2.5-8.9-4.7-13.1-6.8c-4.2-2.1-8.2-3.9-11.9-5.6
		c-3.7-1.7-7.2-3.1-10.2-4.4c-3.1-1.3-5.8-2.3-8-3.2c-2.2-0.9-4-1.5-5.2-1.9c-1.2-0.4-1.8-0.7-1.8-0.7s0.5,0.4,1.5,1.3
		c1,0.8,2.4,2,4.3,3.5c1.9,1.5,4.1,3.3,6.7,5.3c2.6,2,5.5,4.4,8.7,6.8c6.3,5,13.7,10.7,21.7,16.9c4,3,7.9,6.4,12.1,9.6
		c4.1,3.3,8.2,6.6,12.2,10c4.1,3.3,8.1,6.7,12,10.1c3.8,3.5,7.7,6.7,11.2,10.1c3.5,3.3,6.9,6.5,10,9.7c1.5,1.6,3,3.1,4.4,4.6
		c0.5,0.5,1,1,1.5,1.6c-6.9-1.8-14.6-3.6-23.4-5.3C1540.6,535.3,1523.6,529.2,1507.5,520.5z M1172.5,817.8L1172.5,817.8
		L1172.5,817.8L1172.5,817.8z M957.1,865.4c7.8-6.1,14.7-11,21.1-14.9c9.6-5.9,18-9.5,26.1-11.8c8.1-2.2,16-3.1,25-3.1
		c7,0,14.6,0.5,23.2,1.4c8.6,0.8,18.2,1.9,29.2,3.1c12.2,1.2,23.1,1.7,33,1.7c22.6,0,39.2-2.7,50.7-5.8c-6.4,13.8-17.6,33.5-35.5,52
		c-9.6,9.9-21.1,19.5-34.8,27.7c-13.7,8.2-29.7,15.1-48.3,19.7c-13.9,3.4-26.3,4.8-37.2,4.8c-17,0-30.7-3.4-41.9-8.4
		c-8.3-3.8-15.3-8.5-21-13.4c-4.4-3.8-8.1-7.8-11.2-11.6c0.7,0.1,1.3,0.3,2,0.4c0.7,0.1,1.4,0.2,2,0.4c0.7,0.1,1.4,0.2,2.1,0.3
		c1.4,0.2,2.8,0.3,4.2,0.5c1.4,0.2,2.8,0.3,4.3,0.5c1.4,0.2,2.9,0.4,4.3,0.4c5.8,0.2,11.7,0.6,17.7,0.2l4.4-0.2c1.5,0,3-0.2,4.4-0.4
		c2.9-0.3,5.9-0.7,8.7-1c5.7-1.1,11.4-2.1,16.7-3.7c5.4-1.4,10.4-3.4,15-5.3c2.3-1.1,4.5-2.1,6.7-3.1c0.5-0.3,1.1-0.5,1.6-0.7
		c0.5-0.2,1-0.6,1.5-0.8c1-0.6,2-1.1,2.9-1.7c1.9-1.1,3.7-2.1,5.4-3.3c1.7-1.1,3.2-2.2,4.6-3.3c2.9-2.1,5.2-4.2,7.1-5.8
		c1.9-1.7,3.2-3.2,4.2-4.1c0.9-1,1.4-1.5,1.4-1.5s-0.7,0.3-1.9,0.8c-1.2,0.5-3,1.2-5.3,2.2c-1.2,0.4-2.4,0.9-3.8,1.4
		c-0.7,0.3-1.4,0.5-2.1,0.8c-0.4,0.1-0.7,0.3-1.1,0.4c-0.4,0.1-0.8,0.2-1.2,0.4c-3.3,0.9-6.8,2.2-10.8,3.1
		c-3.9,1.1-8.3,1.9-12.8,2.9c-4.6,0.6-9.4,1.6-14.4,2c-1.2,0.1-2.5,0.3-3.8,0.4c-1.3,0.2-2.6,0.1-3.8,0.3c-2.6,0.2-5.2,0.4-7.8,0.5
		c-5.3-0.1-10.6,0.1-15.9-0.2c-2.7-0.2-5.3-0.1-7.9-0.5c-2.6-0.3-5.2-0.6-7.8-0.8c-1.3-0.1-2.6-0.3-3.9-0.5
		c-1.3-0.2-2.6-0.4-3.8-0.6c-1.3-0.2-2.5-0.4-3.8-0.6c-0.6-0.1-1.2-0.2-1.9-0.3c-0.6-0.1-1.2-0.3-1.8-0.4c-2.2-0.5-4.3-0.9-6.4-1.3
		C943,876.9,950.3,870.7,957.1,865.4z M1283.4,673.3c9.4-2.6,17.7-3.8,25.2-3.8c10.1,0,18.9,2,27.2,5.5c6.2,2.6,12.2,6.2,18.1,10.4
		c8.8,6.3,17.4,14.3,26.3,23c5,4.9,10.2,10.1,15.5,15.4c-11.2,2.3-22.3,4.8-33.1,6.9c-16.3,3.2-31.8,5.5-45.4,5.5
		c-8.3,0-15.8-0.8-22.4-2.7c-5-1.4-9.4-3.4-13.4-6c-3-2-5.8-4.4-8.3-7.2c-3.8-4.3-7.2-9.8-10-16.9c-0.7-1.8-1.4-3.8-2-5.9
		c0.2,0.1,0.4,0.2,0.7,0.3c1.8,0.8,3.5,1.7,5.3,2.5c1.8,0.9,3.6,1.6,5.4,2.4c1.8,0.8,3.6,1.5,5.5,2.3c1.8,0.7,3.7,1.4,5.5,2
		c3.6,1.4,7.3,2.4,10.8,3.5c3.5,1,7,1.9,10.3,2.6c1.6,0.4,3.3,0.7,4.8,1.1c1.6,0.3,3.1,0.5,4.5,0.8c1.5,0.2,2.8,0.5,4.2,0.7
		c1.3,0.2,2.6,0.3,3.8,0.5c2.4,0.3,4.5,0.4,6.2,0.5c1.7,0.1,3.1,0.1,4,0.1c0.9,0,1.4,0,1.4,0s-6.8-3.7-17-9.3
		c-1.3-0.7-2.6-1.4-3.9-2.2c-1.4-0.7-2.7-1.5-4.2-2.3c-1.4-0.8-2.9-1.6-4.4-2.5c-1.5-0.8-3-1.6-4.6-2.5c-3.1-1.8-6.2-3.6-9.4-5.4
		c-1.6-0.9-3.2-1.9-4.8-2.8c-0.8-0.5-1.6-1-2.4-1.5l-2.4-1.4c-1.6-1-3.2-1.9-4.8-2.9c-1.6-1-3.1-2-4.7-3c-1.2-0.7-2.4-1.4-3.5-2.2
		C1273,676.6,1278.3,674.7,1283.4,673.3z M1681.2,747.1c-2.3,7.4-6.4,14.2-12.2,20.4c-4.4,4.6-9.8,8.9-16,12.6
		c-9.3,5.6-20.5,10.2-32.9,13.3c-12.4,3.1-25.9,4.7-39.9,4.7c-18.6,0-38-2.9-56.6-9.1c-13.1-4.4-25.8-10.4-37.6-18.1
		c13.3-4.1,25.2-9,35.9-14.3c11.5-5.6,21.8-11.6,31.3-17.4c14.3-8.6,26.9-16.6,39.6-22.3c6.3-2.9,12.7-5.1,19.4-6.7
		c6.7-1.6,13.6-2.5,21.3-2.5c10.6,0,22.5,1.7,36.5,5.9c-0.2,0.2-0.3,0.4-0.5,0.5c-5.1,5-10.5,9.6-16.3,13.7
		c-5.8,4.1-12,7.7-18.5,10.8c-6.5,3.1-13.1,5.8-19.7,8c-1.6,0.6-3.3,1.2-4.9,1.7c-1.6,0.5-3.3,1-4.9,1.5c-1.6,0.5-3.2,1-4.8,1.5
		c-1.6,0.4-3.2,0.9-4.8,1.3c-1.6,0.5-3.1,0.9-4.6,1.3c-1.5,0.4-3.1,0.8-4.5,1.2c-1.5,0.4-3,0.8-4.4,1.2c-1.4,0.4-2.9,0.8-4.3,1.1
		c-5.6,1.3-10.7,2.7-15.3,3.7c-4.6,1.1-8.6,2.2-11.9,2.9c-3.3,0.8-5.9,1.5-7.7,2c-1.8,0.5-2.7,0.8-2.7,0.8s1,0.2,2.8,0.4
		c1.8,0.2,4.5,0.5,8,0.8c3.4,0.4,7.6,0.5,12.4,0.7c4.8,0.2,10.2,0.1,16.2-0.1c3-0.1,6-0.4,9.2-0.6c1.6-0.1,3.2-0.2,4.9-0.4
		c1.6-0.2,3.3-0.4,5-0.6c1.7-0.2,3.4-0.5,5.2-0.7c1.7-0.3,3.5-0.6,5.3-0.9c1.8-0.3,3.6-0.7,5.4-1c1.8-0.4,3.6-0.9,5.5-1.3
		c3.7-0.8,7.4-2,11.1-3.1c1.9-0.5,3.7-1.3,5.6-2c1.9-0.7,3.8-1.3,5.6-2.1c1.9-0.8,3.8-1.6,5.6-2.4c1.9-0.9,3.7-1.8,5.6-2.7
		c1.9-0.9,3.7-2,5.5-3l2.7-1.5l2.7-1.7c6.7-4.3,13-9.2,18.7-14.5c0.1,1.2,0.1,2.4,0.1,3.6C1683.1,738.4,1682.5,742.8,1681.2,747.1z
		 M1731.9,594c-8.9-11.5-17.4-24.5-24.9-38.3c22.3,0.5,41,2.5,56.6,5.7c13.4,2.7,24.4,6.3,33.4,10.3c6.7,3,12.3,6.3,16.8,9.8
		c6.8,5.2,11.3,10.6,14.1,15.9c2.8,5.3,4,10.7,4,15.9c0,5.5-1.3,10.9-3.8,16c-0.7,1.4-1.4,2.7-2.2,4c-1-1.4-2-2.8-3-4.2
		c-1.3-1.8-2.7-3.5-4-5.2c-1.4-1.7-2.8-3.4-4.2-5.1c-2.9-3.3-5.8-6.6-8.8-9.7c-1.5-1.6-3-3.1-4.5-4.6c-1.5-1.5-3-3-4.5-4.4
		c-1.5-1.4-3-2.8-4.4-4.1c-1.5-1.3-2.9-2.6-4.4-3.8c-1.4-1.2-2.8-2.4-4.2-3.5c-1.4-1.1-2.7-2.2-4-3.2c-2.5-2-5-3.8-7.2-5.4
		c-2.1-1.6-4.1-2.9-5.7-3.9c-1.6-1.1-2.9-1.8-3.8-2.4c-0.9-0.5-1.4-0.8-1.4-0.8s0.3,0.5,0.8,1.3c0.6,0.9,1.3,2.2,2.4,3.7
		c1,1.6,2.3,3.6,3.7,5.7c0.7,1.1,1.5,2.3,2.3,3.5c0.8,1.2,1.7,2.5,2.6,3.8c0.9,1.3,1.8,2.7,2.8,4.2c1,1.4,2,2.9,3,4.4
		c2,3,4.2,6.3,6.4,9.5c2.2,3.3,4.5,6.7,6.8,10.2c2.3,3.5,4.6,6.9,6.9,10.4c2.3,3.5,4.5,7,6.6,10.5c0.7,1.2,1.5,2.4,2.2,3.5
		c-0.9,0.1-1.8,0.1-2.7,0.1c-4.2,0-8.5-0.6-13-1.8c-7.8-2.1-16-6.2-24.3-12C1756.2,621.5,1743.6,609,1731.9,594z M1805.9,662
		c4.1,0,8.1-0.4,12.1-1.3c0.6,1.3,1.2,2.5,1.8,3.7c0.7,1.4,1.3,2.8,1.9,4.1c0.2,0.4,0.3,0.8,0.5,1.3c-6.6-2.7-13.3-5.4-20-7.9
		C1803.5,662,1804.7,662,1805.9,662z M1493.3,649.1c1.4,5,2.1,9.8,2.1,14.1c0,4.3-0.6,8-1.6,10.6c-0.7,1.9-1.5,3.1-2.2,3.9
		c-0.3,0.4-0.6,0.6-0.9,0.8c-0.3,0.2-0.5,0.3-0.7,0.3c-0.3,0.1-0.5,0.1-0.9,0.1c-0.4,0-0.9-0.1-1.5-0.3c-1-0.4-2.3-1.1-3.8-2.3
		c-2.2-1.8-4.6-4.6-6.8-8.2c-2.2-3.6-4.1-7.9-5.5-12.7v0l0,0c-0.4-1.3-0.7-2.7-1-4c0.7-0.8,1.4-1.5,2-2.3c2.5-2.9,4.6-5.9,6.3-9.1
		c2.4,1.4,5,2.6,7.8,3.6c1.7,0.6,3.4,1.2,5.3,1.6C1492.5,646.5,1493,647.8,1493.3,649.1z M1421.2,654.3c-0.6-0.2-1.1-0.5-1.4-0.7
		c-0.3-0.2-0.5-0.4-0.6-0.7c-0.1-0.2-0.2-0.4-0.3-0.7c-0.1-0.4-0.2-1.1-0.2-2c0.1-0.9,0.3-2.1,0.8-3.5c1-2.6,2.8-5.9,5.6-9.1
		c2.8-3.3,6.4-6.5,10.7-9.4l-4.4-6.5l0,0l4.4,6.5c1.2-0.8,2.3-1.5,3.5-2.2c1.7,0.8,3.4,1.5,5.1,2.1c2.8,1,5.5,1.8,8.3,2.3
		c-0.7,3.5-1,7.2-1,11c0,1,0,2,0.1,3.1c-1.1,0.8-2.2,1.6-3.3,2.4c-5.5,3.7-11.3,6.2-16.2,7.3c-2.5,0.6-4.7,0.8-6.6,0.8
		C1423.7,654.9,1422.2,654.6,1421.2,654.3z M1421.4,578.2c0.1-0.3,0.2-0.5,0.4-0.7c0.2-0.3,0.5-0.6,1.1-0.9c0.5-0.2,1.1-0.4,1.9-0.6
		c1.3-0.2,3-0.3,5,0c2,0.3,4.3,0.8,6.8,1.7c4.4,1.6,9.2,4.2,13.8,7.9l4.8-6.2l0,0l-4.8,6.2c1.1,0.9,2.1,1.7,3.1,2.6
		c0,0.1,0,0.2,0,0.3c-0.5,3.9-0.6,7.7-0.3,11.3c0.1,0.8,0.2,1.6,0.3,2.4c-3.7,0.4-7.5,1.3-11.3,2.6c-0.8,0.3-1.6,0.6-2.4,0.9
		c-1.1-0.7-2.2-1.5-3.3-2.4c-3.1-2.4-5.8-5-8-7.6c-3.3-3.9-5.6-7.9-6.7-11.1c-0.5-1.6-0.8-3-0.8-4.1
		C1421.1,579.4,1421.3,578.6,1421.4,578.2z M1467.2,631.3c-7.9-2.9-11.9-11.6-9.1-19.5s11.6-11.9,19.5-9.1
		c7.9,2.9,11.9,11.6,9.1,19.5C1483.8,630.1,1475.1,634.2,1467.2,631.3z M1484.7,561.7c1.2-1.2,2.4-2.3,3.6-3c1.7-1.2,3.2-1.8,4.2-2
		c0.5-0.1,0.9-0.1,1.2-0.1c0.3,0,0.5,0.1,0.8,0.2l0,0c0.3,0.1,0.5,0.2,0.8,0.5c0.3,0.2,0.6,0.6,0.9,1.1c0.6,0.9,1.2,2.2,1.7,4.1
		c0.7,2.7,1,6.4,0.7,10.6c-0.3,4.2-1.4,8.8-3.1,13.6l0,0c-0.5,1.3-1,2.6-1.6,3.8c-4.8,0.9-9.3,2.3-13.4,4.3
		c-1.5-3.3-3.4-6.5-5.7-9.6c-0.6-0.8-1.2-1.6-1.8-2.3c0.4-1.3,0.8-2.6,1.3-3.9c1.5-4.1,3.4-7.8,5.5-11
		C1481.4,565.4,1483.1,563.3,1484.7,561.7z M1508.6,629.6c-1.4,0-2.7-0.2-4.1-0.3c-1.4-2.5-2.9-4.8-4.5-7c-1.2-1.6-2.4-3.1-3.7-4.4
		c2.7-2.5,5.2-5.4,7.5-8.6c0.5-0.7,1-1.4,1.5-2.2c1.3,0,2.7-0.1,4.1,0c5.8,0.2,11.2,1.3,15.6,2.9c2.2,0.8,4.1,1.7,5.7,2.7
		c2.4,1.4,4.1,3,4.9,4.2c0.4,0.6,0.7,1.1,0.8,1.5c0.1,0.4,0.2,0.7,0.2,1l0,0c0,0.3-0.1,0.5-0.2,0.8c-0.1,0.3-0.3,0.7-0.7,1.2
		c-0.6,0.8-1.6,1.9-3.2,2.9c-2.3,1.6-5.8,3.1-9.9,4C1518.6,629.3,1513.8,629.8,1508.6,629.6z M1328.6,581.2c-3.1-4-5.8-8.7-8.3-14.3
		c-3.7-8.4-6.7-18.9-9.3-31.9c-1.8-8.9-3.4-19-5-30.4c12.3,5.8,23.6,11.6,33.8,17.6c10.6,6.2,19.9,12.6,28,19.2
		c12.1,9.9,21.3,20.2,27.5,31.2c3.1,5.5,5.6,11.2,7.3,17.2c1.7,6,2.7,12.3,3,19l0,0c0,0.1,0,0.2-0.1,0.3c-0.1,0.1-0.2,0.3-0.3,0.3
		c-0.1,0.1-0.2,0.1-0.3,0.1l-0.1,0c-20.9-2.3-36.9-5.3-49-9.8c-4.5-1.7-8.5-3.5-12-5.5C1337.5,590.8,1332.7,586.6,1328.6,581.2z
		 M807.6,861.8c0-10.7,1.5-21.4,4.4-32.8c4.5-17,12.4-35.6,23.9-57.1c10-18.7,22.6-39.6,37.9-63.8c6.8,10.6,12.3,21.3,16.4,32.3
		c5.5,14.8,8.5,29.9,8.5,45.8c0,10.9-1.4,22.1-4.4,33.9c-4.5,17.7-12.6,36.6-25.1,57c-4.8,7.8-10.2,15.8-16.3,24c-2.7,3-5.3,6-8,9
		c0.9-3.7,2-7.5,3-11.5c1-4,2-8.2,3.1-12.4c0.5-2.1,1.1-4.2,1.6-6.4c0.5-2.1,1-4.3,1.6-6.4c0.6-2.1,1.1-4.3,1.6-6.4
		c0.5-2.1,1.1-4.3,1.6-6.4c1-4.2,2-8.4,3-12.5c1-4.1,1.9-8,2.8-11.7c0.9-3.7,1.7-7.3,2.5-10.6c0.4-1.7,0.8-3.2,1.1-4.7
		c0.3-1.5,0.6-2.9,1-4.3c0.7-2.6,1.2-5,1.7-6.9c0.2-1,0.5-1.8,0.7-2.6c0.2-0.7,0.4-1.4,0.5-1.9c0.3-1.1,0.4-1.6,0.4-1.6
		s-0.4,0.4-1.1,1.2c-0.7,0.8-1.9,2-3.1,3.6c-0.6,0.8-1.4,1.7-2.1,2.6c-0.7,1-1.5,2.1-2.3,3.2c-1.6,2.3-3.4,4.9-5.1,7.9
		c-0.9,1.5-1.8,3-2.8,4.6c-0.9,1.6-1.8,3.3-2.8,5c-1.9,3.5-3.8,7.2-5.6,11c-0.9,1.9-1.8,3.9-2.7,5.9c-0.9,2-1.8,4.1-2.7,6.1
		c-0.9,2.1-1.8,4.2-2.6,6.3c-0.8,2.1-1.7,4.2-2.5,6.4c-1.6,4.3-3.1,8.6-4.5,12.8c-0.7,2.1-1.3,4.3-2,6.4c-0.7,2.1-1.3,4.2-1.9,6.2
		c-0.6,2-1.2,4.1-1.7,6.1c-0.5,2-1,3.9-1.5,5.8c-0.5,1.9-0.9,3.7-1.3,5.6c-0.4,1.8-0.8,3.5-1.1,5.2c-0.3,1.5-0.6,3-0.9,4.4
		c-2.9-6.9-5.3-13.5-7.2-19.9C809.6,886.7,807.6,874.2,807.6,861.8z M1048.6,736c-1.2-9.5-1.8-18.5-1.8-26.8
		c0-19.7,3.1-36.2,8.5-50.4c4-10.7,9.3-20.1,15.6-28.7c9.5-12.9,21.3-23.8,34.7-33.7c13.3-9.9,28.1-18.8,43.3-27.5
		c32.5-18.8,54.1-42,67.5-60.5c3.4-4.7,6.2-9.1,8.6-13c0.1,0.3,0.2,0.7,0.3,1c3.2,12.5,6.3,29.8,6.3,49.2c0,10.5-0.9,21.7-3.2,33.1
		c-3.5,17.1-10,34.7-21.3,51.8c-11.2,16.9-27.1,33.3-49.6,48c-13.3,5.9-26.5,12.1-39.5,18.6c1.3-3,2.9-6.3,4.5-9.8
		c0.9-1.8,1.7-3.8,2.7-5.7c1-1.9,1.9-3.9,2.9-5.9c1-2,2-4,3-6.1c1.1-2,2.2-4.1,3.3-6.2c1.1-2.1,2.1-4.2,3.3-6.3
		c1.2-2.1,2.3-4.2,3.5-6.3l1.7-3.2c0.6-1.1,1.2-2.1,1.8-3.1c1.2-2.1,2.4-4.2,3.5-6.2c2.4-4.1,4.8-8.2,7-12.1
		c2.4-3.8,4.5-7.8,6.8-11.3c2.2-3.6,4.3-7,6.2-10.1c1.9-3.1,3.7-6,5.3-8.6c1.6-2.5,3-4.8,4.1-6.6c1.2-1.8,2-3.3,2.7-4.3
		c0.6-1,1-1.5,1-1.5s-0.5,0.4-1.5,1.1c-0.9,0.7-2.4,1.7-4.1,3.1c-1.7,1.4-3.8,3-6.1,5c-2.3,2-4.9,4.2-7.6,6.9
		c-1.4,1.3-2.8,2.6-4.2,4c-1.4,1.4-2.9,2.9-4.4,4.5c-3,3.1-6.1,6.4-9.2,10c-1.6,1.8-3.1,3.6-4.6,5.5c-1.5,1.9-3.2,3.7-4.7,5.7
		c-1.5,2-3,3.9-4.5,5.9c-0.8,1-1.5,2-2.3,3l-2.2,3.1c-1.4,2.1-2.9,4.2-4.3,6.2c-1.4,2.1-2.7,4.2-4.1,6.3c-1.3,2.1-2.7,4.2-3.9,6.3
		c-1.2,2.1-2.4,4.2-3.5,6.3c-1.1,2.1-2.3,4.1-3.4,6.1c-1,2.1-2,4.1-2.9,6.1c-0.9,2-1.9,3.9-2.7,5.8c-0.9,1.8-1.6,3.8-2.3,5.6
		c-0.7,1.8-1.4,3.6-2,5.2c-0.6,1.7-1.2,3.2-1.7,4.7c-0.9,2.9-1.6,5.4-2.2,7.5c-0.4,1.3-0.7,2.5-0.9,3.4c-2.3,1.3-4.6,2.5-6.9,3.8
		C1072.7,721.3,1060.5,728.5,1048.6,736z M1980.1,797.5c-10.8,9.3-25,17.8-41.2,23.9c-16.2,6.1-34.3,9.8-53,9.8
		c-14.4,0-29.1-2.2-43.6-7.2c-10.6-3.6-21.2-8.8-31.4-15.7c6.8-4.3,12.8-9.3,18.3-14.3c6.5-6,12.3-12.3,17.9-18.2
		c4.2-4.4,8.3-8.6,12.6-12.3c6.4-5.6,13-10.3,20.8-13.6c7.8-3.3,16.7-5.4,28.2-5.4c8,0,17.3,1,28,3.5c19,11.6,37.5,24,55.5,37.1
		C1988.8,789.3,1984.8,793.5,1980.1,797.5z M2134.1,787.2c6.5-22,17.2-42.5,29.7-60.4c8.2-11.7,17.1-22.3,26.1-31.4
		c0.4,2.9,1,5.9,1.7,8.8c3.1,13.7,8.4,27.8,14.5,42.2c9.1,21.6,20.1,43.9,28.7,66.3c4.3,11.2,8,22.4,10.6,33.4
		c2.6,11,4.1,21.9,4.1,32.6c0,8.1-0.9,16-2.8,23.9c-2.9,11.7-8.2,23.3-16.8,34.7c-7.3,9.7-17.1,19.4-29.9,28.9
		c-2.6-3.5-5.2-7-7.8-10.4c0,0,0-0.1,0-0.1c0.3-0.6,0.7-1.2,1.1-1.9c0.4-0.7,0.8-1.4,1.2-2.2c0.2-0.4,0.4-0.8,0.5-1.1
		c0.2-0.4,0.3-0.8,0.5-1.2c0.4-0.8,0.7-1.6,1.1-2.5c0.2-0.4,0.4-0.9,0.5-1.3c0.1-0.4,0.3-0.9,0.5-1.4c1.3-3.7,2.5-8,3.2-12.6
		c0.2-1.2,0.4-2.3,0.6-3.5c0.1-1.2,0.3-2.4,0.4-3.6c0.3-2.5,0.3-5,0.4-7.6c0.1-1.3,0-2.6,0-3.9c0-1.3,0-2.7-0.1-4
		c-0.1-2.7-0.3-5.4-0.5-8.1c-0.1-1.4-0.2-2.8-0.4-4.1c-0.2-1.4-0.3-2.8-0.5-4.1c-0.3-2.8-0.8-5.6-1.2-8.4c-1-5.6-2-11.2-3.2-16.7
		c-1.3-5.5-2.6-11-3.8-16.3c-0.6-2.7-1.3-5.3-2-7.9c-0.6-2.6-1.3-5.2-1.9-7.7c-1.1-5-2.4-9.9-3.4-14.5c-1-4.6-1.8-9-2.5-13
		c-0.6-4-1.1-7.8-1.3-11.1c-0.2-3.3-0.3-6.2-0.1-8.7c0.1-1.2,0.2-2.3,0.2-3.2c0.1-0.9,0.2-1.7,0.3-2.4c0.2-1.3,0.3-2,0.3-2
		s-0.3,0.6-1,1.8c-0.3,0.6-0.7,1.3-1.1,2.2c-0.4,0.9-0.8,1.9-1.3,3.1c-0.8,2.4-1.8,5.3-2.4,8.8c-0.1,0.4-0.2,0.9-0.3,1.3
		c-0.1,0.4-0.1,0.9-0.2,1.4c-0.1,0.9-0.3,1.9-0.4,2.9c-0.2,1-0.2,2-0.3,3c-0.1,1-0.2,2.1-0.3,3.2c-0.1,2.2-0.3,4.4-0.3,6.7
		c-0.1,2.3-0.1,4.7,0,7.2c0.1,4.9,0.3,10.1,0.8,15.4c0.5,5.3,0.9,10.8,1.5,16.2c0.6,5.5,1.3,11,1.8,16.5c0.7,5.5,1.3,10.9,1.8,16.3
		c0.4,5.3,1,10.5,1.1,15.5c0.2,5,0.3,9.7,0.2,14.1c-0.1,2.2-0.1,4.4-0.4,6.4c-0.1,1-0.1,2-0.2,3c-0.1,1-0.2,1.9-0.4,2.8
		c-0.1,0.9-0.2,1.8-0.4,2.7c-0.2,0.9-0.3,1.7-0.5,2.5c-0.1,0.4-0.1,0.8-0.2,1.2c-0.1,0.4-0.2,0.8-0.3,1.1c-0.2,0.7-0.4,1.5-0.5,2.2
		c0,0.1,0,0.2-0.1,0.2c-12.3-15.3-25-30.2-38.2-44.7c-9.2-20.7-13.1-41-13.1-60.7C2127.2,817.2,2129.7,801.9,2134.1,787.2z
		 M2396.9,1404.3c4.9-14.6,11.1-27.4,18.5-38.6c11.1-16.9,25-30.5,41.7-41.8c13-8.8,27.8-16.2,44.3-22.5c-0.8,6.4-1.3,13.1-1.6,20
		c-1.2,22.5-0.7,47.8-0.9,73.1c-0.1,19-0.6,38-2.3,55.6c-1.3,13.2-3.3,25.7-6.3,36.8c-2.2,8.3-5,15.9-8.5,22.5
		c-2.6,4.9-5.5,9.3-8.8,13.1c-4.9,5.7-10.7,10-17.7,13.1c-7,3-15.4,4.8-25.6,4.8c-11.7,0-25.9-2.4-42.9-7.8c0-3.6-0.1-7.1-0.1-10.7
		c0.6-0.1,1.3-0.1,2-0.2c0.8-0.1,1.6-0.3,2.5-0.4c1.7-0.3,3.6-0.7,5.5-1.3c1-0.3,2-0.6,3-0.9c1-0.4,2-0.8,3.1-1.2
		c2.1-0.8,4.2-2.1,6.4-3.2c1.1-0.6,2.1-1.4,3.2-2.1c0.5-0.4,1.1-0.7,1.6-1.1c0.5-0.4,1-0.8,1.6-1.2c0.5-0.4,1-0.8,1.6-1.2
		c0.5-0.4,1-0.8,1.5-1.3c1-0.9,2-1.9,3-2.8c3.8-3.9,7.4-8.3,10.5-13.1c0.7-1.2,1.5-2.4,2.3-3.6c0.8-1.2,1.4-2.5,2.1-3.7
		c1.4-2.5,2.7-5.1,3.9-7.7c2.4-5.2,4.5-10.6,6.5-15.9c1.9-5.4,3.6-10.7,5.2-16c1.6-5.3,2.9-10.5,4.3-15.5c1.4-5,2.5-9.9,3.6-14.5
		c1.1-4.6,2.1-9,3.1-13c1-4,1.8-7.8,2.5-11c0.7-3.3,1.4-6.2,1.9-8.5c0.6-2.4,0.9-4.3,1.2-5.5c0.3-1.3,0.4-2,0.4-2s-0.4,0.6-1.1,1.7
		c-0.7,1.1-1.8,2.7-3,4.9c-1.2,2.1-2.7,4.7-4.3,7.7c-1.6,3-3.4,6.4-5.3,10.1c-0.9,1.9-1.9,3.8-2.9,5.8c-1,2-1.9,4.1-3,6.3
		c-2,4.3-4.1,8.9-6.2,13.6c-1,2.4-2.1,4.7-3.2,7.2c-1.1,2.4-2.2,4.8-3.3,7.3c-2.2,4.9-4.4,9.8-6.8,14.6c-2.3,4.8-4.6,9.6-7.2,14
		c-2.6,4.4-5,8.7-7.8,12.5c-2.8,3.7-5.5,7.1-8.3,10c-0.7,0.7-1.4,1.3-2.1,2c-0.7,0.7-1.5,1.2-2.1,1.8c-0.3,0.3-0.7,0.6-1,0.9
		c-0.4,0.3-0.7,0.5-1.1,0.8c-0.7,0.5-1.4,1-2.1,1.5c-1.4,0.8-2.8,1.7-4.1,2.3c-0.7,0.3-1.3,0.7-2,1c-0.7,0.3-1.3,0.5-1.9,0.7
		c-0.6,0.2-1.2,0.5-1.8,0.7c-0.6,0.2-1.2,0.3-1.8,0.5c-0.2,0.1-0.5,0.1-0.7,0.2c-0.4-10-0.9-19.9-1.6-29.7
		C2386.3,1446.3,2390.5,1423.7,2396.9,1404.3z M2346.6,1327.3c-0.3,0.2-0.5,0.3-0.7,0.3c-0.3,0.1-0.5,0.1-0.9,0.1
		c-0.4,0-0.9-0.1-1.5-0.3c-1-0.4-2.3-1.1-3.8-2.3c-2.2-1.8-4.6-4.6-6.8-8.2c-2.2-3.6-4.1-7.9-5.5-12.7v0c-0.4-1.3-0.7-2.7-1-4
		c0.7-0.8,1.4-1.5,2-2.3c2.5-2.9,4.6-5.9,6.3-9.1c2.4,1.4,5,2.6,7.8,3.6c1.7,0.6,3.4,1.2,5.3,1.6c0.5,1.3,0.9,2.5,1.3,3.9v0
		c1.4,5,2.1,9.8,2.1,14.1c0,4.3-0.6,8-1.6,10.6c-0.7,1.9-1.5,3.1-2.2,3.9C2347.1,1326.9,2346.8,1327.1,2346.6,1327.3z
		 M2276.9,1303.1c-0.6-0.2-1.1-0.5-1.4-0.7c-0.3-0.2-0.5-0.4-0.6-0.7c-0.1-0.2-0.2-0.4-0.3-0.7c-0.1-0.4-0.2-1.1-0.2-2
		c0.1-0.9,0.3-2.1,0.8-3.5c1-2.6,2.8-5.9,5.6-9.1c2.8-3.3,6.4-6.5,10.7-9.4l0,0c1.2-0.8,2.3-1.5,3.5-2.2c1.7,0.8,3.4,1.5,5.1,2.1
		c2.8,1,5.5,1.8,8.3,2.3c-0.7,3.5-1,7.2-1,11c0,1,0,2,0.1,3.1c-1.1,0.8-2.2,1.6-3.3,2.4c-5.5,3.7-11.3,6.2-16.2,7.3
		c-2.5,0.6-4.7,0.8-6.6,0.8C2279.4,1303.7,2277.9,1303.4,2276.9,1303.1z M2277.2,1227c0.1-0.3,0.2-0.5,0.4-0.7v0
		c0.2-0.3,0.5-0.6,1.1-0.9c0.5-0.2,1.1-0.4,1.9-0.6c1.3-0.2,3-0.3,5,0c2,0.3,4.3,0.8,6.8,1.7c4.4,1.6,9.2,4.2,13.8,7.9
		c1.1,0.9,2.1,1.7,3.1,2.6c0,0.1,0,0.2,0,0.3c-0.5,3.9-0.6,7.7-0.3,11.3c0.1,0.8,0.2,1.6,0.3,2.4c-3.7,0.4-7.5,1.3-11.3,2.6
		c-0.8,0.3-1.6,0.6-2.4,0.9c-1.1-0.7-2.2-1.5-3.3-2.4c-3.1-2.4-5.8-5-8-7.6c-3.3-3.9-5.6-7.9-6.7-11.1c-0.5-1.6-0.8-3-0.8-4.1
		C2276.9,1228.2,2277,1227.4,2277.2,1227z M2317.4,1220.2L2317.4,1220.2L2317.4,1220.2z M2335.6,1216.6c1.5-2.4,3.2-4.4,4.8-6.1
		c1.2-1.2,2.4-2.3,3.6-3c1.7-1.2,3.2-1.8,4.2-2c0.5-0.1,0.9-0.1,1.2-0.1c0.3,0,0.5,0.1,0.8,0.2c0.3,0.1,0.5,0.2,0.8,0.5
		c0.3,0.2,0.6,0.6,0.9,1.1c0.6,0.9,1.2,2.2,1.7,4.1c0.7,2.7,1,6.4,0.7,10.6c-0.3,4.2-1.4,8.8-3.1,13.6l0,0c0,0,0,0,0,0
		c-0.5,1.3-1,2.6-1.6,3.8c-4.8,0.9-9.3,2.3-13.4,4.3c-1.5-3.3-3.4-6.5-5.7-9.6c-0.6-0.8-1.2-1.6-1.8-2.3c0.4-1.3,0.8-2.6,1.3-3.9
		C2331.7,1223.4,2333.5,1219.7,2335.6,1216.6z M2323,1280.1c-7.9-2.9-11.9-11.6-9.1-19.5c2.9-7.9,11.6-11.9,19.5-9.1
		c7.9,2.9,11.9,11.6,9.1,19.5C2339.6,1278.9,2330.9,1283,2323,1280.1z M2365.2,1255.9c5.8,0.2,11.2,1.3,15.6,2.9
		c2.2,0.8,4.1,1.7,5.7,2.7c2.4,1.4,4.1,3,4.9,4.2c0.4,0.6,0.7,1.1,0.8,1.5c0.1,0.4,0.2,0.7,0.2,1c0,0.3-0.1,0.5-0.2,0.8
		c-0.1,0.3-0.3,0.7-0.7,1.2c-0.6,0.8-1.6,1.9-3.2,2.9c-2.3,1.6-5.8,3.1-9.9,4c-4.1,1-9,1.5-14.1,1.3c-1.4,0-2.7-0.2-4.1-0.3
		c-1.4-2.5-2.9-4.8-4.5-7c-1.2-1.6-2.4-3.1-3.7-4.4c2.7-2.5,5.2-5.4,7.5-8.6c0.5-0.7,1-1.4,1.5-2.2
		C2362.4,1255.8,2363.8,1255.8,2365.2,1255.9z M2310.5,1093c3.8-7.2,7.7-12.7,11.7-17.5c3-3.6,6.1-6.8,9.2-10
		c4.7-4.8,9.6-9.5,14.3-15.4c1.1-1.3,2.1-2.7,3.1-4.2c3.4,9,6.1,17.9,8.2,26.4c3.4,13.8,5.2,26.8,5.2,38.4c0,9.3-1.1,17.7-3.3,24.9
		c-1.6,5.4-3.8,10.2-6.6,14.3c-2.1,3.1-4.5,5.8-7.2,8.2c-4.1,3.6-9,6.4-15,8.4c-4.5,1.5-9.6,2.5-15.4,3c-0.9-2.3-1.9-4.6-2.9-6.9
		c0.2-0.2,0.4-0.4,0.6-0.5c0.5-0.4,1.1-1,1.6-1.6c0.6-0.6,1.1-1.2,1.8-1.9c0.6-0.7,1.2-1.3,1.9-2.1c0.6-0.7,1.2-1.5,1.8-2.2
		c1.2-1.6,2.5-3.2,3.6-5c1.2-1.8,2.4-3.7,3.4-5.7c1.1-2,2.1-4,3-6.1c0.4-1,0.9-2.1,1.3-3.1c0.4-1.1,0.8-2.1,1.2-3.2
		c0.4-1,0.7-2.1,1.1-3.2c0.3-1,0.6-2.1,0.9-3.1c0.6-2.1,1-4.1,1.4-6c0.4-1.9,0.6-3.8,0.8-5.5c0.2-1.7,0.3-3.3,0.4-4.7
		c0.1-1.4,0-2.6,0-3.7c0-1-0.1-1.8-0.2-2.4c-0.1-0.5-0.1-0.8-0.1-0.8s-0.2,0.2-0.6,0.6c-0.3,0.4-0.9,1-1.6,1.7
		c-0.7,0.7-1.5,1.6-2.3,2.7c-0.9,1-1.9,2.2-2.9,3.4c-1,1.3-2.2,2.6-3.4,4c-1.2,1.4-2.5,2.9-3.7,4.4c-1.3,1.5-2.5,3.1-3.8,4.7
		c-1.3,1.6-2.6,3.2-3.9,4.7c-0.7,0.8-1.2,1.6-1.9,2.4c-0.7,0.8-1.3,1.6-1.9,2.3c-1.2,1.5-2.5,3-3.7,4.5c-1.1,1.5-2.3,2.9-3.4,4.2
		c-0.1,0.2-0.2,0.3-0.4,0.5c-1.8-4.1-3.7-8.2-5.6-12.3C2301.2,1113.7,2305.7,1102,2310.5,1093z M2268.3,1150.1
		c-6.9,2.1-13.2,3-18.9,3c-5.1,0-9.9-0.7-14.5-2.1c-4-1.2-8-2.9-11.9-5.1c-6.9-3.9-13.7-9.3-20.7-16.1
		c-10.4-10.2-21.1-23.4-32.7-38.5c-9.6-12.4-19.9-26-31.4-40.2c4.5-1.9,9.3-3.6,14.1-5.1c8.7-2.5,17.7-4.1,26.9-4.1
		c6.3,0,12.7,0.7,19.2,2.4c9.7,2.5,19.6,7,29.5,14.4c9.9,7.4,19.8,17.8,29.6,32c1.4,2.5,2.7,5.1,4,7.6c-1.9-0.5-3.9-1-5.9-1.6
		c-2.3-0.5-4.7-1.2-7.1-1.8c-2.4-0.6-4.9-1.3-7.4-1.9c-1.3-0.3-2.5-0.6-3.8-1c-1.2-0.3-2.5-0.6-3.8-0.9c-2.5-0.7-5-1.2-7.4-1.8
		c-2.4-0.6-4.8-1.1-7-1.6c-2.2-0.5-4.4-1-6.3-1.4c-2-0.4-3.8-0.8-5.4-1.1c-1.6-0.4-3.1-0.6-4.3-0.8c-1.2-0.2-2.2-0.4-2.8-0.5
		c-0.7-0.1-1-0.2-1-0.2s0.2,0.3,0.7,0.8c0.4,0.5,1.1,1.2,1.9,2.1c0.9,0.9,1.9,1.9,3.1,3.1c1.2,1.1,2.7,2.5,4.3,3.7
		c0.8,0.7,1.6,1.3,2.5,2.1c0.9,0.7,1.8,1.4,2.8,2.1c1.9,1.4,3.9,2.9,6.1,4.3c1.1,0.7,2.2,1.4,3.3,2.1c1.1,0.7,2.3,1.4,3.4,2.1
		c2.4,1.3,4.8,2.6,7.2,3.9c1.2,0.6,2.5,1.2,3.7,1.8c0.6,0.3,1.2,0.6,1.9,0.9c0.6,0.3,1.3,0.5,1.9,0.8c2.5,1.1,5,2.1,7.5,2.9
		c2.5,0.8,4.9,1.6,7.2,2.2c1.2,0.3,2.3,0.6,3.4,0.9c0.6,0.1,1.1,0.2,1.6,0.4c0.6,0.1,1.1,0.2,1.6,0.3c1.1,0.2,2.1,0.4,3.1,0.5
		c1,0.1,1.9,0.3,2.8,0.4c1.4,0.2,2.6,0.2,3.6,0.3c2.2,4.4,4.3,8.8,6.4,13.3c0,0,0,0,0,0.1c1.4,3.1,2.9,6.2,4.3,9.3
		C2278.4,1146.6,2273.2,1148.7,2268.3,1150.1z M2351,1664.8c-4.6,1.9-9.5,2.9-14.7,2.9c-8.3,0-17.4-2.5-26.5-7.6
		c-13.6-7.7-26.9-21.5-36.8-40.9c-9.9-19.4-16.4-44.5-16.4-74.7c0-2.8,0.1-5.6,0.2-8.4c12.5,2.9,24.1,4.4,34.6,5.5
		c10.2,1.1,19.4,1.9,27.5,3.3c6.1,1,11.5,2.3,16.3,4.1c3.6,1.4,6.9,3.1,9.9,5.2c4.6,3.2,8.7,7.3,12.5,13.4c3.7,5.8,7.1,13.3,10,23.1
		c-0.4,8.3-1,16.6-1.6,24.8c-0.4-0.2-0.8-0.3-1.2-0.5c-0.4-0.2-0.8-0.4-1.2-0.6c-0.8-0.4-1.7-0.8-2.6-1.2c-0.9-0.4-1.9-0.9-2.9-1.3
		c-0.5-0.2-1-0.4-1.5-0.6c-0.5-0.3-1-0.5-1.6-0.8c-1.1-0.5-2.2-1.1-3.3-1.6c-1.1-0.6-2.3-1-3.5-1.6c-2.3-1.2-4.7-2.5-7.2-3.7
		c-2.4-1.4-4.9-2.6-7.3-4.1c-1.2-0.7-2.4-1.4-3.6-2.2c-0.6-0.4-1.2-0.7-1.8-1.1c-0.6-0.4-1.2-0.8-1.8-1.1c-1.2-0.8-2.4-1.5-3.6-2.2
		c-1.2-0.7-2.3-1.5-3.4-2.3c-2.2-1.5-4.4-3-6.4-4.5c-1-0.7-1.9-1.5-2.9-2.2c-1-0.7-1.9-1.4-2.8-2.1c-1.7-1.4-3.4-2.6-4.8-3.8
		c-0.7-0.6-1.4-1.1-2-1.6c-0.6-0.5-1.2-1-1.7-1.4c-1-0.9-1.9-1.6-2.4-2.1c-0.6-0.5-0.8-0.8-0.8-0.8s0.3,1.6,1.1,4.2
		c0.5,1.3,1,2.9,1.7,4.7c0.4,0.9,0.8,1.8,1.2,2.8c0.5,1,1,2,1.5,3c1.1,2.1,2.4,4.3,3.9,6.6c1.6,2.2,3.1,4.7,5,7
		c0.9,1.2,1.9,2.4,2.9,3.5c1,1.1,2.1,2.3,3.2,3.4c2.1,2.4,4.6,4.4,6.9,6.6c1.2,1.1,2.5,2,3.7,3c1.2,1,2.5,2,3.8,2.9
		c1.3,0.9,2.6,1.8,3.9,2.6c1.3,0.8,2.6,1.6,3.9,2.5c2.6,1.6,5.2,2.8,7.7,4.1c0.6,0.3,1.2,0.6,1.8,0.9c0.6,0.3,1.3,0.6,1.9,0.8
		c1.2,0.5,2.5,1,3.6,1.4c1.2,0.4,2.3,0.9,3.3,1.3c0.5,0.2,1.1,0.4,1.5,0.5c0.5,0.1,0.9,0.3,1.4,0.4c1.7,0.5,3.3,0.9,4.6,1.2
		c-0.7,7.5-1.6,15.1-2.5,22.5C2358.3,1660.9,2354.8,1663.2,2351,1664.8z M978.7,2235.7c-5.3-7.6-9.8-16-13.7-25.5
		c-5.7-14.2-9.9-30.7-12.6-49.6c-2.7-19-3.9-40.5-3.9-64.6c0-4.5,0-9,0.1-13.7c12.3,6.7,24.9,14.5,37,23.1
		c24.5,17.3,47.5,38,64,59.6c8.3,10.8,14.9,21.8,19.5,32.7c4.5,10.9,7,21.7,7,32.1c0,9.7-2.1,19.2-6.7,28.6
		c-2.6,5.3-6.1,10.7-10.6,16c-0.1-0.5-0.3-1-0.4-1.5c-0.4-1.5-0.8-3-1.3-4.6c-1-3-2-6.1-3-9.3c-1.1-3.1-2.2-6.2-3.4-9.3
		c-1.1-3.2-2.5-6.2-3.8-9.3c-0.7-1.5-1.3-3.1-2-4.7l-1-2.3l-1.1-2.3c-1.4-3-2.9-6.1-4.3-9.1c-1.5-3-3.1-5.9-4.7-8.8
		c-0.8-1.5-1.5-2.9-2.3-4.3c-0.8-1.4-1.6-2.8-2.4-4.2c-0.8-1.4-1.6-2.8-2.4-4.2c-0.8-1.4-1.6-2.7-2.5-4.1
		c-3.4-5.3-6.5-10.5-9.9-15.1c-1.6-2.4-3.2-4.6-4.8-6.9c-1.6-2.2-3.2-4.3-4.6-6.3c-1.5-2-2.9-3.9-4.3-5.7c-1.4-1.8-2.8-3.5-4-5
		c-1.3-1.6-2.5-3.1-3.6-4.4c-1.1-1.3-2.2-2.6-3.1-3.7c-1.9-2.2-3.4-3.9-4.5-5.1c-1-1.2-1.6-1.8-1.6-1.8s0.3,0.8,1,2.2
		c0.6,1.4,1.5,3.5,2.7,6.2c1.2,2.6,2.7,5.8,4.4,9.5c1.7,3.6,3.6,7.8,5.7,12.2c1,2.2,2.1,4.6,3.2,7c1.1,2.4,2.2,4.9,3.4,7.5
		c2.3,5.1,4.7,10.5,7.3,16.1c1.3,2.8,2.4,5.7,3.7,8.5c0.6,1.4,1.3,2.9,1.9,4.3c0.6,1.4,1.2,2.9,1.8,4.4c1.2,3,2.4,5.9,3.6,8.9
		c1.2,3,2.3,6,3.5,9l0.9,2.2l0.8,2.3c0.5,1.5,1.1,3,1.6,4.5c0.5,1.5,1,3,1.6,4.5c0.3,0.7,0.5,1.5,0.7,2.3l0.7,2.2
		c1,3,1.9,5.9,2.8,8.9c0.8,3,1.6,5.9,2.4,8.8c0.6,1.9,1,3.8,1.5,5.6c-13.3-4.8-24.8-10.7-34.6-17.8
		C994.2,2254.3,985.8,2245.8,978.7,2235.7z M485.3,1492c-12-10.5-20.9-23.7-26.9-39.3c-6-15.6-9-33.8-9-53.9c0-19.1,2.7-40,8.1-62
		c4.2-17.1,10-34.8,17.3-53c6.3,9.6,13.6,19.5,21.3,29.7c17.6,23.6,37.3,49,52.3,75.4c7.5,13.2,13.9,26.6,18.4,40.2
		c4.5,13.5,7,27.1,7,40.7c0,8.9-1.1,17.8-3.5,26.8c-0.9,3.3-2,6.7-3.2,10.1c-2.1-3.2-4.2-6.4-6.2-9.7c-2.3-3.6-4.5-7.3-6.8-11
		c-4.5-7.3-8.9-14.7-13-22.2c-4.2-7.3-8.2-14.7-11.9-21.9c-1.8-3.6-3.6-7.2-5.3-10.6c-0.9-1.7-1.7-3.5-2.5-5.2
		c-0.8-1.7-1.6-3.4-2.4-5.1c-1.5-3.4-3-6.7-4.4-9.9c-0.7-1.6-1.4-3.2-2-4.7c-0.6-1.6-1.2-3.1-1.8-4.6c-2.4-6-4.5-11.6-6.2-16.7
		c-1.6-5-3.1-9.5-4.1-13.1c-0.3-0.9-0.5-1.8-0.8-2.6c-0.3-0.8-0.5-1.6-0.7-2.3c-0.4-1.4-0.7-2.7-1-3.7c-0.5-2-0.8-3.1-0.8-3.1
		s0,1.1,0.1,3.2c0.1,2.1,0,5.1,0.4,9c0.1,1.9,0.3,4.1,0.6,6.4c0.3,2.3,0.5,4.9,0.9,7.5c0.7,5.4,1.7,11.4,3.1,17.9
		c0.4,1.6,0.7,3.3,1.1,5c0.4,1.7,0.8,3.4,1.3,5.2c0.8,3.5,1.9,7.1,3,10.8c2.2,7.3,4.7,15,7.7,22.8c2.9,7.8,6.3,15.8,9.8,23.8
		c3.6,8,7.6,16,11.6,23.9l3.1,5.9c1,2,2.1,3.9,3.2,5.8c1.9,3.6,4,7.1,6,10.5c-13.2-1.6-24.9-4.6-35.3-8.8
		C502.8,1504.8,493.3,1498.9,485.3,1492z M606.4,2030.4c0.4,5.1,0.1,10-0.7,14.2c-0.8,4.2-2.2,7.7-3.6,10.1c-1,1.7-2.1,2.8-2.9,3.4
		c-0.4,0.3-0.7,0.5-1,0.6c-0.3,0.1-0.5,0.2-0.8,0.2c-0.3,0-0.6,0-0.9-0.1c-0.4-0.1-0.8-0.3-1.4-0.6c-0.9-0.6-2.1-1.5-3.3-3
		c-1.8-2.2-3.6-5.4-5-9.3c-1.4-3.9-2.4-8.6-2.8-13.6l0,0c-0.1-1.4-0.2-2.7-0.2-4.1c0.8-0.6,1.7-1.2,2.5-1.8c3-2.4,5.7-4.9,8-7.6
		c2.1,1.8,4.4,3.5,6.9,5.1c1.5,0.9,3.2,1.8,4.8,2.6C606.1,2027.7,606.3,2029,606.4,2030.4z M538.8,2022.7c-1.8-0.4-3.3-1-4.2-1.5
		c-0.6-0.4-1-0.7-1.2-1c-0.3-0.3-0.4-0.5-0.5-0.8c-0.1-0.2-0.2-0.5-0.2-0.8c0-0.4,0-1.1,0.2-2c0.3-0.9,0.7-2,1.5-3.3
		c1.5-2.4,4-5.2,7.3-7.8c3.4-2.6,7.5-5.1,12.3-7.1l0,0c1.3-0.5,2.6-1,3.8-1.4c1.5,1.1,3,2.1,4.6,3.1c2.5,1.5,5.1,2.8,7.7,3.9
		c-1.4,3.3-2.4,6.8-3.2,10.6c-0.2,1-0.4,2-0.5,3c-1.2,0.6-2.4,1.2-3.7,1.7c-6.2,2.6-12.3,3.8-17.3,4
		C542.9,2023.3,540.6,2023.1,538.8,2022.7z M549.2,1948.9c0.2-1.1,0.5-1.8,0.7-2.2c0.2-0.3,0.3-0.5,0.5-0.6l0,0
		c0.3-0.3,0.6-0.4,1.3-0.6c0.5-0.1,1.2-0.2,2-0.2c1.3,0,3,0.3,4.9,1c1.9,0.7,4.1,1.7,6.3,3c4,2.4,8.2,6,12,10.4l5.9-5.1h0l-5.9,5.1
		c0.9,1.1,1.7,2.1,2.5,3.2c0,0.1-0.1,0.2-0.1,0.3c-1.2,3.7-2.1,7.4-2.5,11c-0.1,0.8-0.2,1.6-0.2,2.4c-3.7-0.3-7.6-0.2-11.5,0.3
		c-0.8,0.1-1.7,0.2-2.5,0.4c-0.9-0.9-1.9-1.9-2.8-3c-2.5-3-4.7-6-6.3-9c-2.5-4.5-3.9-8.9-4.3-12.2
		C549,1951.4,549,1949.9,549.2,1948.9z M615.2,1943c1.4-1,2.8-1.7,4.1-2.3c1.9-0.8,3.5-1.1,4.5-1.1c0.5,0,0.9,0,1.2,0.1
		c0.3,0.1,0.5,0.2,0.7,0.3l0,0l0,0c0.3,0.2,0.5,0.3,0.7,0.7c0.2,0.3,0.5,0.7,0.7,1.2c0.4,1,0.8,2.4,0.9,4.3
		c0.2,2.8-0.2,6.5-1.4,10.5c-1.2,4-3.1,8.4-5.7,12.7c0,0,0,0,0,0l0,0c-0.7,1.2-1.5,2.3-2.3,3.4c-4.9,0-9.6,0.5-14,1.5
		c-0.8-3.5-2.1-7-3.7-10.5c-0.4-0.9-0.9-1.8-1.3-2.6c0.6-1.2,1.3-2.4,2-3.6c2.3-3.7,4.9-7,7.5-9.7
		C611.2,1946,613.2,1944.3,615.2,1943z M600.2,1981.8c7.2,4.4,9.4,13.7,5,20.9c-4.4,7.2-13.7,9.4-20.9,5c-7.2-4.4-9.4-13.7-5-20.9
		C583.7,1979.7,593,1977.5,600.2,1981.8z M639.3,2015.8c-4.2,0.2-9.1-0.3-14.1-1.5c0,0,0,0,0,0h0c-1.3-0.3-2.7-0.7-3.9-1.1
		c-0.9-2.7-1.9-5.3-3-7.7c-0.8-1.8-1.8-3.5-2.8-5.1c3.2-1.9,6.2-4.2,9.1-7c0.6-0.6,1.3-1.2,1.9-1.9c1.3,0.2,2.7,0.5,4,0.8
		c5.7,1.4,10.8,3.5,14.8,5.9c2,1.2,3.7,2.5,5.1,3.8c2.1,1.9,3.4,3.8,4,5.1c0.3,0.7,0.4,1.2,0.5,1.6c0,0.4,0,0.7,0,1v0
		c-0.1,0.3-0.2,0.5-0.3,0.8c-0.2,0.3-0.4,0.6-0.9,1c-0.7,0.7-2,1.5-3.7,2.2C647.2,2014.8,643.5,2015.6,639.3,2015.8z M708.1,1836.2
		c1.5-6,3.5-11.3,5.8-16.4c3.5-7.6,7.9-14.6,12.7-21.8c2.4-3.5,4.9-7.1,7.5-10.8c11,19.7,19.4,39,25.3,57.4
		c7.1,22.1,10.4,42.7,10.4,60.7c0,9.8-1,18.8-2.9,26.8c-1.4,6-3.3,11.5-5.7,16.3c-3.5,7.3-8.1,13.1-13.5,17.7
		c-3.5,2.9-7.3,5.2-11.6,7c-2-4-4-8-6-12c0.1-0.2,0.1-0.4,0.2-0.6c0.5-1.6,1.2-3.5,1.8-5.7c0.2-0.6,0.3-1.1,0.5-1.7
		c0.2-0.6,0.3-1.2,0.5-1.9c0.3-1.3,0.6-2.7,1-4.1c0.7-2.9,1.5-6,2-9.3c0.6-3.3,1.3-6.7,1.7-10.3c0.2-1.8,0.4-3.6,0.7-5.5
		c0.2-1.9,0.5-3.7,0.6-5.6c0.3-3.8,0.6-7.7,0.7-11.6c0.1-3.9,0.3-7.8,0.2-11.6c0-3.8-0.2-7.6-0.4-11.2c-0.1-3.6-0.6-7.1-0.9-10.5
		c-0.3-3.3-0.8-6.4-1.3-9.3c-0.3-1.4-0.5-2.8-0.7-4.1c-0.3-1.3-0.5-2.5-0.8-3.7c-0.5-2.3-1-4.3-1.4-6c-0.4-1.7-0.9-2.9-1.1-3.8
		c-0.3-0.9-0.5-1.3-0.5-1.3s-0.1,0.5-0.3,1.4c-0.1,0.9-0.4,2.2-0.7,3.9c-0.3,1.7-0.7,3.7-1.1,6c-0.4,2.3-0.9,4.9-1.4,7.7
		c-1,5.6-2.2,12.1-3.5,19c-0.3,1.7-0.6,3.5-1,5.3c-0.4,1.8-0.7,3.6-1,5.4c-0.2,0.9-0.3,1.8-0.5,2.7c-0.2,0.9-0.4,1.8-0.5,2.7
		c-0.3,1.8-0.7,3.7-1,5.5c-0.7,3.7-1.5,7.3-2.1,10.9c-0.8,3.6-1.4,7.1-2,10.5c-0.3,1.7-0.7,3.4-1,5c-0.2,0.9-0.3,1.8-0.5,2.6
		c-0.5-1.1-1-2.2-1.5-3.3c-7.1-27-9.9-47.8-9.9-64.3C704.9,1853.2,706.1,1844.2,708.1,1836.2z M608.8,1857
		c-15.2,0-29.1-2.6-42.1-7.8c-9.8-4-19.1-9.5-28-16.7c-13.4-10.9-26-25.7-37.8-45.1c-9.3-15.2-18-33.2-26.2-54.1
		c3.3,0.6,6.6,1.1,10.1,1.6c6.3,0.7,13,1.2,19.9,1.6c12.1,0.7,25,1.3,38.1,3c9.9,1.3,19.8,3.1,29.7,6.1
		c14.8,4.4,29.2,11.2,42.8,22.1c13.4,10.8,26.1,25.8,37.1,46.9c0.7,2.2,1.3,4.5,2,6.7c-2.4-0.5-5.1-1.1-7.9-1.8
		c-0.8-0.2-1.6-0.4-2.5-0.6c-0.8-0.2-1.7-0.5-2.5-0.7c-0.9-0.2-1.7-0.4-2.6-0.7c-0.9-0.3-1.8-0.5-2.7-0.8c-0.9-0.3-1.8-0.5-2.8-0.8
		c-0.9-0.3-1.9-0.6-2.8-0.9c-0.9-0.3-1.9-0.6-2.9-0.9c-1-0.3-1.9-0.6-2.9-1c-2-0.6-3.9-1.4-6-2.1c-1-0.4-2-0.8-3-1.2
		c-1-0.4-2-0.8-3.1-1.2c-4.1-1.6-8.2-3.4-12.3-5.3c-4.1-1.9-8.2-3.8-12.3-5.8c-4.1-2-8.2-4-12.1-5.9c-3.9-2-7.8-3.8-11.6-5.5
		c-3.7-1.7-7.4-3.2-10.8-4.5c-3.4-1.2-6.7-2.2-9.6-2.9c-1.4-0.4-2.8-0.6-4.1-0.8c-1.3-0.2-2.5-0.3-3.5-0.4c-2.1-0.1-3.8-0.1-4.9-0.1
		c-1.1,0.1-1.7,0.1-1.7,0.1s0.6,0.2,1.6,0.6c0.5,0.2,1.2,0.4,1.9,0.7c0.7,0.3,1.6,0.7,2.5,1.1c0.9,0.5,1.9,0.9,3,1.5
		c1.1,0.6,2.2,1.2,3.4,1.9c0.6,0.4,1.2,0.7,1.8,1.1c0.6,0.4,1.3,0.8,1.9,1.3c1.3,0.9,2.7,1.8,4.1,2.8c2.8,2,5.7,4.3,8.9,6.7
		c3.2,2.4,6.5,5.1,10,7.8c3.5,2.7,7.2,5.5,11.1,8.2c3.9,2.7,7.9,5.4,12,7.9c4.2,2.5,8.4,4.9,12.8,7.1c4.3,2.2,8.7,4.1,13,5.8
		c2.2,0.8,4.3,1.7,6.4,2.4c1.1,0.4,2.1,0.7,3.2,1c1,0.3,2.1,0.6,3.1,0.9c1,0.3,2,0.6,3,0.9c1,0.3,2,0.5,3,0.8c1,0.2,1.9,0.5,2.9,0.7
		c0.9,0.2,1.9,0.4,2.8,0.6c1.8,0.3,3.6,0.8,5.2,1c1.7,0.2,3.3,0.5,4.8,0.7c3,0.4,5.8,0.6,7.9,0.8c0.3,0,0.6,0,0.8,0
		c0.7,2.1,1.4,4.1,2,6.2C643.3,1853.9,625.3,1857,608.8,1857z M996.5,2331.1c-8.2,10.3-20,18.9-34.5,24.9c-14.4,6-31.5,9.4-50.2,9.4
		c-39.6,0-86-15.2-128.9-52.4c1.9-1.1,3.7-2.4,5.4-3.7c4.9-3.6,9.4-7.8,13.6-12.3c7.4-7.8,14-16.6,20.5-25.2
		c4.9-6.5,9.7-12.9,14.6-18.8c7.4-8.9,15.1-16.7,23.6-22c4.2-2.7,8.6-4.8,13.4-6.3c4.7-1.5,9.8-2.3,15.4-2.3c2.3,0,4.7,0.1,7.2,0.4
		c18.9,18.4,38.2,35.6,57.7,51.7c-1.9,0.1-3.8,0.2-5.8,0.5c-4,0.6-8.2,1.5-12.2,2.9c-4,1.4-7.9,3.2-11.4,5.1
		c-3.5,1.9-6.7,3.9-9.8,5.6c-3.1,1.8-6.1,3.3-9.1,4.6c-3,1.3-6,2.4-9,3.2c-1.5,0.4-2.9,0.8-4.4,1.2c-1.4,0.3-2.8,0.7-4.2,0.9
		c-1.4,0.2-2.7,0.5-3.9,0.7c-1.3,0.2-2.5,0.3-3.6,0.5c-2.3,0.3-4.3,0.5-5.9,0.7c-3.3,0.3-5.2,0.5-5.2,0.5s1.8,0.6,5.1,1.5
		c1.6,0.4,3.6,0.9,5.9,1.4c1.2,0.2,2.4,0.4,3.7,0.7c1.3,0.2,2.7,0.4,4.2,0.6c1.5,0.2,3,0.2,4.6,0.4c1.6,0.1,3.3,0.1,5,0.1
		c3.5-0.1,7.2-0.5,11-1.1c3.8-0.6,7.6-1.8,11.4-3c3.7-1.2,7.3-2.5,10.7-3.7c3.4-1.1,6.6-2,9.7-2.5c3.1-0.6,6.2-0.9,9.2-1
		c3-0.1,6,0,8.9,0.2c2.9,0.2,5.6,0.5,8.2,0.8c2.6,0.2,5,0.7,7.1,0.9c2.1,0.3,4,0.6,5.5,0.8c1.6,0.3,2.9,0.4,3.8,0.6
		c2,1.5,4,3,5.9,4.5c5.5,4.1,11,8.1,16.6,12C1004,2320.2,1000.7,2325.9,996.5,2331.1z M1182.3,2337.8c-9.6-18.2-14-36.4-14-54.6
		c0-14.7,2.9-29.3,8.3-43.6c0.8,1.2,1.6,2.4,2.5,3.7c8.6,12.2,19.9,23.9,32.1,35.8c9.1,8.9,18.7,17.8,28,26.7
		c13.8,13.4,26.8,26.9,36.1,40.3c4.6,6.7,8.3,13.3,10.8,19.8c2.5,6.5,3.8,12.8,3.8,19.1c0,6.4-1.3,12.8-4.5,19.6
		c-1.3,2.8-3,5.7-5,8.7c-0.1-0.2-0.1-0.4-0.2-0.7c-0.5-1.5-1.1-3-1.6-4.7c-0.6-1.6-1.2-3.3-1.9-5c-0.7-1.7-1.4-3.5-2.2-5.3
		c-0.4-0.9-0.8-1.8-1.2-2.8c-0.4-0.9-0.8-1.9-1.3-2.8c-1-1.9-1.9-3.8-3-5.7c-2.1-3.9-4.4-7.8-7.1-11.6c-1.3-1.9-2.8-3.8-4.2-5.7
		c-1.5-1.8-3-3.7-4.6-5.4c-3.2-3.5-6.5-6.9-9.9-9.9c-3.4-3-6.8-5.7-9.9-8.3c-3.1-2.6-6-5-8.3-7.5c-2.4-2.5-4.5-5.1-6.1-7.7
		c-0.9-1.3-1.6-2.6-2.3-3.9c-0.7-1.3-1.3-2.5-1.9-3.7c-0.5-1.2-1-2.4-1.5-3.4c-0.4-1.1-0.8-2.1-1.1-3c-0.7-1.8-1.2-3.3-1.5-4.3
		c-0.3-1-0.5-1.5-0.5-1.5s-0.1,0.6-0.2,1.6c-0.1,0.5-0.1,1.2-0.2,2c0,0.4-0.1,0.8-0.1,1.3c0,0.4,0,0.9,0,1.4c0,1-0.1,2.1-0.1,3.3
		c0,1.2,0.1,2.5,0.2,4c0.3,2.8,0.6,6.1,1.7,9.6c1,3.5,2.4,7.3,4.5,11c2.1,3.7,4.6,7.3,7.3,10.7c1.3,1.7,2.6,3.3,4,5
		c1.3,1.6,2.6,3.3,3.9,4.9c2.6,3.2,4.9,6.6,7.2,9.9c2.2,3.4,4.3,6.8,6.2,10.3c0.5,0.9,1,1.7,1.5,2.6c0.5,0.9,0.9,1.8,1.4,2.6
		c0.9,1.7,1.8,3.5,2.6,5.2c0.8,1.7,1.7,3.5,2.5,5.1c0.8,1.7,1.5,3.4,2.3,5c0.8,1.6,1.4,3.2,2.1,4.8c0,0.1,0.1,0.1,0.1,0.2
		c-10.5-6.5-19.9-13.1-28.3-19.9C1206.9,2374,1191.9,2356,1182.3,2337.8z M1419.7,2483.4c1.4,5,2.1,9.8,2.1,14.1
		c0,4.3-0.6,8-1.6,10.6c-0.7,1.9-1.5,3.1-2.2,3.9c-0.3,0.4-0.6,0.6-0.9,0.8c-0.3,0.2-0.5,0.3-0.7,0.3c-0.3,0.1-0.5,0.1-0.9,0.1
		c-0.4,0-0.9-0.1-1.5-0.3c-1-0.4-2.3-1.1-3.8-2.3c-2.2-1.8-4.6-4.6-6.8-8.2c-2.2-3.6-4.1-7.9-5.5-12.7l0,0c-0.4-1.3-0.7-2.7-1-4
		c0.7-0.8,1.4-1.5,2-2.3c2.5-2.9,4.6-5.9,6.3-9.1c2.4,1.4,5,2.6,7.8,3.6c1.7,0.6,3.4,1.2,5.3,1.6
		C1418.8,2480.8,1419.3,2482.1,1419.7,2483.4z M1347.5,2488.5c-0.6-0.2-1.1-0.5-1.4-0.7c-0.3-0.2-0.5-0.4-0.6-0.7
		c-0.1-0.2-0.2-0.4-0.3-0.7c-0.1-0.4-0.2-1.1-0.2-2c0.1-0.9,0.3-2.1,0.8-3.5c1-2.6,2.8-5.9,5.6-9.1c2.8-3.3,6.4-6.5,10.7-9.4v0
		c1.2-0.8,2.3-1.5,3.5-2.2c1.7,0.8,3.4,1.5,5.1,2.1c2.8,1,5.5,1.8,8.3,2.3c-0.7,3.5-1,7.2-1,11c0,1,0,2,0.1,3.1
		c-1.1,0.8-2.2,1.6-3.3,2.4c-5.5,3.7-11.3,6.2-16.2,7.3c-2.5,0.6-4.7,0.8-6.6,0.8C1350,2489.2,1348.5,2488.9,1347.5,2488.5z
		 M1347.8,2412.4c0.1-0.3,0.2-0.5,0.4-0.7l0,0c0.2-0.3,0.5-0.6,1.1-0.9c0.5-0.2,1.1-0.4,1.9-0.6c1.3-0.2,3-0.3,5,0
		c2,0.3,4.3,0.8,6.8,1.7c4.4,1.6,9.2,4.2,13.8,7.9v0c1.1,0.9,2.1,1.7,3.1,2.6c0,0.1,0,0.2,0,0.3c-0.5,3.9-0.6,7.7-0.3,11.3
		c0.1,0.8,0.2,1.6,0.3,2.4c-3.7,0.4-7.5,1.3-11.3,2.6c-0.8,0.3-1.6,0.6-2.4,0.9c-1.1-0.7-2.2-1.5-3.3-2.4h0c-3.1-2.4-5.8-5-8-7.6
		c-3.3-3.9-5.6-7.9-6.7-11.1c-0.5-1.6-0.8-3-0.8-4.1C1347.4,2413.6,1347.6,2412.9,1347.8,2412.4z M1411,2396c1.2-1.2,2.4-2.3,3.6-3
		c1.7-1.2,3.2-1.8,4.2-2c0.5-0.1,0.9-0.1,1.2-0.1c0.3,0,0.5,0.1,0.8,0.2c0.3,0.1,0.5,0.2,0.8,0.5c0.3,0.2,0.6,0.6,0.9,1.1
		c0.6,0.9,1.2,2.2,1.7,4.1c0.7,2.7,1,6.4,0.7,10.6c-0.3,4.2-1.4,8.8-3.1,13.6c-0.5,1.3-1,2.6-1.6,3.8c-4.8,0.9-9.3,2.3-13.4,4.3
		c-1.5-3.3-3.4-6.5-5.7-9.6c-0.6-0.8-1.2-1.6-1.8-2.3c0.4-1.3,0.8-2.6,1.3-3.9l0,0c1.5-4.1,3.4-7.8,5.5-11
		C1407.7,2399.7,1409.4,2397.6,1411,2396z M1393.5,2465.6c-7.9-2.9-11.9-11.6-9.1-19.5s11.6-11.9,19.5-9.1
		c7.9,2.9,11.9,11.6,9.1,19.5C1410.1,2464.4,1401.4,2468.4,1393.5,2465.6z M1462.8,2454.4c-0.1,0.3-0.3,0.7-0.7,1.2
		c-0.6,0.8-1.6,1.9-3.2,2.9c-2.3,1.6-5.8,3.1-9.9,4c-4.1,1-9,1.5-14.1,1.3c-1.4,0-2.7-0.2-4.1-0.3c-1.4-2.5-2.9-4.8-4.5-7
		c-1.2-1.6-2.4-3.1-3.7-4.4c2.7-2.5,5.2-5.4,7.5-8.6c0.5-0.7,1-1.4,1.5-2.2c1.3,0,2.7-0.1,4.1,0c5.8,0.2,11.2,1.3,15.6,2.9
		c2.2,0.8,4.1,1.7,5.7,2.7c2.4,1.4,4.1,3,4.9,4.2c0.4,0.6,0.7,1.1,0.8,1.5c0.1,0.4,0.2,0.7,0.2,1
		C1462.9,2453.8,1462.9,2454.1,1462.8,2454.4z M2219.1,2166.4c8.1-7.9,17.7-13.6,29-17.5c11.3-3.8,24.3-5.7,38.9-5.7
		c9.1,0,18.7,0.7,28.9,2.2c11.8,1.7,23.1,2.3,33.6,2.3c27.6,0,50.3-4.8,66.3-9.5c0.1,0,0.3-0.1,0.4-0.1c-3.3,5.3-7.1,11.3-11.5,18
		c-15.7,24-38.5,56-66.8,88.3c-10.6,12.2-21.8,20.7-32.8,26.2c-11.1,5.5-22.2,7.9-33,7.9c-8.3,0-16.4-1.5-24.3-4.3
		c-11.8-4.2-22.8-11.4-32.5-21.1c-5.6-5.6-10.7-12.1-15.1-19.4c1.2,0,2.4,0,3.6,0c3.7,0,7.3,0.1,11,0c3.7-0.1,7.5-0.3,11.2-0.4
		c1.9-0.1,3.8-0.3,5.6-0.5c1.9-0.2,3.7-0.4,5.6-0.6c3.7-0.5,7.4-1.2,11.1-1.8l1.4-0.3l1.4-0.3c0.9-0.2,1.8-0.4,2.7-0.7
		c1.8-0.4,3.5-0.9,5.3-1.4l1.3-0.4l1.3-0.4c0.8-0.3,1.7-0.6,2.5-0.9c1.7-0.6,3.3-1.2,4.9-1.8c1.6-0.5,3.2-1.3,4.7-2
		c1.5-0.7,3-1.4,4.5-2.1c0.7-0.3,1.5-0.7,2.2-1c0.7-0.4,1.4-0.7,2.1-1.1c1.4-0.7,2.7-1.5,4-2.2c1.3-0.7,2.6-1.5,3.9-2.2
		c1.2-0.7,2.4-1.5,3.6-2.3c1.2-0.7,2.3-1.5,3.4-2.2c1.1-0.7,2.2-1.5,3.2-2.1c2.1-1.4,4-2.9,5.8-4.2c1.8-1.3,3.4-2.6,5-3.8
		c1.5-1.2,2.9-2.4,4.1-3.4c2.5-2,4.4-3.7,5.6-4.9c0.6-0.6,1.1-1,1.5-1.3c0.3-0.3,0.5-0.5,0.5-0.5s-0.9,0.3-2.5,0.8
		c-1.6,0.5-4,1.3-6.9,2.3c-3,1-6.6,2.3-10.7,3.7c-2.1,0.7-4.2,1.5-6.5,2.3c-2.3,0.8-4.7,1.5-7.2,2.4c-1.3,0.4-2.5,0.8-3.8,1.3
		c-1.3,0.4-2.6,0.8-4,1.2c-1.4,0.4-2.7,0.8-4.1,1.2c-0.7,0.2-1.4,0.4-2.1,0.6c-0.7,0.2-1.4,0.3-2.2,0.5c-1.4,0.3-2.9,0.7-4.4,1.1
		c-1.5,0.4-2.9,0.8-4.5,1c-1.5,0.3-3,0.6-4.6,0.8c-0.8,0.1-1.5,0.3-2.3,0.4l-1.2,0.2l-1.2,0.1c-1.6,0.2-3.2,0.3-4.8,0.6
		c-0.8,0.1-1.6,0.2-2.4,0.3l-1.2,0.2l-1.2,0.1c-1.6,0.1-3.3,0.2-4.9,0.3c-0.8,0.1-1.6,0.1-2.5,0.2c-0.8,0.1-1.7,0.1-2.5,0.1
		c-1.7,0-3.4,0-5.1,0c-1.7,0-3.4,0.1-5.1,0.1c-3.4-0.1-6.9-0.2-10.3-0.2c-3.5-0.1-7-0.4-10.4-0.6c-1.7-0.1-3.5-0.2-5.2-0.3
		c-1.4-0.1-2.8-0.2-4.2-0.3c2.5-9.1,5.8-17.2,9.6-24.1C2208.9,2177.9,2213.6,2171.6,2219.1,2166.4z M2126,2128.3
		c-6.8-9.4-13.9-18.8-19.2-28.1c-2.6-4.6-4.7-9.2-6.2-13.7c-1.5-4.5-2.2-8.9-2.2-13.2c0-4.5,0.8-9,2.8-13.9c2-4.8,5.3-10,10.3-15.5
		c25.2-28,41.7-57.4,51.9-79.9c1.9-4.2,3.6-8.2,5.1-11.9c0.7,2.2,1.5,4.6,2.3,6.9c2.9,8.9,6.2,18.5,9.3,27.3
		c1.6,4.4,3.1,8.6,4.6,12.4c1.5,3.8,2.9,7.2,4.3,10.2c1.2,2.6,2.6,5.6,4,9c4.2,10.1,8.5,23.4,8.5,38.5c0,10.1-1.9,21-7,32.7
		c-8.6,12-17.5,23.8-26.6,35.3c0-0.5,0-1.1,0-1.6c0.1-4.3,0.1-8.7-0.2-13.3c-0.2-4.6-0.4-9.2-0.9-13.9c-0.4-4.7-0.9-9.4-1.3-14.2
		c-0.5-4.7-1-9.4-1.5-14c-0.2-2.3-0.5-4.6-0.7-6.8c-0.2-2.2-0.5-4.5-0.6-6.6c-0.3-4.4-0.7-8.6-0.9-12.6c-0.1-4-0.3-7.8-0.2-11.2
		c0-0.9,0-1.7,0-2.6c0-0.8,0.1-1.6,0.1-2.4c0-1.6,0.2-3.1,0.3-4.5c0.1-1.4,0.3-2.7,0.4-4c0.1-0.6,0.1-1.2,0.2-1.8
		c0.1-0.6,0.2-1.1,0.3-1.6c0.2-1,0.3-1.9,0.5-2.7c0.2-0.8,0.3-1.5,0.5-2c0.3-1.1,0.4-1.7,0.4-1.7s-0.4,0.5-1,1.4
		c-0.3,0.5-0.8,1-1.2,1.7c-0.5,0.7-0.9,1.5-1.5,2.4c-0.3,0.5-0.6,1-0.9,1.5c-0.3,0.5-0.5,1.1-0.8,1.7c-0.6,1.2-1.2,2.4-1.8,3.8
		c-0.6,1.4-1.2,2.9-1.8,4.5c-0.3,0.8-0.6,1.6-0.9,2.5c-0.2,0.9-0.5,1.7-0.8,2.6c-1.1,3.6-2,7.5-2.7,11.7c-0.7,4.2-1.5,8.6-1.9,13.2
		c-0.5,4.6-0.9,9.3-1.1,14c-0.2,4.8-0.4,9.6-0.5,14.4c0,4.8-0.1,9.5-0.1,14.2c0,2.3-0.1,4.6,0,6.9c0,2.3,0,4.5,0,6.7
		c0,2.2,0,4.3-0.1,6.4c0,2.1,0,4.1-0.1,6.1c-0.1,3.9-0.2,7.6-0.4,10.9c-0.1,1.7-0.2,3.2-0.4,4.7c-0.1,0.7-0.1,1.5-0.2,2.2
		c-0.1,0.7-0.2,1.4-0.2,2c-0.1,0.6-0.2,1.3-0.2,1.9c-0.1,0.6-0.2,1.2-0.3,1.7c-0.1,0.5-0.2,1.1-0.2,1.6c-0.1,0.5-0.2,0.9-0.2,1.3
		c-0.2,0.8-0.3,1.5-0.4,2.2c-0.2,0.8-0.4,1.5-0.5,2c0,0.1,0,0.2-0.1,0.3c-0.6,0.7-1.2,1.4-1.8,2.1c-1.1-2.6-2.4-5.1-3.7-7.6
		C2135,2140.9,2130.6,2134.6,2126,2128.3z M2075.7,2249.5c0.5-0.1,0.9-0.1,1.2-0.1c0.3,0,0.5,0.1,0.8,0.2l0,0
		c0.3,0.1,0.5,0.2,0.8,0.5c0.3,0.2,0.6,0.6,0.9,1.1c0.6,0.9,1.2,2.2,1.7,4.1c0.7,2.7,1,6.4,0.7,10.6c-0.3,4.2-1.4,8.8-3.1,13.6l0,0
		c0,0,0,0,0,0v0c-0.5,1.3-1,2.6-1.6,3.8c-4.8,0.9-9.3,2.3-13.4,4.3c-1.5-3.3-3.4-6.5-5.7-9.6c-0.6-0.8-1.2-1.6-1.8-2.3
		c0.4-1.3,0.8-2.6,1.3-3.9c1.5-4.1,3.4-7.8,5.5-11c1.5-2.4,3.2-4.4,4.8-6.1c1.2-1.2,2.4-2.3,3.6-3
		C2073.1,2250.3,2074.6,2249.7,2075.7,2249.5z M2076.6,2342c1.4,5,2.1,9.8,2.1,14.1c0,4.3-0.6,8-1.6,10.6c-0.7,1.9-1.5,3.1-2.2,3.9
		c-0.3,0.4-0.6,0.6-0.9,0.8c-0.3,0.2-0.5,0.3-0.7,0.3c-0.3,0.1-0.5,0.1-0.9,0.1c-0.4,0-0.9-0.1-1.5-0.3c-1-0.4-2.3-1.1-3.8-2.3
		c-2.2-1.8-4.6-4.6-6.8-8.2c-2.2-3.6-4.1-7.9-5.5-12.7v0c-0.4-1.3-0.7-2.7-1-4c0.7-0.8,1.4-1.5,2-2.3c2.5-2.9,4.6-5.9,6.3-9.1
		c2.4,1.4,5,2.6,7.8,3.6c1.7,0.6,3.4,1.2,5.3,1.6C2075.7,2339.4,2076.2,2340.7,2076.6,2342z M2004.4,2347.1
		c-0.6-0.2-1.1-0.5-1.4-0.7c-0.3-0.2-0.5-0.4-0.6-0.7c-0.1-0.2-0.2-0.4-0.3-0.7c-0.1-0.4-0.2-1.1-0.2-2c0.1-0.9,0.3-2.1,0.8-3.5
		c1-2.6,2.8-5.9,5.6-9.1c2.8-3.3,6.4-6.5,10.7-9.4c1.2-0.8,2.3-1.5,3.5-2.2c1.7,0.8,3.4,1.5,5.1,2.1c2.8,1,5.5,1.8,8.3,2.3
		c-0.7,3.5-1,7.2-1,11c0,1,0,2,0.1,3.1c-1.1,0.8-2.2,1.6-3.3,2.4l0,0c-5.5,3.7-11.3,6.2-16.2,7.3c-2.5,0.6-4.7,0.8-6.6,0.8
		C2006.9,2347.8,2005.4,2347.5,2004.4,2347.1z M2019.9,2296.2L2019.9,2296.2c-3.1-2.4-5.8-5-8-7.6c-3.3-3.9-5.6-7.9-6.7-11.1
		c-0.5-1.6-0.8-3-0.8-4.1c0-1.1,0.1-1.8,0.3-2.3c0.1-0.3,0.2-0.5,0.4-0.7h0c0.2-0.3,0.5-0.6,1.1-0.9c0.5-0.2,1.1-0.4,1.9-0.6
		c1.3-0.2,3-0.3,5,0c2,0.3,4.3,0.8,6.8,1.7c4.4,1.6,9.2,4.2,13.8,7.9c1.1,0.9,2.1,1.7,3.1,2.6c0,0.1,0,0.2,0,0.3
		c-0.5,3.9-0.6,7.7-0.3,11.3c0.1,0.8,0.2,1.6,0.3,2.4c-3.7,0.4-7.5,1.3-11.3,2.6c-0.8,0.3-1.6,0.6-2.4,0.9
		C2022.1,2297.8,2021,2297,2019.9,2296.2z M2069.9,2315.1c-2.9,7.9-11.6,11.9-19.5,9.1s-11.9-11.6-9.1-19.5s11.6-11.9,19.5-9.1
		C2068.7,2298.5,2072.8,2307.2,2069.9,2315.1z M2119.9,2312.2c0,0.3-0.1,0.5-0.2,0.8c-0.1,0.3-0.3,0.7-0.7,1.2
		c-0.6,0.8-1.6,1.9-3.2,2.9c-2.3,1.6-5.8,3.1-9.9,4c-4.1,1-9,1.5-14.1,1.3h0c-1.4,0-2.7-0.2-4.1-0.3c-1.4-2.5-2.9-4.8-4.5-7
		c-1.2-1.6-2.4-3.1-3.7-4.4c2.7-2.5,5.2-5.4,7.5-8.6c0.5-0.7,1-1.4,1.5-2.2c1.3,0,2.7-0.1,4.1,0c5.8,0.2,11.2,1.3,15.6,2.9
		c2.2,0.8,4.1,1.7,5.7,2.7c2.4,1.4,4.1,3,4.9,4.2c0.4,0.6,0.7,1.1,0.8,1.5C2119.8,2311.6,2119.9,2311.9,2119.9,2312.2L2119.9,2312.2
		z M1692.2,2258.3L1692.2,2258.3L1692.2,2258.3L1692.2,2258.3z M1623.9,2364.3c1-5.9,2.8-11.9,6.1-18c3.2-6.1,7.9-12.5,14.7-19.2
		c27-26.6,42.7-43.1,51.7-53.1c0.3-0.3,0.5-0.6,0.8-0.8c0.9,3.1,1.9,6.6,2.9,10.5c3.8,15.2,7.6,35.6,7.6,56.1
		c0,5.2-0.2,10.3-0.8,15.4c-1.2,11.4-3.9,22-8.3,31.7c-3.3,7.3-7.6,14.1-13,20.4c-8.1,9.4-18.6,17.6-32.3,24.3
		c-2.3,1.2-4.8,2.3-7.3,3.3c0,0,0,0,0,0c0.6-0.8,1.3-1.6,1.9-2.5c2.5-3.4,5.1-7,7.3-11c1.1-1.9,2.1-4,3.1-6.1
		c0.9-2.1,1.9-4.2,2.6-6.3c1.6-4.3,2.8-8.6,3.7-12.9c0.9-4.2,1.5-8.4,2.1-12.3c0.6-3.9,1-7.6,1.5-11c0.5-3.4,1.1-6.6,1.7-9.5
		c0.4-1.4,0.7-2.8,1.1-4.1c0.3-1.3,0.8-2.6,1.2-3.7c0.4-1.2,0.9-2.2,1.2-3.3c0.4-1,0.8-1.9,1.2-2.8c0.7-1.7,1.4-3,1.8-3.8
		c0.4-0.9,0.7-1.4,0.7-1.4s-0.4,0.3-1.2,0.9c-0.8,0.6-2,1.5-3.3,2.8c-0.7,0.6-1.5,1.3-2.3,2.2c-0.8,0.8-1.7,1.7-2.5,2.8
		c-1.7,2-3.5,4.5-5.2,7.3c-1.7,2.8-3.4,6-4.8,9.5c-1.5,3.4-2.9,7-4.2,10.7c-1.3,3.7-2.8,7.3-4.2,10.9c-1.5,3.6-3.1,7-4.9,10.3
		c-0.9,1.7-1.8,3.3-2.8,4.9c-1,1.5-2,3.1-3,4.6c-1,1.5-2.2,2.9-3.2,4.4c-1.1,1.4-2.2,2.8-3.4,4.2c-1.7,1.9-3.3,3.7-4.9,5.4
		c0-0.9,0.1-1.8,0.1-2.7c0-8-1.2-15.8-2.2-23.4c-1.1-7.7-2-15.3-2-22.8C1622.9,2372.2,1623.2,2368.2,1623.9,2364.3z M1486.1,2387.8
		c-6.1-5.2-11.4-11.5-15.9-19c-6.8-11.3-11.8-25.3-15-41.8c-3.3-16.5-4.8-35.4-4.8-56.4c0-5.3,0.1-10.8,0.3-16.4
		c14.1,5.5,26.3,11.3,36.7,17.6c9.8,5.9,17.9,12,24.7,18.5c10.1,9.7,17,19.9,21.5,30.8c4.5,10.9,6.6,22.7,6.6,35.5
		c0,10.4-1.4,21.4-4,33.1c-0.1-0.2-0.2-0.3-0.3-0.5c-1.9-3-3.9-5.8-5.8-8.7l-5.9-8.5c-2-2.8-4-5.6-6-8.4c-2-2.8-4-5.6-5.9-8.4
		c-2-2.8-3.9-5.5-5.8-8.3c-0.9-1.4-1.9-2.8-2.8-4.2l-1.4-2.1l-1.3-2.1c-1.8-2.9-3.4-5.8-5-8.8c-0.7-1.5-1.5-3-2.2-4.5
		c-0.7-1.5-1.4-3.1-2-4.7c-0.3-0.8-0.6-1.6-0.9-2.4c-0.3-0.8-0.5-1.6-0.8-2.4c-0.1-0.4-0.3-0.8-0.4-1.2l-0.3-1.3l-0.7-2.5l-0.2,2.6
		l-0.1,1.3l0,1.3c0,0.9,0,1.8,0,2.7c0,0.9,0.1,1.8,0.2,2.7c0.2,3.6,0.9,7,1.7,10.6c0.8,3.5,1.8,6.9,2.9,10.3c1.1,3.4,2.4,6.7,3.7,10
		c1.3,3.3,2.8,6.5,4.2,9.7c1.5,3.2,3,6.3,4.6,9.4c1.6,3.1,3.1,6.2,4.7,9.3l4.8,9.1c1.6,3,3.1,6.1,4.7,9.1c0.9,1.8,1.8,3.5,2.7,5.3
		c-2.2-0.4-4.3-0.8-6.4-1.3C1504.1,2399.7,1494.3,2394.7,1486.1,2387.8z M1564,2500.1l0,1l-0.1,1.1c-0.1,1.4-0.2,2.8-0.4,4.2
		l-0.3,2.1l-0.4,2.1l-0.4,2.1l-0.5,2.1c-0.2,0.7-0.3,1.4-0.5,2.1l-0.6,2.1c-0.2,0.7-0.4,1.4-0.6,2.1l-0.7,2.1l-0.7,2.1l-0.8,2.1
		l-0.8,2.1l-0.9,2.1c-0.6,1.4-1.2,2.7-1.9,4.1c-1.3,2.7-2.7,5.4-4.2,8l-2.3,3.9c-0.8,1.3-1.6,2.6-2.4,3.9c-0.8,1.3-1.7,2.5-2.5,3.8
		c-0.9,1.3-1.7,2.5-2.6,3.7l-2.7,3.7l-2.8,3.6c-0.9,1.2-1.9,2.4-2.9,3.6c-1,1.2-2,2.4-3,3.5l-3,3.4c0-0.1-0.1-0.3-0.1-0.4l-1.5-4.6
		c-1.1-3-1.8-6.1-2.7-9.2c-0.9-3.1-1.5-6.1-2.3-9.2l-0.5-2.3c-0.2-0.8-0.3-1.5-0.4-2.3l-0.8-4.6c-0.3-1.5-0.4-3.1-0.6-4.6l-0.5-4.6
		l-0.2-4.6l-0.1-2.3c0-0.8,0-1.5,0-2.3l0.1-4.5l0.4-4.5c0.1-1.5,0.4-2.9,0.6-4.4l0.3-2.2c0.2-0.7,0.3-1.4,0.5-2.1
		c0.4-1.4,0.6-2.9,1.1-4.2l0.7-2.1l0.3-1c0.1-0.3,0.3-0.7,0.4-1l0.8-2c0.3-0.7,0.5-1.3,0.9-1.9l1-1.9c0.3-0.6,0.6-1.3,1-1.8l1.1-1.8
		c0.2-0.3,0.4-0.6,0.6-0.9l0.6-0.8c0.8-1.1,1.6-2.3,2.6-3.3l1.4-1.6l1.5-1.5c0.9-1,2.1-1.9,3.1-2.8c2.2-1.7,4.5-3.4,7-4.7
		c2.5-1.4,5-2.6,7.7-3.6l2-0.7c0.7-0.2,1.3-0.4,2-0.6c0,0,0.1,0,0.1,0c0.9,0.8,1.7,1.7,2.5,2.6c1.5,1.9,3,3.9,4,6.2l0.4,0.8l0.4,0.9
		l0.7,1.8l0.6,1.9c0.1,0.3,0.2,0.6,0.3,0.9l0.2,1l0.5,1.9l0.3,2l0.2,1l0.1,1l0.2,2c0.1,1.4,0.1,2.7,0.1,4.1L1564,2500.1z
		 M1706.3,2529.5c1,1.8,2,3.6,3.2,5.4c-4.6,0.8-9.1,1.2-13.5,1.2c-9.4,0-18.2-1.8-26.2-5.2c-6.1-2.6-11.7-6.1-16.9-10.5
		c-7.8-6.7-14.6-15.5-19.9-26.5c-4.3-8.9-7.6-19.3-9.7-31.1c18-2.6,35.8-5.8,53.4-9.6c3.4,1.1,6,2.4,7.9,3.8c2,1.5,3.4,3,4.6,4.9
		c1,1.6,1.9,3.5,2.6,5.8c1.3,3.9,2.1,9,2.8,14.7c1.1,8.7,1.9,19,5.1,30C1701.1,2518.1,1703.3,2523.8,1706.3,2529.5z M1890.3,2385.7
		c5.7,0,10.6,0.9,14.9,2.3c3.8,1.3,7.2,3,10.3,5.2c5.5,3.8,10.4,8.8,15.1,14.6c3.5,4.3,6.8,8.9,10.1,13.6c2.5,3.5,5.1,7,7.8,10.3
		c4.1,5,8.6,9.7,14.3,13.3c2.5,1.6,5.3,3,8.2,4c-1.5,1.4-3.1,2.9-4.7,4.2c-9.3,7.8-20.7,14.3-33.3,18.9c-12.6,4.6-26.3,7.2-40.1,7.1
		c-9.4,0-18.9-1.2-28.2-3.8c-13.9-3.9-27.4-10.8-39.5-21.5c-10.3-9.1-19.7-20.9-27.7-36.1c8.6-3.2,17.2-6.6,25.7-10.1
		c0.7,0.8,1.4,1.7,2.2,2.7c0.7,0.7,1.2,1.5,2,2.3c0.8,0.8,1.7,1.7,2.6,2.6c1.8,1.8,3.7,3.7,5.9,5.6c2.2,1.8,4.5,3.8,6.9,5.6
		c1.2,1,2.5,1.8,3.8,2.8c1.3,0.9,2.6,1.8,4,2.7c1.3,0.9,2.8,1.7,4.2,2.6c1.4,0.8,2.9,1.6,4.3,2.5c2.9,1.5,5.9,3,8.9,4.3
		c1.5,0.6,3,1.2,4.5,1.8c0.7,0.3,1.5,0.6,2.2,0.9c0.7,0.3,1.5,0.5,2.2,0.8c1.5,0.5,2.9,1,4.4,1.4c1.4,0.4,2.9,0.7,4.3,1.1
		c2.7,0.8,5.4,1.1,7.9,1.6c2.5,0.3,4.7,0.6,6.8,0.7c2,0.2,3.8,0.1,5.2,0.1c1.5,0,2.6-0.2,3.4-0.2c0.8-0.1,1.2-0.2,1.2-0.2
		s-0.4-0.2-1.1-0.5c-0.7-0.3-1.7-0.9-2.9-1.5c-1.2-0.7-2.7-1.5-4.4-2.5c-0.8-0.5-1.7-1-2.6-1.6c-0.9-0.6-1.9-1.1-2.9-1.7
		c-1-0.6-2-1.3-3.1-2c-0.5-0.3-1.1-0.7-1.6-1c-0.5-0.4-1.1-0.7-1.6-1.1c-1.1-0.7-2.2-1.5-3.4-2.3c-1.1-0.8-2.3-1.6-3.5-2.4
		c-2.4-1.5-4.6-3.5-7.1-5.2c-1.2-0.9-2.3-1.9-3.5-2.8c-1.2-0.9-2.4-1.8-3.5-2.8c-2.3-1.9-4.7-3.8-6.9-5.7c-2.2-2-4.5-3.7-6.6-5.6
		c-2-1.9-4.1-3.7-6.1-5.3c-1-0.8-1.8-1.7-2.7-2.5c-0.9-0.8-1.7-1.5-2.6-2.3c-0.5-0.4-1-0.9-1.5-1.3c4.8-2.1,9.7-4.3,14.5-6.5
		C1870.7,2387.7,1881.5,2385.7,1890.3,2385.7z M2037.6,2353.1L2037.6,2353.1L2037.6,2353.1z"/>
	<circle class="st0" cx="734.7" cy="1075" r="22.3"/>
	<circle class="st0" cx="561.4" cy="1176.1" r="13.7"/>
	<circle class="st0" cx="574.5" cy="1300.4" r="13.7"/>
	<circle class="st0" cx="458.9" cy="1597.3" r="13.7"/>
	<circle class="st0" cx="538.9" cy="1663.1" r="13.7"/>
	<circle class="st0" cx="690.4" cy="1746.9" r="13.7"/>
	<circle class="st0" cx="525.2" cy="1906.9" r="13.7"/>
	<circle class="st0" cx="560.8" cy="1587.3" r="13.7"/>
	<circle class="st0" cx="715.8" cy="1561.5" r="13.7"/>
	<circle class="st0" cx="750.3" cy="1500.2" r="13.7"/>
	<circle class="st0" cx="786.2" cy="1425.7" r="13.7"/>
	<circle class="st0" cx="690.4" cy="2152.5" r="13.7"/>
	<circle class="st0" cx="831.1" cy="1976.9" r="13.7"/>
	<circle class="st0" cx="905.6" cy="2419.8" r="13.7"/>
	<circle class="st0" cx="1090.3" cy="2423.9" r="13.7"/>
	<circle class="st0" cx="1104" cy="2310.6" r="13.7"/>
	<circle class="st0" cx="1138" cy="2428.7" r="13.7"/>
	<circle class="st0" cx="946.1" cy="2315.6" r="10"/>
	<circle class="st0" cx="905.6" cy="2325.7" r="10"/>
	<circle class="st0" cx="997.2" cy="2213.5" r="10"/>
	<circle class="st0" cx="1047" cy="2203.5" r="10"/>
	<circle class="st0" cx="1763.3" cy="2461.5" r="13.7"/>
	<circle class="st0" cx="1782.6" cy="2255" r="13.7"/>
	<circle class="st0" cx="1923.9" cy="2241.3" r="13.7"/>
	<circle class="st0" cx="1951.3" cy="2183.5" r="13.7"/>
	<circle class="st0" cx="2019.7" cy="2143.5" r="13.7"/>
	<circle class="st0" cx="2276.3" cy="2251.5" r="13.7"/>
	<circle class="st0" cx="2310.2" cy="2234" r="13.7"/>
	<circle class="st0" cx="2270.9" cy="2169.8" r="13.7"/>
	<circle class="st0" cx="2312.1" cy="2040.5" r="13.7"/>
	<circle class="st0" cx="2221.4" cy="1896.5" r="13.7"/>
	<circle class="st0" cx="2512.7" cy="1586.9" r="13.7"/>
	<circle class="st0" cx="2282.9" cy="1423.9" r="13.7"/>
	<circle class="st0" cx="2526.4" cy="1178.7" r="13.7"/>
	<circle class="st0" cx="2340.7" cy="912.7" r="13.7"/>
	<circle class="st0" cx="2068.7" cy="958.7" r="13.7"/>
	<circle class="st0" cx="1978.6" cy="926.5" r="13.7"/>
	<circle class="st0" cx="1932.6" cy="685.4" r="13.7"/>
	<circle class="st0" cx="2058.6" cy="710.1" r="13.7"/>
	<circle class="st0" cx="2022.6" cy="637.5" r="13.7"/>
	<circle class="st0" cx="1978.6" cy="573.1" r="13.7"/>
	<circle class="st0" cx="1736.3" cy="783" r="13.7"/>
	<circle class="st0" cx="1585.6" cy="661.5" r="13.7"/>
	<circle class="st0" cx="1623.7" cy="419.5" r="13.7"/>
	<circle class="st0" cx="1377.9" cy="454.5" r="13.7"/>
	<circle class="st0" cx="1283.3" cy="454.5" r="13.7"/>
	<circle class="st0" cx="2308.7" cy="1560" r="10.7"/>
	<circle class="st0" cx="2423.4" cy="1400.6" r="10.7"/>
	<circle class="st0" cx="2444.2" cy="1156.5" r="10.7"/>
	<circle class="st0" cx="2301.9" cy="989.3" r="10.7"/>
	<circle class="st0" cx="2149.9" cy="827.1" r="10.7"/>
	<circle class="st0" cx="1902" cy="793.7" r="10.7"/>
	<circle class="st0" cx="1599.3" cy="734.5" r="10.7"/>
	<circle class="st0" cx="1364.2" cy="561.6" r="10.7"/>
	<circle class="st0" cx="1189.6" cy="572.3" r="10.7"/>
	<circle class="st0" cx="1124.2" cy="607.9" r="10.7"/>
	<circle class="st0" cx="1093.7" cy="650.1" r="10.7"/>
	<circle class="st0" cx="1164.9" cy="652.2" r="10.7"/>
	<circle class="st0" cx="1021.3" cy="861.2" r="10.7"/>
	<circle class="st0" cx="1083" cy="863.6" r="10.7"/>
	<circle class="st0" cx="1048.2" cy="914.9" r="10.7"/>
	<circle class="st0" cx="1186.3" cy="618.6" r="10.7"/>
	<circle class="st0" cx="2293.6" cy="1606.8" r="10.7"/>
	<circle class="st0" cx="1826" cy="2540.1" r="13.7"/>
	<path class="st0" d="M1433.2,903.9c6.2,0.9,9.4-7.1,4.3-10.7c-116.1-81.1-211.6,31-249.3,165.3c-4.7,16.8-9,34.3-12.9,52.6
		c-21.3,1.7-43.1,5-65.2,9.9c-23.1-27.8-57-46.8-98.3-49.7c-107.1-7.7-185.2,77.7-211.3,153.3c-1.6,4.7-0.2,9.9,3.5,13.2
		c6,5.2,15.4,3.4,19-3.8c12.9-26.1,44-80.6,87.5-104.4c42.2-23.1,105.9-29.1,141.9,8.1c-185.2,65.1-208.2,197.6-171.4,233.7
		c47.6,46.8,177.9,29.5,238.6-69.4c31.1-50.8,31.1-108,8.8-152.9c13.2-3,26.8-5.3,40.7-6.9c-24.8,131.3-36.7,293.4-75.8,458.1
		c-0.7,3.1-1.5,6.1-2.3,9.1c-12.6-1.3-25.1-2.7-37.6-4.2c-138-16.6-209.1,34.2-191.5,118.8c17.6,84.6,152.4,98.9,216.2,13.6
		c17.1-22.9,31.6-56.9,44.7-99.1c43.7,1.3,91.1,2.2,139.7-1.4c173.1-12.8,291.6-144.1,254.5-316.8
		c-25.3-117.9-139.4-202.5-286.1-210C1277.1,935.3,1353.9,892,1433.2,903.9z M1078.9,1199.8c11.2,101.3-65.4,168.4-131.7,171.5
		c-66.2,3.2-75-79.8-12.2-127.7c28.7-21.9,76.7-54.3,135.9-77C1074.7,1176.2,1077.5,1187.2,1078.9,1199.8z M901.7,1682.5
		c18.1-47.8,87.9-48.3,180.5-45.4C1023.5,1796.2,874.9,1753.3,901.7,1682.5z M1315,1160.7c162,63,218.6,272.1,122.1,370.2
		c-78.8,80.1-192.7,90-307,81.9c31.7-114.9,55-279,87.5-445c1.8-9.3,3.7-18.4,5.7-27.1C1253.3,1142.4,1284,1148.6,1315,1160.7z"/>
	<path class="st0" d="M1605.8,1312.7c-2.3,3.1-4.3,6.2-6.3,9.3c-3.9,6.2-7.3,12.6-10.5,18.9c-6.4,12.7-12,25.7-17.2,38.8
		c-5.1,13.1-9.9,26.3-14.2,39.7c-8.6,26.7-15.8,53.8-21,81.5c-2.4,12.8-4.4,25.7-5.5,38.8c-3,3.9-6,7.8-9.1,11.6
		c-17.1,21.1-36.1,40.5-57.7,56.8c-2.9,2.2-3.7,6.4-1.6,9.5c2.2,3.2,6.5,4.1,9.7,1.9l0.1,0c11.8-7.9,22.9-16.9,33.4-26.5
		c8.6-7.8,16.7-16.2,24.5-24.8c0.3,5.9,0.8,11.9,2.1,17.9c0.8,3.7,1.8,7.4,3.2,11c1.4,3.7,3.3,7.3,5.8,10.7c2.5,3.4,5.9,6.4,9.8,8.5
		c0.2,0.1,0.5,0.3,0.7,0.4l0.9,0.4l1.2,0.5c0.9,0.4,2.1,0.9,3,1.1c2,0.7,4,1.2,6,1.5c4.1,0.7,8.2,0.7,12.1,0.3
		c4-0.4,7.8-1.3,11.4-2.4c7.3-2.3,14-5.7,20.3-9.4c12.5-7.6,23.5-16.8,33.9-26.6c2.4-2.2,4.7-4.5,6.9-6.8c0.7,1,1.5,2,2.4,3
		c3,3.5,6.9,6.4,11.1,8.4c2.1,1,4.2,1.8,6.4,2.4c2.2,0.6,4.3,1,6.5,1.2c4.3,0.5,8.4,0.4,12.4-0.1c7.9-0.9,15.2-3.1,22.1-5.8
		c13.8-5.4,26.2-12.6,38-20.5l0,0c0.8-0.5,1.5-1.1,2.1-1.9l0,0c5.4-7.7,11-15.3,16.9-22.6c5.9-7.3,12.1-14.5,18.5-21.4
		c6.4-6.9,13-13.6,19.9-20.1c6.9-6.4,13.9-12.7,21.2-18.6c7.3-5.9,14.8-11.6,22.5-17c7.7-5.4,15.6-10.4,23.6-15
		c8.1-4.5,16.3-8.7,24.7-11.9c4.1-1.6,8.4-3,12.3-3.5c0.5-0.1,0.9-0.1,1.4-0.2c0,0,0,0.1,0,0.1c-0.9,2.9-2.5,6.2-4.3,9.5
		c-1.8,3.3-3.9,6.7-6.2,10c-2.2,3.3-4.6,6.6-7.1,9.9c-4.9,6.5-10.2,12.9-15.7,19.2c-5.5,6.3-11.1,12.5-16.9,18.5
		c-0.2,0.2-0.4,0.4-0.6,0.7c-3.8,1.8-7.6,3.8-11.2,5.9c-26.5,15.2-48.8,36.5-66.3,60.7l-0.3,0.5c-2,2.8-2.7,6.5-1.4,10
		c2,5.7,8.3,8.8,14,6.8l0,0c1.9-0.6,3.3-1.3,4.5-1.9c1.3-0.6,2.4-1.3,3.5-1.9c2.2-1.3,4.1-2.6,6-3.9c3.8-2.6,7.3-5.3,10.8-8.1
		c6.9-5.5,13.5-11.2,20-17c10.4-9.3,20.5-19,30.3-28.9c2.9-1.4,5.8-2.7,8.7-3.8c6.1-2.4,12.3-4.4,18.5-5.7c6.2-1.3,12.4-2,18.2-1.7
		c5.8,0.2,11.2,1.5,15.2,3.7c1,0.6,1.9,1.2,2.7,1.8c0.4,0.3,0.8,0.7,1.2,1c0.1,0.1,0.1,0.1,0.1,0.1l0,0l0,0l0.1,0.1
		c0.1,0.1,0.2,0.3,0.4,0.4c1,1.3,1.9,3.4,2.7,5.9c0.7,2.5,1.2,5.4,1.5,8.4c0.3,3,0.4,6.2,0.4,9.4c-0.1,6.4-0.7,13.1-1.6,19.8
		c-1,6.7-2.2,13.4-3.7,20.2c-0.7,3.3-1.5,6.6-2.4,9.9c-11.7,7.5-23.5,14.8-35.3,22.2c-24.3,15.2-48.6,30.3-72.8,45.7
		c-24.2,15.6-48.1,31.9-70.8,50c-11.4,9-22.4,18.6-33.1,28.8c-10.6,10.2-20.7,21.1-29.7,33.3c-4.5,6.1-8.7,12.4-12.5,19.2
		c-1.9,3.4-3.6,6.9-5.2,10.5c-1.6,3.6-3,7.4-4.2,11.3c-2.4,7.8-3.9,16.1-3.8,24.9c0.1,8.7,2.2,17.8,6.6,26.1c1.1,2.1,2.4,4.1,3.8,6
		c1.4,1.9,3.2,4,4.7,5.5c3.2,3.2,6.8,6,10.9,8.4c4,2.4,8.4,4.2,12.9,5.4c4.5,1.2,9.1,1.7,13.6,1.8c4.5,0,8.9-0.5,13.1-1.3
		c4.2-0.8,8.2-2,12.1-3.4c7.7-2.8,14.7-6.5,21.3-10.6c13.1-8.2,24.6-18.1,35.2-28.4c10.6-10.4,20.3-21.4,29.5-32.6
		c18.4-22.7,35-46.3,50.6-70.6c7.8-12.2,15.3-24.6,22.4-37.2c7.1-12.6,13.9-25.4,20.3-38.4c6.4-13,12.6-26.2,18.2-39.6
		c4.4-10.6,8.5-21.4,12.1-32.4c8.3-5.4,16.6-10.9,24.9-16.7c11.8-8.3,23.5-17.1,34.5-27c10.9-9.9,21.1-20.9,29.7-33.1
		c8.7-12.2,15.8-25.4,21.6-38.9c5.9-13.5,10.6-27.4,14.7-41.4c8.3-27.9,14.3-56.1,20.2-84.3c0-0.2,0.1-0.4,0.1-0.6
		c0.9-5.9-3.2-11.4-9.1-12.3c-5.9-0.9-11.4,3.2-12.3,9.1l0,0c-4.2,28.1-9.1,56.1-16.1,83.3c-7.1,27.1-16.5,53.5-32,76.1
		c-7.7,11.3-16.8,21.6-27,31c-10.2,9.4-21.3,18-32.7,26.2c-3.4,2.4-6.9,4.8-10.4,7.2c2.5-10.3,4.3-21,4.8-32.2
		c0.2-3.9,0.2-7.9-0.1-12c-0.3-4.1-0.9-8.3-2.1-12.7c-1.2-4.4-3-9-6.2-13.5c-0.4-0.6-0.8-1.1-1.3-1.7c-0.3-0.4-1.2-1.4-1.6-1.7
		c-0.9-0.9-1.8-1.8-2.8-2.6c-1.9-1.6-4-3-6.1-4.3c-2.1-1.2-4.3-2.3-6.4-3.1c-2.2-0.9-4.4-1.6-6.5-2.1c-4.4-1.1-8.7-1.7-12.9-1.9
		c-5-0.2-10,0-14.7,0.6c3.3-3.9,6.5-7.9,9.6-12c2.7-3.5,5.3-7.1,7.8-10.9c2.5-3.7,5-7.6,7.3-11.7c1.1-2.1,2.3-4.2,3.3-6.5
		c1-2.3,2-4.7,2.8-7.3c0.8-2.7,1.5-5.5,1.7-9.1c0.1-1.8,0-3.8-0.4-5.9c-0.4-2.2-1.3-4.6-2.7-6.8l-0.1-0.2c-1-1.5-2.3-2.8-4.1-3.7
		l0,0c-2.8-1.2-5.2-1.6-7.3-1.7c-2.1-0.1-3.8,0-5.5,0.2c-3.3,0.4-6.1,1.1-8.8,1.9c-5.4,1.6-10.2,3.3-15,5.3
		c-9.4,4-18.2,8.8-26.6,13.9c-8.4,5.2-16.5,10.7-24.4,16.5c-7.9,5.8-15.5,12-22.9,18.3c-7.4,6.4-14.6,13-21.5,19.8
		c-7,6.8-13.7,13.8-20.2,21.1c-6.5,7.2-12.8,14.7-18.9,22.3c-5.7,7.2-11.2,14.6-16.5,22.1c-5.5,3.1-11.1,6.1-16.8,8.7
		c-6,2.9-12.1,5.4-18.3,7.4c-6.1,2-12.3,3.5-18.2,3.9c-5.9,0.4-11.3-0.4-15.3-2.6c-1-0.6-1.9-1.2-2.8-1.9c-0.4-0.3-0.8-0.8-1.3-1.1
		c-0.4-0.4-0.8-0.8-1.1-1.3c-1.2-1.4-2.2-3.2-3.1-5.1c2.9-3.2,5.7-6.5,8.5-9.7c9.1-10.8,17.7-22,25.8-33.5
		c8.2-11.5,15.9-23.3,23-35.6c7.2-12.2,13.8-24.8,19.6-38c2.9-6.6,5.5-13.4,7.7-20.7c1.1-3.6,2-7.4,2.7-11.4c0.2-1,0.3-2,0.4-3.1
		l0.1-0.8l0.1-0.6l0.1-1.6c0.2-2.1,0.2-4.2,0.2-6.4c-0.1-2.2-0.3-4.5-0.8-7c-0.5-2.5-1.3-5.2-2.9-8.1c-0.8-1.5-1.8-2.9-3.2-4.3
		c-1.3-1.4-2.9-2.7-4.7-3.7c-1.8-1-3.7-1.7-5.5-2.1c-1.8-0.4-3.6-0.5-5.2-0.5c-3.3,0.1-6,0.8-8.4,1.5c-2.4,0.8-4.5,1.8-6.5,2.8
		c-3.9,2.1-7.2,4.5-10.4,6.9c-6.2,5-11.4,10.4-16.3,16.1c-4.8,5.7-9.2,11.7-13.2,17.8c-8,12.3-14.6,25.4-19.9,38.9
		c-2.6,6.8-4.9,13.7-6.9,20.7c-0.5,1.8-1,3.5-1.4,5.3l-0.7,2.7l-0.6,2.5l-1.2,5.3c-0.4,1.8-0.7,3.5-1.1,5.3
		c-1.3,7.1-2.4,14.3-3.1,21.6c-0.6,7.3-0.9,14.8-0.3,22.4c0.3,3.8,0.8,7.7,1.7,11.6c0.4,1.8,0.9,3.6,1.4,5.4
		c-3.3,3.7-6.7,7.4-10.1,10.9c-9.4,9.6-19.6,18.6-30.6,25.6c-5.5,3.5-11.3,6.4-17.2,8.4c-5.9,2-11.9,2.8-17.4,1.9
		c-1.4-0.2-2.7-0.6-4.1-1c-0.7-0.2-1.1-0.4-1.9-0.7l-1.2-0.5c0.2,0.1-0.1,0-0.1,0l-0.2-0.1c-0.1-0.1-0.3-0.1-0.4-0.2
		c-2.2-1.2-4.1-2.9-5.7-5c-3.3-4.3-5.3-10.3-6.5-16.5c-1.2-6.2-1.7-12.8-1.7-19.5c0-3.8,0.1-7.7,0.4-11.6
		c6.2-7.6,12.1-15.4,17.8-23.3c8.2-11.5,16-23.3,23.3-35.3c14.6-24.1,27.4-49.3,38.3-75.3c5.4-13,10.4-26.3,14.6-39.9
		c2.1-6.8,4.1-13.7,5.7-20.7c1.7-7,3.1-14.2,4-21.6c0.4-3.7,0.7-7.6,0.8-11.6c0-4-0.2-8.2-1.5-13.1c-0.3-1.2-0.8-2.5-1.4-3.9
		c-0.6-1.4-1.4-2.8-2.4-4.3c-1.1-1.5-2.5-3-4.4-4.3c-0.9-0.6-1.9-1.2-3-1.6l-0.8-0.3c-0.4-0.1-0.3-0.1-1.1-0.4l-0.4-0.1
		c-0.4-0.1-0.9-0.2-1.3-0.3c-2.7-0.5-5.2-0.2-7.2,0.4c-2,0.5-3.5,1.3-4.8,2c-2.6,1.5-4.5,3.1-6.1,4.6
		C1610.5,1306.6,1608.1,1309.7,1605.8,1312.7z M1921.1,1621.8c-4.6,13.2-10,26.3-15.9,39c-6,12.8-12.5,25.3-19.6,37.5
		c-7,12.2-14.5,24.2-22.4,35.9c-3.9,5.9-8,11.6-12.1,17.4c-2.1,2.9-4.2,5.7-6.3,8.5l-3.2,4.3l-3.2,4.2c-8.6,11.2-17.6,22.1-27,32.5
		c-9.4,10.4-19.1,20.4-29.3,29.7c-10.2,9.2-21,17.7-32.3,24.3c-5.6,3.3-11.4,6.1-17.2,8.1c-5.8,2-11.5,3.1-16.8,3
		c-5.3-0.1-10.1-1.4-14.4-3.9c-2.1-1.3-4.2-2.8-6-4.7c-1-1-1.5-1.6-2.3-2.6c-0.7-0.9-1.4-2-2-3.1c-2.4-4.3-3.7-9.5-3.8-15.1
		c-0.2-5.6,0.7-11.5,2.4-17.4c3.4-11.9,9.9-23.6,17.5-34.7c7.7-11.1,16.6-21.6,26.1-31.7c9.6-10.1,19.7-19.7,30.3-28.9
		c5.3-4.6,10.7-9.1,16.1-13.6c5.5-4.4,11-8.8,16.7-13.1c5.6-4.3,11.3-8.5,17-12.7l8.7-6.2l8.7-6.1c23.6-16,47.6-31.3,71.8-46.5
		c7.2-4.5,14.4-9,21.5-13.5C1923.2,1615.6,1922.2,1618.7,1921.1,1621.8z M1914.7,1433.2L1914.7,1433.2l-1-0.9
		c0.6,0.1,1.2,0.3,1.4,0.5C1915.5,1432.9,1915.4,1433.2,1914.7,1433.2z M1726,1395.4C1726,1395.4,1726,1395.4,1726,1395.4
		C1726,1395.4,1726,1395.4,1726,1395.4z M1658.1,1523.5c0.8-6.5,1.9-13,3.3-19.5c0.3-1.6,0.7-3.3,1.1-4.9l1.2-4.8l1.3-4.9
		c0.4-1.6,0.9-3.2,1.3-4.7c1.9-6.3,4.1-12.5,6.5-18.6c4.9-12.2,11.1-23.9,18.3-34.8c3.6-5.4,7.5-10.7,11.6-15.5
		c4.2-4.8,8.6-9.4,13.2-13.1c2.3-1.8,4.7-3.5,6.9-4.6c1.1-0.6,2.1-1,3-1.3c0.2-0.1,0.5-0.1,0.7-0.2c0,0.2,0.1,0.3,0.1,0.5
		c0.2,0.9,0.3,2,0.4,3.3c0,1.2,0,2.6-0.1,4l0,0.5l0,0.6l-0.1,1.1c-0.1,0.7-0.2,1.4-0.3,2.1c-0.4,2.8-1.1,5.8-2,8.8
		c-1.7,6.1-3.9,12.3-6.4,18.4c-5,12.3-10.9,24.5-17.3,36.4c-12.7,23.7-27.2,46.6-43.5,68.1
		C1657.1,1534.9,1657.4,1529.2,1658.1,1523.5z M1630.5,1317.3C1630.5,1317.2,1630.5,1317.2,1630.5,1317.3L1630.5,1317.3z
		 M1622.6,1325.4c1.3-1.8,2.7-3.5,4.1-4.9c0.1,1.3,0.2,2.8,0.2,4.3c0,2.9-0.2,6-0.6,9.2c-0.7,6.3-2,12.8-3.5,19.2
		c-1.5,6.5-3.3,12.9-5.3,19.4c-4,12.9-8.6,25.6-13.7,38.2c-10.3,25.2-22.3,49.7-35.9,73.3c-6,10.4-12.4,20.6-19,30.6
		c0.7-3.6,1.5-7.1,2.3-10.7c3-13.3,6.6-26.5,10.5-39.6c4-13.1,8.3-26.1,13.1-38.9c4.7-12.8,9.7-25.6,15.2-38.1
		c5.4-12.5,11.1-24.9,17.4-36.8c3.2-5.9,6.4-11.8,9.9-17.3C1619,1330.5,1620.8,1327.8,1622.6,1325.4z"/>
	<circle class="st0" cx="1082.8" cy="1401.4" r="17"/>
	<circle class="st0" cx="1072.7" cy="1464.3" r="17"/>
	<circle class="st0" cx="1065.8" cy="1530.9" r="17"/>
	<circle class="st0" cx="1930" cy="1374.6" r="15.3"/>
	<circle class="st0" cx="1960.7" cy="1405.3" r="15.3"/>
	<circle class="st0" cx="1960.7" cy="1453" r="15.3"/>
	<circle class="st0" cx="2090.9" cy="1315.9" r="15.3"/>
	<circle class="st0" cx="1642.6" cy="1237.7" r="28.8"/>
</g>
</svg>
