<?xml version="1.0" standalone="no"?>
<!DOCTYPE svg PUBLIC "-//W3C//DTD SVG 20010904//EN"
 "http://www.w3.org/TR/2001/REC-SVG-20010904/DTD/svg10.dtd">
<svg version="1.0" xmlns="http://www.w3.org/2000/svg"
 width="1005.000000pt" height="698.000000pt" viewBox="0 0 1005.000000 698.000000"
 preserveAspectRatio="xMidYMid meet">
<metadata>
Created by potrace 1.15, written by Peter Selinger 2001-2017
</metadata>
<g transform="translate(0.000000,698.000000) scale(0.100000,-0.100000)"
fill="#000000" stroke="none">
<path d="M2535 6163 c-254 -17 -517 -86 -750 -197 -214 -103 -376 -213 -530
-361 -79 -75 -79 -76 -45 -70 326 54 641 10 925 -132 152 -76 252 -148 381
-277 213 -213 341 -444 405 -731 22 -97 23 -123 29 -850 7 -803 5 -773 60
-929 41 -121 125 -243 234 -342 112 -102 264 -179 415 -210 112 -22 305 -15
406 15 326 96 567 366 624 697 9 51 12 284 9 894 l-4 825 -27 100 c-87 313
-200 544 -379 776 -409 530 -1088 836 -1753 792z"/>
<path d="M7142 6159 c-450 -40 -908 -243 -1215 -541 -70 -68 -86 -88 -67 -84
84 17 259 28 355 22 211 -13 385 -59 580 -156 446 -221 750 -659 804 -1158 7
-64 11 -340 11 -727 l0 -625 875 0 875 0 0 761 c0 863 3 829 -85 1099 -216
660 -766 1177 -1437 1349 -218 56 -484 79 -696 60z"/>
<path d="M5980 4965 c-239 -49 -434 -182 -569 -389 -53 -81 -80 -144 -114
-266 -20 -72 -21 -104 -27 -825 -6 -707 -8 -755 -27 -840 -69 -302 -193 -527
-407 -741 -220 -219 -451 -344 -750 -405 -168 -34 -409 -36 -566 -3 -34 7 108
-131 225 -219 732 -549 1743 -551 2471 -4 396 298 669 722 778 1208 l26 116 0
802 c0 694 -2 812 -16 879 -85 413 -444 705 -861 701 -54 0 -127 -7 -163 -14z"/>
<path d="M1301 4939 c-350 -68 -623 -340 -695 -691 -14 -69 -16 -259 -16
-1728 l0 -1650 873 2 872 3 0 1665 0 1665 -23 84 c-47 171 -124 302 -248 422
-168 161 -368 240 -603 238 -64 -1 -136 -5 -160 -10z"/>
<path d="M8363 2565 c-505 -92 -819 -591 -678 -1080 98 -337 378 -572 734
-615 416 -51 821 236 921 652 27 113 27 283 0 396 -40 165 -118 300 -247 423
-97 92 -188 148 -309 188 -151 51 -280 62 -421 36z"/>
</g>
</svg>
